<?xml version="1.0" encoding="UTF-8" standalone="no"?>
<!-- Generator: Adobe Illustrator 19.0.1, SVG Export Plug-In . SVG Version: 6.00 Build 0)  -->

<svg
   xmlns:dc="http://purl.org/dc/elements/1.1/"
   xmlns:cc="http://creativecommons.org/ns#"
   xmlns:rdf="http://www.w3.org/1999/02/22-rdf-syntax-ns#"
   xmlns:svg="http://www.w3.org/2000/svg"
   xmlns="http://www.w3.org/2000/svg"
   xmlns:sodipodi="http://sodipodi.sourceforge.net/DTD/sodipodi-0.dtd"
   xmlns:inkscape="http://www.inkscape.org/namespaces/inkscape"
   version="1.1"
   id="Слой_1"
   x="0px"
   y="0px"
   viewBox="0 0 960 560"
   style="enable-background:new 0 0 960 560;"
   xml:space="preserve"
   inkscape:version="0.91 r13725"
   sodipodi:docname="bg-2.svg"><metadata
     id="metadata59"><rdf:RDF><cc:Work
         rdf:about=""><dc:format>image/svg+xml</dc:format><dc:type
           rdf:resource="http://purl.org/dc/dcmitype/StillImage" /></cc:Work></rdf:RDF></metadata><defs
     id="defs57" /><sodipodi:namedview
     pagecolor="#ffffff"
     bordercolor="#666666"
     borderopacity="1"
     objecttolerance="10"
     gridtolerance="10"
     guidetolerance="10"
     inkscape:pageopacity="0"
     inkscape:pageshadow="2"
     inkscape:window-width="1317"
     inkscape:window-height="744"
     id="namedview55"
     showgrid="false"
     showguides="false"
     inkscape:zoom="1.3083333"
     inkscape:cx="660.32575"
     inkscape:cy="193.01872"
     inkscape:window-x="49"
     inkscape:window-y="24"
     inkscape:window-maximized="1"
     inkscape:current-layer="Слой_1" /><style
     type="text/css"
     id="style3">
	.st0{fill:#EDF4FE;}
	.st1{fill:#153F65;}
	.st2{fill:#03131F;}
	.st3{fill:#F7F6F6;}
	.st4{fill:#70BDF2;}
	.st5{fill:#CCDBEA;}
	.st6{fill:#F4D4EF;}
	.st7{fill:#FFFFFF;}
</style><polygon
     class="st0"
     points="724.4,393.3 800,435.5 725.6,479.9 "
     id="polygon5" /><polygon
     class="st1"
     points="732.1,486.2 807.7,528.4 733.3,572.8 "
     id="polygon7"
     style="fill:#ccdbea;fill-opacity:1" /><polygon
     class="st2"
     points="894.1,487.2 969.7,529.5 895.3,573.8 "
     id="polygon9" /><polygon
     class="st3"
     points="804.5,344.8 880.1,387.1 805.7,431.4 "
     id="polygon11" /><polygon
     class="st3"
     points="813.3,441.7 888.9,483.9 814.5,528.3 "
     id="polygon13" /><polygon
     class="st3"
     points="645.2,440.7 720.8,483 646.4,527.3 "
     id="polygon15" /><polygon
     class="st4"
     points="892.4,393.3 968,435.5 893.6,479.9 "
     id="polygon17"
     style="fill:#ccdbea;fill-opacity:1" /><polygon
     class="st0"
     points="888.5,477 812.6,435.3 886.7,390.4 "
     id="polygon19" /><polygon
     class="st0"
     points="890.3,574 814.4,532.2 888.5,487.4 "
     id="polygon21" /><polygon
     class="st5"
     points="727.2,572.9 651.4,531.2 725.4,486.4 "
     id="polygon23" /><polygon
     class="st6"
     points="807.4,528.5 731.6,486.7 805.7,441.9 "
     id="polygon25" /><polygon
     class="st0"
     points="805.7,431.5 729.8,389.7 803.9,344.9 "
     id="polygon27" /><polygon
     class="st0"
     points="973.4,525.5 897.5,483.7 971.6,438.9 "
     id="polygon29" /><polygon
     class="st4"
     points="563.1,489.2 638.7,531.5 564.3,575.8 "
     id="polygon31" /><polygon
     class="st0"
     points="561.4,395.2 637,437.5 562.6,481.8 "
     id="polygon33" /><polygon
     class="st7"
     points="557.5,479 481.6,437.2 555.7,392.4 "
     id="polygon35" /><polygon
     class="st0"
     points="559.3,576 483.4,534.2 557.5,489.4 "
     id="polygon37" /><polygon
     class="st4"
     points="889,203.3 964.6,245.5 890.2,289.9 "
     id="polygon39" /><polygon
     class="st1"
     points="890.7,296.3 966.3,338.5 891.9,382.9 "
     id="polygon41" /><polygon
     class="st3"
     points="803.8,250.8 879.4,293.1 805,337.4 "
     id="polygon43" /><polygon
     class="st0"
     points="884.1,290.1 808.3,248.3 882.4,203.5 "
     id="polygon45" /><polygon
     class="st2"
     points="970.7,428.5 894.8,386.8 968.9,341.9 "
     id="polygon47" /><polygon
     class="st0"
     points="885.8,383 809.9,341.3 884,296.5 "
     id="polygon49"
     style="fill:#ccdbea;fill-opacity:1" /><polygon
     class="st2"
     points="970,334.5 894.1,292.8 968.2,247.9 "
     id="polygon51"
     style="fill:#ccdbea;fill-opacity:1" /><polygon
     class="st1"
     points="968.2,239.5 892.4,197.8 966.5,152.9 "
     id="polygon53" /></svg>