<svg id="Слой_1" xmlns="http://www.w3.org/2000/svg" viewBox="350 81 960 560"><style>.st0{fill:#5c7886}.st1{fill:#e4f1ee}.st2{fill:#edf4fe}.st3{fill:#add0dc}.st4{fill:#ccdbea}.st5{fill:#153f65}.st6{fill:#2e97a9}</style><path id="polygon5_1_" class="st0" d="M1181.4 532.4l-56.2 33.9.2-68.4 56 34.5z"/><path id="polygon7_1_" class="st1" d="M1185.9 605.9l-56.2 33.9.2-68.4 56 34.5z"/><path id="polygon9_1_" class="st0" d="M1307.2 609.1L1251 643l.2-68.4 56 34.5z"/><path id="polygon11_1_" class="st1" d="M1242 495.3l-56.2 33.9.2-68.4 56 34.5z"/><path id="polygon13_1_" class="st1" d="M1247.3 571.9l-56.2 33.9.2-68.4 56 34.5z"/><path id="polygon15_1_" class="st2" d="M1121.5 568.8l-56.2 33.9.2-68.4 56 34.5z"/><path id="polygon17_1_" class="st3" d="M1307.2 534.8l-56.2 33.9.2-68.4 56 34.5z"/><path id="polygon19_1_" class="st4" d="M1190.9 532.3L1247 498l.1 68.4-56.2-34.1z"/><path id="polygon21_1_" class="st4" d="M1190.9 609l56.1-34.4.1 68.4-56.2-34z"/><path id="polygon25_1_" class="st4" d="M1068.9 605.8l56.1-34.4.1 68.4-56.2-34z"/><path id="polygon27_1_" class="st3" d="M1129.5 571.8l56.1-34.4.1 68.4-56.2-34z"/><path id="polygon29_1_" class="st4" d="M1186.3 460.5l.1 68.7-56.7-34.2 56.6-34.5z"/><path id="polygon31_1_" class="st5" d="M1253.8 571.8l56.1-34.4.1 68.4-56.2-34z"/><path id="polygon33_1_" class="st1" d="M1059.4 605.9l-56.2 33.9.2-68.4 56 34.5z"/><path id="polygon41_1_" class="st3" d="M1307.2 384.6l-56.2 33.9.2-68.4 56 34.5z"/><path id="polygon43_1_" class="st6" d="M1307.2 458.1L1251 492l.2-68.4 56 34.5z"/><path id="polygon49_1_" class="st0" d="M1253 495.2l56.1-34.4.1 68.4-56.2-34z"/><path id="polygon51_1_" class="st1" d="M1190.2 458.1l56.1-34.4.1 68.4-56.2-34z"/><path id="polygon53_1_" class="st0" d="M1253.8 420.9l56.1-34.4.1 68.4-56.2-34z"/><path id="polygon55_1_" class="st6" d="M1253.8 345.8l56.1-34.4.1 68.4-56.2-34z"/></svg>