<svg xmlns="http://www.w3.org/2000/svg" id="Слой_1" viewBox="0 0 960 560"><style id="style3">.st0{fill:#edf4fe}.st1{fill:#153f65}.st2{fill:#03131f}.st3{fill:#f7f6f6}.st4{fill:#70bdf2}.st5{fill:#ccdbea}.st6{fill:#f4d4ef}.st7{fill:#fff}</style><path class="st3" id="polygon11" transform="matrix(.7731 0 0 .7525 220.87 139.497)" fill="#6869bb" fill-opacity="0" d="M804.5 344.8l75.6 42.3-74.4 44.3z"/><path class="st7" id="polygon35" d="M798.88 628.575L740.2 597.12l57.287-33.712z" fill="#fff"/><path id="polygon5-3" class="st0" d="M838.094 484.948l-54.317 34.908.217-70.467z" fill="#5c7886"/><path id="polygon7-6" class="st1" d="M842.433 560.623l-54.316 34.908.217-70.467z" fill="#e4f1ee"/><path id="polygon9-7" class="st0" d="M959.601 563.878l-54.317 34.908.217-70.467z" fill="#5c7886"/><path id="polygon11-5" class="st1" d="M896.678 446.704l-54.317 34.908.217-70.468z" fill="#e4f1ee"/><path id="polygon13-3" class="st1" d="M901.74 525.633l-54.316 34.908.217-70.467z" fill="#e4f1ee"/><path id="polygon15-5" class="st2" d="M780.233 522.378l-54.316 34.909.217-70.468z" fill="#edf4fe"/><path id="polygon17-6" class="st3" d="M959.601 487.389l-54.317 34.908.217-70.467z" fill="#add0dc"/><path id="polygon19-2" class="st4" d="M847.28 484.866l54.171-35.396.145 70.467z" fill="#ccdbea"/><path id="polygon21-9" class="st4" d="M847.28 563.796l54.17-35.396.145 70.467z" fill="#ccdbea"/><path id="polygon23-1" class="st1" d="M729.388 484.866l54.172-35.396.145 70.467z" fill="#e4f1ee"/><path id="polygon25-2" class="st4" d="M729.388 560.541l54.172-35.396.145 70.467z" fill="#ccdbea"/><path id="polygon27-7" class="st3" d="M787.972 525.552l54.172-35.396.145 70.467z" fill="#add0dc"/><path id="polygon29-0" class="st4" d="M842.795 410.9l.145 70.793-54.751-35.234z" fill="#ccdbea"/><path id="polygon31-9" class="st5" d="M908.033 525.552l54.172-35.396.144 70.467z" fill="#153f65"/><path id="polygon33-3" class="st1" d="M720.203 560.623l-54.317 34.908.217-70.467z" fill="#e4f1ee"/><path id="polygon35-6" class="st1" d="M720.203 484.134l-54.317 34.908.217-70.467z" fill="#e4f1ee"/><path id="polygon39-0" class="st0" d="M607.88 560.541l54.173-35.396.145 70.467z" fill="#5c7886"/><path id="polygon41-6" class="st3" d="M959.601 332.784l-54.317 34.908.217-70.467z" fill="#add0dc"/><path id="polygon43-2" class="st6" d="M959.601 408.46l-54.317 34.907.217-70.467z" fill="#2e97a9"/><path id="polygon45-6" class="st0" d="M897.4 370.215l-54.316 34.908.217-70.467z" fill="#5c7886"/><path id="polygon47-1" class="st1" d="M846.556 332.703l54.172-35.396.145 70.467z" fill="#e4f1ee"/><path id="polygon49-8" class="st0" d="M907.31 446.622l54.172-35.396.144 70.467z" fill="#5c7886"/><path id="polygon51-7" class="st1" d="M846.556 408.378l54.172-35.397.145 70.468z" fill="#e4f1ee"/><path id="polygon53-9" class="st0" d="M908.033 370.133l54.172-35.396.144 70.467z" fill="#5c7886"/><path id="polygon55" class="st6" d="M908.033 292.831l54.172-35.396.144 70.467z" fill="#2e97a9"/></svg>