<?xml version="1.0" encoding="utf-8"?>
<!-- Generator: Adobe Illustrator 19.0.1, SVG Export Plug-In . SVG Version: 6.00 Build 0)  -->
<svg version="1.1" id="Слой_1" xmlns="http://www.w3.org/2000/svg" xmlns:xlink="http://www.w3.org/1999/xlink" x="0px" y="0px"
	 viewBox="0 0 960 560" style="enable-background:new 0 0 960 560;" xml:space="preserve">
<style type="text/css">
	.st0{fill:#EDF4FE;}
	.st1{fill:#153F65;}
	.st2{fill:#03131F;}
	.st3{fill:#F7F6F6;}
	.st4{fill:#70BDF2;}
	.st5{fill:#CCDBEA;}
	.st6{fill:#F4D4EF;}
	.st7{fill:#FFFFFF;}
</style>
<polygon class="st0" points="724.4,393.3 800,435.5 725.6,479.9 "/>
<polygon class="st1" points="732.1,486.2 807.7,528.4 733.3,572.8 "/>
<polygon class="st2" points="894.1,487.2 969.7,529.5 895.3,573.8 "/>
<polygon class="st3" points="804.5,344.8 880.1,387.1 805.7,431.4 "/>
<polygon class="st3" points="813.3,441.7 888.9,483.9 814.5,528.3 "/>
<polygon class="st3" points="645.2,440.7 720.8,483 646.4,527.3 "/>
<polygon class="st4" points="892.4,393.3 968,435.5 893.6,479.9 "/>
<polygon class="st0" points="888.5,477 812.6,435.3 886.7,390.4 "/>
<polygon class="st0" points="890.3,574 814.4,532.2 888.5,487.4 "/>
<polygon class="st5" points="727.2,572.9 651.4,531.2 725.4,486.4 "/>
<polygon class="st6" points="807.4,528.5 731.6,486.7 805.7,441.9 "/>
<polygon class="st0" points="805.7,431.5 729.8,389.7 803.9,344.9 "/>
<polygon class="st0" points="973.4,525.5 897.5,483.7 971.6,438.9 "/>
<polygon class="st4" points="563.1,489.2 638.7,531.5 564.3,575.8 "/>
<polygon class="st0" points="561.4,395.2 637,437.5 562.6,481.8 "/>
<polygon class="st7" points="557.5,479 481.6,437.2 555.7,392.4 "/>
<polygon class="st0" points="559.3,576 483.4,534.2 557.5,489.4 "/>
<polygon class="st4" points="889,203.3 964.6,245.5 890.2,289.9 "/>
<polygon class="st1" points="890.7,296.3 966.3,338.5 891.9,382.9 "/>
<polygon class="st3" points="803.8,250.8 879.4,293.1 805,337.4 "/>
<polygon class="st0" points="884.1,290.1 808.3,248.3 882.4,203.5 "/>
<polygon class="st2" points="970.7,428.5 894.8,386.8 968.9,341.9 "/>
<polygon class="st0" points="885.8,383 809.9,341.3 884,296.5 "/>
<polygon class="st2" points="970,334.5 894.1,292.8 968.2,247.9 "/>
<polygon class="st1" points="968.2,239.5 892.4,197.8 966.5,152.9 "/>
</svg>
