<svg xmlns="http://www.w3.org/2000/svg" id="Слой_1" viewBox="0 0 260 720"><style id="style3">.st0{fill:#2c4154}.st1{fill:#9bbbcc}.st2{fill:#dde9e5}.st3{fill:#deebe7}.st4{fill:#9ab7c7}.st5{fill:#99b4c3}.st6{fill:#dce8e3}.st7{fill:#344453}</style><path class="st0" id="polygon5" opacity=".5" d="M43.3.2h43.4L65 36.2l-21.7 36-21.6-36L0 .2z"/><path class="st1" id="polygon7" opacity=".5" d="M86.7 72.2H130l-21.7 36-21.6 36-21.7-36-21.7-36z"/><path class="st2" id="polygon9" opacity=".5" d="M260.1 72.2l.1 38.7-.1 33.3-21.7-36-21.6-36z"/><path class="st0" id="polygon11" opacity=".5" d="M173.4 72.2h43.4l-21.7 36-21.7 36-21.6-36-21.7-36z"/><path class="st2" id="polygon13" opacity=".5" d="M0 72.2h43.3l-21.6 36-21.7 36v-72z"/><path class="st3" id="polygon15" opacity=".5" d="M130.1.2h43.3l-21.6 36-21.7 36-21.7-36L86.8.2z"/><path class="st4" id="polygon17" opacity=".5" d="M216.8.2h43.3l-21.7 36-21.6 36-21.7-36-21.7-36z"/><path class="st2" id="polygon19" opacity=".5" d="M43.3 144.2h43.4L65 180.1l-21.7 36-21.6-36L0 144.2z"/><path class="st1" id="polygon21" opacity=".5" d="M86.7 216.1H130l-21.7 36-21.6 36-21.7-36-21.7-36z"/><path class="st4" id="polygon23" opacity=".5" d="M260.1 216.1l.1 38.7-.1 33.3-21.7-36-21.6-36z"/><path class="st0" id="polygon25" opacity=".5" d="M173.4 216.1h43.4l-21.7 36-21.7 36-21.6-36-21.7-36z"/><path class="st5" id="polygon27" opacity=".5" d="M0 216.1h43.3l-21.6 36-21.7 36v-72z"/><path class="st3" id="polygon29" opacity=".5" d="M130.1 144.2h43.3l-21.6 35.9-21.7 36-21.7-36-21.6-35.9z"/><path class="st2" id="polygon31" opacity=".5" d="M216.8 144.2h43.3l-21.7 35.9-21.6 36-21.7-36-21.7-35.9z"/><path class="st2" id="polygon33" opacity=".5" d="M43.3 288.1h43.4l-21.7 36-21.7 36-21.6-36-21.7-36z"/><path class="st1" id="polygon35" opacity=".5" d="M86.7 360.1H130l-21.7 36-21.6 36-21.7-36-21.7-36z"/><path class="st2" id="polygon37" opacity=".5" d="M260.1 360.1l.1 38.7-.1 33.3-21.7-36-21.6-36z"/><path class="st0" id="polygon39" opacity=".5" d="M173.4 360.1h43.4l-21.7 36-21.7 36-21.6-36-21.7-36z"/><path class="st6" id="polygon41" opacity=".5" d="M0 360.1h43.3l-21.6 36-21.7 36v-72z"/><path class="st3" id="polygon43" opacity=".5" d="M130.1 288.1h43.3l-21.6 36-21.7 36-21.7-36-21.6-36z"/><path class="st2" id="polygon45" opacity=".5" d="M216.8 288.1h43.3l-21.7 36-21.6 36-21.7-36-21.7-36z"/><path class="st0" id="polygon47" opacity=".5" d="M43.3 432.1h43.4l-21.7 36-21.7 36-21.6-36-21.7-36z"/><path class="st1" id="polygon49" opacity=".5" d="M86.7 504.1H130L108.3 540l-21.6 36L65 540l-21.7-35.9z"/><path class="st2" id="polygon51" opacity=".5" d="M260.1 504.1l.1 38.6-.1 33.3-21.7-36-21.6-35.9z"/><path class="st0" id="polygon53" opacity=".5" d="M173.4 504.1h43.4L195.1 540l-21.7 36-21.6-36-21.7-35.9z"/><path class="st6" id="polygon55" opacity=".5" d="M0 504.1h43.3L21.7 540 0 576v-71.9z"/><path class="st3" id="polygon57" opacity=".5" d="M130.1 432.1h43.3l-21.6 36-21.7 36-21.7-36-21.6-36z"/><path class="st4" id="polygon59" opacity=".5" d="M216.8 432.1h43.3l-21.7 36-21.6 36-21.7-36-21.7-36z"/><path class="st0" id="polygon61" opacity=".5" d="M43.3 576h43.4L65 612l-21.7 36-21.6-36L0 576z"/><path class="st1" id="polygon63" opacity=".5" d="M86.7 648H130l-21.7 36-21.6 36L65 684l-21.7-36z"/><path class="st7" id="polygon65" opacity=".5" d="M260.1 648l.1 38.7-.1 33.3-21.7-36-21.6-36z"/><path class="st0" id="polygon67" opacity=".5" d="M173.4 648h43.4l-21.7 36-21.7 36-21.6-36-21.7-36z"/><path class="st7" id="polygon69" opacity=".5" d="M0 648h43.3l-21.6 36L0 720v-72z"/><path class="st3" id="polygon71" opacity=".5" d="M130.1 576h43.3l-21.6 36-21.7 36-21.7-36-21.6-36z"/><path class="st4" id="polygon73" opacity=".5" d="M216.8 576h43.3l-21.7 36-21.6 36-21.7-36-21.7-36z"/></svg>