<svg xmlns="http://www.w3.org/2000/svg" id="Слой_1" viewBox="350 81 960 560"><style id="style3">.st0{fill:#5c7886}.st1{fill:#e4f1ee}.st2{fill:#edf4fe}.st3{fill:#add0dc}.st4{fill:#ccdbea}.st5{fill:#153f65}.st6{fill:#2e97a9}</style><path id="polygon7" class="st1" d="M475.6 123.5l55.9-34.3-.2 69.2-55.7-34.9z"/><path id="polygon9" class="st0" d="M355.1 120.4L411 86.1l-.2 69.2-55.7-34.9z"/><path id="polygon11" class="st1" d="M478.71 194.325l55.9-34.3-.2 69.2-55.7-34.9z" fill="#e4f1ee"/><path id="polygon13" class="st1" d="M414.6 157.9l55.9-34.3-.2 69.2-55.7-34.9z"/><path id="polygon15" class="st2" d="M539.6 161.1l55.9-34.3-.2 69.2-55.7-34.9z"/><path id="polygon17" class="st3" d="M355.1 195.5l55.9-34.3-.2 69.2-55.7-34.9z"/><path id="polygon19" class="st4" d="M470.6 197.9l-55.7 34.8-.1-69.2 55.8 34.4z"/><path id="polygon21" class="st4" d="M470.6 120.4l-55.7 34.8-.2-69.2 55.9 34.4z"/><path id="polygon23" class="st1" d="M653.513 161.689l-55.7 34.8-.1-69.2 55.8 34.4z" fill="#e4f1ee"/><path id="polygon25" class="st4" d="M591.9 123.6l-55.7 34.8-.2-69.2 55.9 34.4z"/><path id="polygon27" class="st3" d="M531.7 158L476 192.8l-.1-69.2 55.8 34.4z"/><path id="polygon29" class="st4" d="M660.039 158.184l-.1-69.5 56.3 34.6-56.2 34.9z" fill="#ccdbea"/><path id="polygon31" class="st5" d="M408.1 158l-55.7 34.8-.1-69.2 55.8 34.4z"/><path id="polygon33" class="st1" d="M601.4 123.5l55.9-34.3-.2 69.2-55.7-34.9z"/><path id="polygon41" class="st3" d="M355.1 347.3L411 313l-.2 69.2-55.7-34.9z"/><path id="polygon43" class="st6" d="M355.1 273l55.9-34.3-.2 69.2-55.7-34.9z"/><path id="polygon49" class="st0" d="M408.9 235.5l-55.7 34.8-.1-69.2 55.8 34.4z"/><path id="polygon51" class="st1" d="M471.4 273.1l-55.7 34.8-.1-69.2 55.8 34.4z"/><path id="polygon53" class="st0" d="M408.1 310.6l-55.7 34.8-.1-69.2 55.8 34.4z"/><path id="polygon55" class="st6" d="M408.1 386.5l-55.7 34.8-.1-69.2 55.8 34.4z"/></svg>