<svg xmlns="http://www.w3.org/2000/svg" id="Слой_1" viewBox="350 81 960 560"><style id="style3">.st0{fill:#5c7886}.st1{fill:#e4f1ee}.st2{fill:#edf4fe}.st3{fill:#add0dc}.st4{fill:#ccdbea}.st5{fill:#153f65}.st6{fill:#2e97a9}</style><path id="polygon5" class="st0" transform="matrix(.74416 0 0 .79906 81.971 13.222)" fill="#5c7886" d="M492.2 205.8l75.1-42.9-.3 86.6z"/><path id="polygon7" class="st1" transform="matrix(.74416 0 0 .79906 81.971 13.222)" fill="#e4f1ee" d="M486.2 112.8l75.1-42.9-.3 86.6z"/><path id="polygon9" class="st0" transform="matrix(.74416 0 0 .79906 81.971 13.222)" fill="#5c7886" d="M324.2 108.8l75.1-42.9-.3 86.6z"/><path id="polygon11" class="st1" transform="matrix(.74416 0 0 .79906 81.971 13.222)" fill="#e4f1ee" d="M411.2 252.8l75.1-42.9-.3 86.6z"/><path id="polygon13" class="st1" transform="matrix(.74416 0 0 .79906 81.971 13.222)" fill="#e4f1ee" d="M404.2 155.8l75.1-42.9-.3 86.6z"/><path id="polygon15" class="st2" transform="matrix(.74416 0 0 .79906 81.971 13.222)" fill="#edf4fe" d="M572.2 159.8l75.1-42.9-.3 86.6z"/><path id="polygon17" class="st3" transform="matrix(.74416 0 0 .79906 81.971 13.222)" fill="#add0dc" d="M324.2 202.8l75.1-42.9-.3 86.6z"/><path id="polygon19" class="st4" transform="matrix(.74416 0 0 .79906 81.971 13.222)" fill="#ccdbea" d="M479.5 205.9l-74.9 43.5-.2-86.6z"/><path id="polygon21" class="st4" transform="matrix(.74416 0 0 .79906 81.971 13.222)" fill="#ccdbea" d="M479.5 108.9l-74.9 43.5-.2-86.6z"/><path id="polygon23" class="st1" transform="matrix(.74416 0 0 .79906 81.971 13.222)" fill="#e4f1ee" d="M642.5 205.9l-74.9 43.5-.2-86.6z"/><path id="polygon25" class="st4" transform="matrix(.74416 0 0 .79906 81.971 13.222)" fill="#ccdbea" d="M642.5 112.9l-74.9 43.5-.2-86.6z"/><path id="polygon27" class="st3" transform="matrix(.74416 0 0 .79906 81.971 13.222)" fill="#add0dc" d="M561.5 155.9l-74.9 43.5-.2-86.6z"/><path id="polygon29" class="st4" transform="matrix(.74416 0 0 .79906 81.971 13.222)" fill="#ccdbea" d="M485.7 296.8l-.2-87 75.7 43.3z"/><path id="polygon31" class="st5" transform="matrix(.74416 0 0 .79906 81.971 13.222)" fill="#153f65" d="M395.5 155.9l-74.9 43.5-.2-86.6z"/><path id="polygon33" class="st1" transform="matrix(.74416 0 0 .79906 81.971 13.222)" fill="#e4f1ee" d="M655.2 112.8l75.1-42.9-.3 86.6z"/><path id="polygon35" class="st1" transform="matrix(.74416 0 0 .79906 81.971 13.222)" fill="#e4f1ee" d="M655.2 206.8l75.1-42.9-.3 86.6z"/><path id="polygon39" class="st0" transform="matrix(.74416 0 0 .79906 81.971 13.222)" fill="#5c7886" d="M810.5 112.9l-74.9 43.5-.2-86.6z"/><path id="polygon41" class="st3" transform="matrix(.74416 0 0 .79906 81.971 13.222)" fill="#add0dc" d="M324.2 392.8l75.1-42.9-.3 86.6z"/><path id="polygon43" class="st6" transform="matrix(.74416 0 0 .79906 81.971 13.222)" fill="#2e97a9" d="M324.2 299.8l75.1-42.9-.3 86.6z"/><path id="polygon45" class="st0" transform="matrix(.74416 0 0 .79906 81.971 13.222)" fill="#5c7886" d="M410.2 346.8l75.1-42.9-.3 86.6z"/><path id="polygon47" class="st1" transform="matrix(.74416 0 0 .79906 81.971 13.222)" fill="#e4f1ee" d="M480.5 392.9l-74.9 43.5-.2-86.6z"/><path id="polygon49" class="st0" transform="matrix(.74416 0 0 .79906 81.971 13.222)" fill="#5c7886" d="M396.5 252.9l-74.9 43.5-.2-86.6z"/><path id="polygon51" class="st1" transform="matrix(.74416 0 0 .79906 81.971 13.222)" fill="#e4f1ee" d="M480.5 299.9l-74.9 43.5-.2-86.6z"/><path id="polygon53" class="st0" transform="matrix(.74416 0 0 .79906 81.971 13.222)" fill="#5c7886" d="M395.5 346.9l-74.9 43.5-.2-86.6z"/><path id="polygon55" class="st6" transform="matrix(.74416 0 0 .79906 81.971 13.222)" fill="#2e97a9" d="M395.5 441.9l-74.9 43.5-.2-86.6z"/></svg>