<?xml version="1.0" encoding="utf-8"?>
<!-- Generator: Adobe Illustrator 19.0.1, SVG Export Plug-In . SVG Version: 6.00 Build 0)  -->
<svg version="1.1" id="Слой_1" xmlns="http://www.w3.org/2000/svg" xmlns:xlink="http://www.w3.org/1999/xlink" x="0px" y="0px"
	 viewBox="0 0 960 560" style="enable-background:new 0 0 960 560;" xml:space="preserve">
<style type="text/css">
	.st0{fill:#EDF4FE;}
	.st1{fill:#03131F;}
	.st2{fill:#70BDF2;}
	.st3{fill:#CCDBEA;}
	.st4{fill:#F4D4EF;}
	.st5{fill:#153F65;}
	.st6{fill:#FFFFFF;}
	.st7{fill:#BCACDB;}
	.st8{fill:#F7F6F6;}
</style>
<polygon class="st0" points="217,168.5 142.2,124.8 217.3,81.9 "/>
<polygon class="st0" points="211,75.5 136.2,31.8 211.3,-11.1 "/>
<polygon class="st1" points="49,71.5 -25.8,27.8 49.3,-15.1 "/>
<polygon class="st0" points="136,215.5 61.2,171.8 136.3,128.9 "/>
<polygon class="st0" points="129,118.5 54.2,74.8 129.3,31.9 "/>
<polygon class="st0" points="297,122.5 222.2,78.8 297.3,35.9 "/>
<polygon class="st0" points="49,165.5 -25.8,121.8 49.3,78.9 "/>
<polygon class="st2" points="54.4,81.8 129.5,124.9 54.6,168.4 "/>
<polygon class="st3" points="54.4,-15.2 129.5,27.9 54.6,71.4 "/>
<polygon class="st3" points="217.4,81.8 292.5,124.9 217.6,168.4 "/>
<polygon class="st3" points="217.4,-11.2 292.5,31.9 217.6,75.4 "/>
<polygon class="st4" points="136.4,31.8 211.5,74.9 136.6,118.4 "/>
<polygon class="st3" points="136.4,128.8 211.5,171.9 136.6,215.4 "/>
<polygon class="st5" points="-29.6,31.8 45.5,74.9 -29.4,118.4 "/>
<polygon class="st0" points="380,75.5 305.2,31.8 380.3,-11.1 "/>
<polygon class="st0" points="380,169.5 305.2,125.8 380.3,82.9 "/>
<polygon class="st6" points="385.4,85.8 460.5,128.9 385.6,172.4 "/>
<polygon class="st7" points="385.4,-11.2 460.5,31.9 385.6,75.4 "/>
<polygon class="st2" points="49,355.5 -25.8,311.8 49.3,268.9 "/>
<polygon class="st5" points="49,262.5 -25.8,218.8 49.3,175.9 "/>
<polygon class="st8" points="135,309.5 60.2,265.8 135.3,222.9 "/>
<polygon class="st5" points="55.4,268.8 130.5,311.9 55.6,355.4 "/>
<polygon class="st1" points="-28.6,128.8 46.5,171.9 -28.4,215.4 "/>
<polygon class="st0" points="55.4,175.8 130.5,218.9 55.6,262.4 "/>
<polygon class="st1" points="-29.6,222.8 45.5,265.9 -29.4,309.4 "/>
<polygon class="st8" points="-29.6,317.8 45.5,360.9 -29.4,404.4 "/>
</svg>
