<?xml version="1.0" encoding="UTF-8" standalone="no"?>
<!-- Generator: Adobe Illustrator 19.0.1, SVG Export Plug-In . SVG Version: 6.00 Build 0)  -->

<svg
   xmlns:dc="http://purl.org/dc/elements/1.1/"
   xmlns:cc="http://creativecommons.org/ns#"
   xmlns:rdf="http://www.w3.org/1999/02/22-rdf-syntax-ns#"
   xmlns:svg="http://www.w3.org/2000/svg"
   xmlns="http://www.w3.org/2000/svg"
   xmlns:sodipodi="http://sodipodi.sourceforge.net/DTD/sodipodi-0.dtd"
   xmlns:inkscape="http://www.inkscape.org/namespaces/inkscape"
   version="1.1"
   id="Слой_1"
   x="0px"
   y="0px"
   viewBox="0 0 960 560"
   style="enable-background:new 0 0 960 560;"
   xml:space="preserve"
   inkscape:version="0.91 r13725"
   sodipodi:docname="bg.svg"><metadata
     id="metadata61"><rdf:RDF><cc:Work
         rdf:about=""><dc:format>image/svg+xml</dc:format><dc:type
           rdf:resource="http://purl.org/dc/dcmitype/StillImage" /></cc:Work></rdf:RDF></metadata><defs
     id="defs59" /><sodipodi:namedview
     pagecolor="#ffffff"
     bordercolor="#666666"
     borderopacity="1"
     objecttolerance="10"
     gridtolerance="10"
     guidetolerance="10"
     inkscape:pageopacity="0"
     inkscape:pageshadow="2"
     inkscape:window-width="1317"
     inkscape:window-height="744"
     id="namedview57"
     showgrid="false"
     inkscape:zoom="0.92513137"
     inkscape:cx="326.95508"
     inkscape:cy="363.41666"
     inkscape:window-x="49"
     inkscape:window-y="24"
     inkscape:window-maximized="1"
     inkscape:current-layer="Слой_1" /><style
     type="text/css"
     id="style3">
	.st0{fill:#EDF4FE;}
	.st1{fill:#03131F;}
	.st2{fill:#70BDF2;}
	.st3{fill:#CCDBEA;}
	.st4{fill:#F4D4EF;}
	.st5{fill:#153F65;}
	.st6{fill:#FFFFFF;}
	.st7{fill:#BCACDB;}
	.st8{fill:#F7F6F6;}
</style><polygon
     class="st0"
     points="217,168.5 142.2,124.8 217.3,81.9 "
     id="polygon5" /><polygon
     class="st0"
     points="211,75.5 136.2,31.8 211.3,-11.1 "
     id="polygon7" /><polygon
     class="st1"
     points="49,71.5 -25.8,27.8 49.3,-15.1 "
     id="polygon9" /><polygon
     class="st0"
     points="136,215.5 61.2,171.8 136.3,128.9 "
     id="polygon11" /><polygon
     class="st0"
     points="129,118.5 54.2,74.8 129.3,31.9 "
     id="polygon13" /><polygon
     class="st0"
     points="297,122.5 222.2,78.8 297.3,35.9 "
     id="polygon15" /><polygon
     class="st0"
     points="49,165.5 -25.8,121.8 49.3,78.9 "
     id="polygon17" /><polygon
     class="st2"
     points="54.4,81.8 129.5,124.9 54.6,168.4 "
     id="polygon19" /><polygon
     class="st3"
     points="54.4,-15.2 129.5,27.9 54.6,71.4 "
     id="polygon21" /><polygon
     class="st3"
     points="217.4,81.8 292.5,124.9 217.6,168.4 "
     id="polygon23" /><polygon
     class="st3"
     points="217.4,-11.2 292.5,31.9 217.6,75.4 "
     id="polygon25" /><polygon
     class="st4"
     points="136.4,31.8 211.5,74.9 136.6,118.4 "
     id="polygon27" /><polygon
     class="st3"
     points="136.4,128.8 211.5,171.9 136.6,215.4 "
     id="polygon29" /><polygon
     class="st5"
     points="-29.6,31.8 45.5,74.9 -29.4,118.4 "
     id="polygon31" /><polygon
     class="st0"
     points="380,75.5 305.2,31.8 380.3,-11.1 "
     id="polygon33" /><polygon
     class="st0"
     points="380,169.5 305.2,125.8 380.3,82.9 "
     id="polygon35" /><polygon
     class="st7"
     points="385.4,-11.2 460.5,31.9 385.6,75.4 "
     id="polygon39"
     style="fill:#ccdbea;fill-opacity:1" /><polygon
     class="st2"
     points="49,355.5 -25.8,311.8 49.3,268.9 "
     id="polygon41" /><polygon
     class="st5"
     points="49,262.5 -25.8,218.8 49.3,175.9 "
     id="polygon43"
     style="fill:#ccdbea;fill-opacity:1" /><polygon
     class="st8"
     points="135,309.5 60.2,265.8 135.3,222.9 "
     id="polygon45" /><polygon
     class="st5"
     points="55.4,268.8 130.5,311.9 55.6,355.4 "
     id="polygon47"
     style="fill:#ccdbea;fill-opacity:1" /><polygon
     class="st1"
     points="-28.6,128.8 46.5,171.9 -28.4,215.4 "
     id="polygon49" /><polygon
     class="st0"
     points="55.4,175.8 130.5,218.9 55.6,262.4 "
     id="polygon51" /><polygon
     class="st1"
     points="-29.6,222.8 45.5,265.9 -29.4,309.4 "
     id="polygon53" /><polygon
     class="st8"
     points="-29.6,317.8 45.5,360.9 -29.4,404.4 "
     id="polygon55" /></svg>