<?xml version="1.0" encoding="utf-8"?>
<!-- Generator: Adobe Illustrator 19.0.1, SVG Export Plug-In . SVG Version: 6.00 Build 0)  -->
<svg version="1.1" id="Слой_1" xmlns="http://www.w3.org/2000/svg" xmlns:xlink="http://www.w3.org/1999/xlink" x="0px" y="0px"
	 viewBox="-250 355 110 84" style="enable-background:new -250 355 110 84;" xml:space="preserve">
<style type="text/css">
	.st0{fill:#03131F;}
</style>
<g id="_x23_736bbeff">
	<path class="st0" d="M-211.6,363.4c2.5-3.1,6.8-3.8,10.6-3.8c16,0,32,0,48.1,0c6.7-0.6,12.7,5,13,11.6v31.9
		c-0.7,5-4.3,9.9-9.5,10.6c0,0.2,0,0.7-0.1,0.9c-2.5,0.1-5-0.4-7.5-0.4c-3.2,2.1-5.2,5.7-7.9,8.4c-2.4-2.9-4.9-5.7-7.6-8.4
		c0-1.7,0-3.4,0-5.1c0.5,0,1.6,0.1,2.1,0.1c1.6,2.3,3.2,4.6,5.3,6.6c2.6-1.4,3.6-4.4,5.6-6.4c3.7-0.8,7.9,0.5,11.3-1.5
		c4.2-2.8,3.3-8.7,3.5-13.1c-0.9-8.3,0.8-16.8-0.6-25c-0.5-3.5-4.2-5.6-7.6-5.4c-16.9,0.1-33.8-0.1-50.6,0.1c-4.1,0.2-6,4.2-7.1,7.6
		c-1,0-3.1,0-4.1-0.1C-214.8,369-214,365.7-211.6,363.4z"/>
	<path class="st0" d="M-250,385.6c0.6-6,5.8-11.3,12-11c16.7-0.1,33.4,0,50.1,0c3.8-0.2,7.8,1.2,10.1,4.4c4,4.8,2.2,11.5,2.9,17.2
		c-0.6,8,0.6,16-0.7,23.9c-0.9,4.4-4.7,8.5-9.4,8.6c-10.7,0.5-21.4-0.3-32,0.4c-3.5,2.3-6.1,5.7-9.1,8.6c-3.2-2.9-6.1-6-9.4-8.9
		c-2.8-0.1-5.8,0.3-8.3-1.1c-3.6-1.9-5.8-5.9-6.2-9.9V385.6 M-238.6,379.6c-6.1,0.5-7.2,7.5-6.3,12.4c-1,8,0.4,16-0.1,24
		c0.1,1.4,0.4,2.9,0.6,4.3c1,1.1,2.1,2.2,3.3,3c2.7,0.6,5.4,1,8.2,1.2c2,2.6,4.5,4.9,6.9,7.2c2.3-2.5,5-4.5,7.1-7.2
		c10.6-0.6,21.3,0.1,32-0.4c1.1-0.3,2.1-0.5,3.3-0.8c1.2-0.9,2.2-2,3.2-3.2c0.8-11,0.2-22.1,0.3-33.2c0.3-2.5-0.9-4.6-2.6-6.3
		c-0.5-0.3-1.6-0.8-2.1-1.1C-202.8,379.3-220.7,379.5-238.6,379.6z"/>
</g>
</svg>
