<svg id="Слой_1" xmlns="http://www.w3.org/2000/svg" viewBox="-84 329.4 89.7 63.6"><style>.st0{fill:#003d54}</style><g id="_x23_736bbeff"><path id="path6" class="st0" d="M-52.7 332.5c2-2.5 5.5-3.1 8.6-3.1h39.2c5.5-.5 10.3 4.1 10.6 9.4v26c-.6 4.1-3.5 8.1-7.7 8.6 0 .2 0 .6-.1.7-2 .1-4.1-.3-6.1-.3-2.6 1.7-4.2 4.6-6.4 6.8-2-2.4-4-4.6-6.2-6.8v-4.2c.4 0 1.3.1 1.7.1 1.3 1.9 2.6 3.7 4.3 5.4 2.1-1.1 2.9-3.6 4.6-5.2 3-.6 6.4.4 9.2-1.2 3.4-2.3 2.7-7.1 2.9-10.7-.7-6.8.7-13.7-.5-20.4-.4-2.9-3.4-4.6-6.2-4.4-13.8.1-27.5-.1-41.2.1-3.3.2-4.9 3.4-5.8 6.2-.8 0-2.5 0-3.3-.1-.2-2.4.4-5 2.4-6.9z"/><path id="path8" class="st0" d="M-84 350.6c.5-4.9 4.7-9.2 9.8-9 13.6-.1 27.2 0 40.8 0 3.1-.2 6.4 1 8.2 3.6 3.3 3.9 1.8 9.4 2.4 14-.5 6.5.5 13-.6 19.5-.7 3.6-3.8 6.9-7.7 7-8.7.4-17.4-.2-26.1.3-2.9 1.9-5 4.6-7.4 7-2.6-2.4-5-4.9-7.7-7.2-2.3-.1-4.7.2-6.8-.9-2.9-1.5-4.7-4.8-5.1-8.1l.2-26.2m9.3-4.9c-5 .4-5.9 6.1-5.1 10.1-.8 6.5.3 13-.1 19.5.1 1.1.3 2.4.5 3.5.8.9 1.7 1.8 2.7 2.4 2.2.5 4.4.8 6.7 1 1.6 2.1 3.7 4 5.6 5.9 1.9-2 4.1-3.7 5.8-5.9 8.6-.5 17.3.1 26.1-.3.9-.2 1.7-.4 2.7-.6 1-.7 1.8-1.6 2.6-2.6.6-9 .2-18 .2-27 .2-2-.7-3.7-2.1-5.1-.4-.2-1.3-.6-1.7-.9-14.8-.3-29.3-.1-43.9 0z"/></g></svg>