<svg xmlns="http://www.w3.org/2000/svg" id="Слой_1" viewBox="-250 355 89.666312 63.64122" width="89.666" height="63.641"><style id="style3">.st0{fill:#03131f}</style><g id="_x23_736bbeff" fill="#03131f"><path class="st0" d="M-218.727 358.13c2.036-2.524 5.538-3.094 8.633-3.094h39.173c5.456-.49 10.342 4.072 10.586 9.447v25.98c-.57 4.072-3.502 8.062-7.737 8.632 0 .163 0 .57-.082.733-2.036.082-4.072-.325-6.108-.325-2.606 1.71-4.235 4.642-6.434 6.84-1.954-2.36-3.99-4.64-6.19-6.84v-4.154c.408 0 1.304.08 1.71.08 1.304 1.874 2.607 3.747 4.317 5.376 2.118-1.14 2.932-3.584 4.56-5.213 3.014-.65 6.435.408 9.204-1.22 3.42-2.28 2.687-7.086 2.85-10.67-.733-6.76.652-13.682-.488-20.36-.41-2.85-3.422-4.56-6.19-4.398-13.764.082-27.528-.08-41.21.082-3.34.162-4.886 3.42-5.782 6.19-.815 0-2.525 0-3.34-.082-.08-2.444.57-5.13 2.525-7.004z" id="path6"/><path class="st0" d="M-250 376.21c.49-4.886 4.724-9.202 9.773-8.958 13.6-.08 27.2 0 40.802 0 3.094-.163 6.352.977 8.225 3.583 3.258 3.91 1.792 9.366 2.362 14.008-.49 6.516.49 13.03-.57 19.465-.733 3.583-3.828 6.922-7.655 7.004-8.715.407-17.43-.245-26.062.325-2.85 1.873-4.967 4.642-7.41 7.004-2.607-2.36-4.97-4.885-7.656-7.247-2.28-.08-4.725.244-6.76-.896-2.933-1.547-4.724-4.805-5.05-8.062V376.21m9.284-4.886c-4.968.407-5.863 6.108-5.13 10.1-.815 6.514.325 13.03-.082 19.545.08 1.14.326 2.36.49 3.5.813.896 1.71 1.792 2.686 2.444 2.2.488 4.398.814 6.678.977 1.63 2.118 3.665 3.992 5.62 5.865 1.873-2.036 4.072-3.665 5.782-5.864 8.633-.488 17.347.082 26.06-.325.897-.244 1.71-.407 2.69-.65.976-.734 1.79-1.63 2.605-2.607.65-8.96.163-18 .244-27.04.244-2.035-.733-3.745-2.117-5.13-.408-.244-1.303-.65-1.71-.895-14.66-.163-29.238 0-43.816.08z" id="path8"/></g></svg>