<?xml version="1.0" encoding="UTF-8" ?>
<!DOCTYPE svg PUBLIC "-//W3C//DTD SVG 1.1//EN" "http://www.w3.org/Graphics/SVG/1.1/DTD/svg11.dtd">
<svg width="110pt" height="84pt" viewBox="0 0 110 84" version="1.1" xmlns="http://www.w3.org/2000/svg">
<g id="#736bbeff">
<path fill="#736bbe" opacity="1.00" d=" M 38.37 8.42 C 40.91 5.28 45.19 4.62 48.99 4.62 C 65.01 4.66 81.03 4.62 97.04 4.64 C 103.71 4.07 109.76 9.63 110.00 16.26 L 110.00 48.21 C 109.33 53.19 105.75 58.08 100.53 58.78 C 100.51 59.00 100.48 59.46 100.47 59.69 C 97.96 59.76 95.47 59.32 92.96 59.33 C 89.75 61.48 87.76 65.04 85.06 67.77 C 82.65 64.86 80.11 62.06 77.49 59.33 C 77.48 57.63 77.46 55.94 77.46 54.24 C 78.00 54.27 79.07 54.35 79.60 54.38 C 81.24 56.66 82.84 58.99 84.86 60.95 C 87.42 59.58 88.47 56.57 90.46 54.57 C 94.18 53.79 98.31 55.03 101.77 53.05 C 105.96 50.22 105.09 44.38 105.24 39.99 C 104.30 31.67 106.07 23.23 104.59 14.96 C 104.07 11.50 100.35 9.35 97.03 9.61 C 80.16 9.68 63.27 9.49 46.40 9.70 C 42.32 9.88 40.37 13.93 39.34 17.33 C 38.31 17.31 36.27 17.28 35.25 17.26 C 35.21 14.04 35.96 10.71 38.37 8.42 Z" />
<path fill="#736bbe" opacity="1.00" d=" M 0.00 30.56 C 0.62 24.61 5.81 19.31 11.97 19.54 C 28.66 19.47 45.36 19.54 62.06 19.50 C 65.86 19.33 69.85 20.73 72.18 23.86 C 76.14 28.67 74.39 35.37 75.08 41.08 C 74.52 49.06 75.63 57.09 74.42 65.03 C 73.47 69.39 69.69 73.49 65.03 73.63 C 54.37 74.11 43.64 73.34 33.00 73.99 C 29.48 76.26 26.95 79.73 23.93 82.59 C 20.74 79.71 17.82 76.55 14.57 73.74 C 11.79 73.64 8.76 74.07 6.23 72.62 C 2.60 70.68 0.47 66.68 0.00 62.69 L 0.00 30.56 M 11.39 24.60 C 5.28 25.13 4.16 32.08 5.10 36.99 C 4.07 44.99 5.54 53.01 4.98 61.00 C 5.11 62.44 5.35 63.87 5.58 65.30 C 6.56 66.42 7.64 67.45 8.83 68.34 C 11.53 68.94 14.26 69.30 17.01 69.51 C 19.04 72.15 21.53 74.37 23.92 76.67 C 26.17 74.14 28.94 72.15 31.02 69.47 C 41.66 68.85 52.35 69.54 63.00 69.11 C 64.07 68.81 65.15 68.57 66.25 68.35 C 67.44 67.43 68.49 66.35 69.43 65.17 C 70.19 54.15 69.60 43.06 69.76 32.01 C 70.09 29.51 68.83 27.45 67.14 25.75 C 66.62 25.48 65.59 24.95 65.07 24.68 C 47.19 24.34 29.27 24.50 11.39 24.60 Z" />
</g>
</svg>
