<svg xmlns="http://www.w3.org/2000/svg" id="Слой_1" viewBox="-233 324 87.022423 87.08625" width="87.022" height="87.086"><style id="style3">.st0{fill:#03131f}</style><g id="_x23_736bbeff" fill="#03131f"><path class="st0" d="M-198.392 324.9c9.24-1.923 19.07-.74 27.568 3.325 11.087 5.173 19.66 15.3 23.06 26.977 3.178 10.57 2.07 22.246-2.956 32.076-5.47 10.79-15.595 19.142-27.273 22.247-9.977 2.808-20.842 1.773-30.155-2.66-10.938-5.175-19.512-15.08-22.985-26.682-3.252-10.643-2.218-22.47 2.808-32.298 5.84-11.678 17.147-20.4 29.933-22.986m3.77 3.03c-8.5 1.108-16.63 5.025-22.764 11.085-7.613 7.244-12.047 17.665-12.047 28.16-.148 10.57 4.212 21.138 11.75 28.53 7.614 7.685 18.478 12.12 29.27 11.676 10.42-.22 20.694-4.877 27.79-12.49 8.868-9.09 12.86-22.69 10.272-35.106-2.144-11.382-9.61-21.508-19.66-27.2-7.465-4.064-16.187-5.69-24.612-4.655z" id="path6"/><path class="st0" d="M-189.523 340.79h3.622v30.376h-23.726v-3.622h20.103V340.79z" id="path8"/></g></svg>