<svg xmlns="http://www.w3.org/2000/svg" id="Слой_1" viewBox="-85 317.9 90.273215 90.127334" width="90.273" height="90.128"><style id="style3">.st0{fill:#003d54}</style><g id="_x23_736bbeff" transform="translate(3.097 -11.278) scale(1.03542)"><path id="path6" class="st0" d="M-50.4 318.8c9.2-1.9 19.1-.7 27.6 3.3 11.1 5.2 19.7 15.3 23.1 27 3.2 10.6 2.1 22.2-3 32.1-5.5 10.8-15.6 19.1-27.3 22.2-10 2.8-20.8 1.8-30.2-2.7-10.9-5.2-19.5-15.1-23-26.7-3.3-10.6-2.2-22.5 2.8-32.3 5.9-11.6 17.2-20.3 30-22.9m3.8 3c-8.5 1.1-16.6 5-22.8 11.1-7.6 7.2-12 17.7-12 28.2-.1 10.6 4.2 21.1 11.8 28.5 7.6 7.7 18.5 12.1 29.3 11.7 10.4-.2 20.7-4.9 27.8-12.5 8.9-9.1 12.9-22.7 10.3-35.1-2.1-11.4-9.6-21.5-19.7-27.2-7.6-4.1-16.3-5.7-24.7-4.7z" fill="#003d54"/><path id="path8" class="st0" d="M-41.5 334.7h3.6v30.4h-23.7v-3.6h20.1v-26.8z" fill="#003d54"/></g></svg>