<?xml version="1.0" encoding="UTF-8" ?>
<!DOCTYPE svg PUBLIC "-//W3C//DTD SVG 1.1//EN" "http://www.w3.org/Graphics/SVG/1.1/DTD/svg11.dtd">
<svg width="145pt" height="145pt" viewBox="0 0 145 145" version="1.1" xmlns="http://www.w3.org/2000/svg">
<g id="#736bbeff">
<path fill="#736bbe" opacity="1.00" d=" M 60.51 14.81 C 72.98 12.20 86.28 13.78 97.77 19.30 C 112.72 26.31 124.40 39.95 128.99 55.83 C 133.28 70.09 131.78 85.95 124.99 99.20 C 117.61 113.80 103.89 125.08 88.06 129.29 C 74.60 133.08 59.84 131.69 47.23 125.70 C 32.43 118.72 20.80 105.29 16.14 89.59 C 11.71 75.24 13.11 59.23 19.96 45.87 C 27.85 30.09 43.21 18.31 60.51 14.81 M 65.62 18.90 C 54.11 20.41 43.09 25.67 34.85 33.87 C 24.59 43.70 18.52 57.80 18.51 72.02 C 18.27 86.33 24.16 100.64 34.39 110.65 C 44.65 121.09 59.38 127.00 74.01 126.48 C 88.12 126.17 101.99 119.93 111.61 109.61 C 123.58 97.29 128.98 78.95 125.48 62.12 C 122.61 46.73 112.47 32.99 98.84 25.37 C 88.84 19.71 77.01 17.46 65.62 18.90 Z" />
<path fill="#736bbe" opacity="1.00" d=" M 72.48 36.31 C 74.13 36.30 75.78 36.30 77.43 36.30 C 77.40 50.00 77.43 63.71 77.42 77.41 C 66.72 77.43 56.03 77.41 45.34 77.42 C 45.34 75.78 45.34 74.14 45.33 72.50 C 54.39 72.50 63.44 72.51 72.50 72.50 C 72.50 60.44 72.53 48.37 72.48 36.31 Z" />
</g>
</svg>
