<?xml version="1.0" encoding="UTF-8" standalone="no"?>
<svg
   xmlns:dc="http://purl.org/dc/elements/1.1/"
   xmlns:cc="http://creativecommons.org/ns#"
   xmlns:rdf="http://www.w3.org/1999/02/22-rdf-syntax-ns#"
   xmlns:svg="http://www.w3.org/2000/svg"
   xmlns="http://www.w3.org/2000/svg"
   xmlns:sodipodi="http://sodipodi.sourceforge.net/DTD/sodipodi-0.dtd"
   xmlns:inkscape="http://www.inkscape.org/namespaces/inkscape"
   id="Слой_1"
   viewBox="-233 324 87.022423 87.08625"
   width="87.022"
   height="87.086"
   version="1.1"
   inkscape:version="0.91 r13725"
   sodipodi:docname="clock.svg">
  <metadata
     id="metadata11">
    <rdf:RDF>
      <cc:Work
         rdf:about="">
        <dc:format>image/svg+xml</dc:format>
        <dc:type
           rdf:resource="http://purl.org/dc/dcmitype/StillImage" />
      </cc:Work>
    </rdf:RDF>
  </metadata>
  <defs
     id="defs9" />
  <sodipodi:namedview
     pagecolor="#ffffff"
     bordercolor="#666666"
     borderopacity="1"
     objecttolerance="10"
     gridtolerance="10"
     guidetolerance="10"
     inkscape:pageopacity="0"
     inkscape:pageshadow="2"
     inkscape:window-width="732"
     inkscape:window-height="480"
     id="namedview7"
     showgrid="false"
     inkscape:zoom="2.7099649"
     inkscape:cx="43.511002"
     inkscape:cy="43.542999"
     inkscape:window-x="59"
     inkscape:window-y="34"
     inkscape:window-maximized="0"
     inkscape:current-layer="Слой_1" />
  <style
     id="style3">.st0{fill:#03131f}</style>
  <g
     id="_x23_736bbeff"
     fill="#03131f"
     style="fill:#003d54;fill-opacity:1">
    <path
       class="st0"
       d="M-198.392 324.9c9.24-1.923 19.07-.74 27.568 3.325 11.087 5.173 19.66 15.3 23.06 26.977 3.178 10.57 2.07 22.246-2.956 32.076-5.47 10.79-15.595 19.142-27.273 22.247-9.977 2.808-20.842 1.773-30.155-2.66-10.938-5.175-19.512-15.08-22.985-26.682-3.252-10.643-2.218-22.47 2.808-32.298 5.84-11.678 17.147-20.4 29.933-22.986m3.77 3.03c-8.5 1.108-16.63 5.025-22.764 11.085-7.613 7.244-12.047 17.665-12.047 28.16-.148 10.57 4.212 21.138 11.75 28.53 7.614 7.685 18.478 12.12 29.27 11.676 10.42-.22 20.694-4.877 27.79-12.49 8.868-9.09 12.86-22.69 10.272-35.106-2.144-11.382-9.61-21.508-19.66-27.2-7.465-4.064-16.187-5.69-24.612-4.655z"
       id="path6"
       style="fill:#003d54;fill-opacity:1" />
    <path
       class="st0"
       d="M-189.523 340.79h3.622v30.376h-23.726v-3.622h20.103V340.79z"
       id="path8"
       style="fill:#003d54;fill-opacity:1" />
  </g>
</svg>
