<?xml version="1.0" encoding="utf-8"?>
<!-- Generator: Adobe Illustrator 19.0.1, SVG Export Plug-In . SVG Version: 6.00 Build 0)  -->
<svg version="1.1" id="Слой_1" xmlns="http://www.w3.org/2000/svg" xmlns:xlink="http://www.w3.org/1999/xlink" x="0px" y="0px"
	 viewBox="-233 324 145 145" style="enable-background:new -233 324 145 145;" xml:space="preserve">
<style type="text/css">
	.st0{fill:#03131F;}
</style>
<g id="_x23_736bbeff">
	<path class="st0" d="M-172.5,338.8c12.5-2.6,25.8-1,37.3,4.5c15,7,26.6,20.7,31.2,36.5c4.3,14.3,2.8,30.1-4,43.4
		c-7.4,14.6-21.1,25.9-36.9,30.1c-13.5,3.8-28.2,2.4-40.8-3.6c-14.8-7-26.4-20.4-31.1-36.1c-4.4-14.4-3-30.4,3.8-43.7
		C-205.1,354.1-189.8,342.3-172.5,338.8 M-167.4,342.9c-11.5,1.5-22.5,6.8-30.8,15c-10.3,9.8-16.3,23.9-16.3,38.1
		c-0.2,14.3,5.7,28.6,15.9,38.6c10.3,10.4,25,16.4,39.6,15.8c14.1-0.3,28-6.6,37.6-16.9c12-12.3,17.4-30.7,13.9-47.5
		c-2.9-15.4-13-29.1-26.6-36.8C-144.2,343.7-156,341.5-167.4,342.9z"/>
	<path class="st0" d="M-160.5,360.3c1.6,0,3.3,0,4.9,0c0,13.7,0,27.4,0,41.1c-10.7,0-21.4,0-32.1,0c0-1.6,0-3.3,0-4.9
		c9.1,0,18.1,0,27.2,0C-160.5,384.4-160.5,372.4-160.5,360.3z"/>
</g>
</svg>
