<?xml version="1.0" encoding="utf-8"?>
<!-- Generator: Adobe Illustrator 19.0.1, SVG Export Plug-In . SVG Version: 6.00 Build 0)  -->
<svg version="1.1" id="Слой_1" xmlns="http://www.w3.org/2000/svg" xmlns:xlink="http://www.w3.org/1999/xlink" x="0px" y="0px"
	 viewBox="-205 316 200 162" style="enable-background:new -205 316 200 162;" xml:space="preserve">
<style type="text/css">
	.st0{fill:#03131F;}
</style>
<g id="_x23_736bbeff">
	<path class="st0" d="M-173,323.8c0.6-3,3.9-2.3,6.1-2.4c7.8,0.1,14.5,6.4,16.3,13.8c0.9,5.2-0.3,10.5-1,15.7c-0.2,2-2,3.1-3.4,4.2
		c-1.6,3.3-3.8,6.3-6.4,8.9c0.4,1,0.8,2.1,1.3,3.1c7.1,3.1,15.1,4.2,21.8,8.3c5.1,3.9,2.9,11.1,2.9,16.6c-8.6,3.7-17.6,7-27.1,7.8
		c-13.1,1.5-26.1-2.5-38-7.7c-1.3-5.5-2.6-13,2.8-16.7c6.7-4.1,14.7-5.1,21.9-8.2c0.4-1.1,0.8-2.1,1.2-3.2c-2.4-2.7-4.6-5.6-6.2-8.9
		c-1.8-1.1-3.6-2.6-3.6-5c-0.1-4-1.6-8-1.2-12c0.4-6,4.1-11.5,9.3-14.6C-175.2,323.5-174.1,323.6-173,323.8z"/>
	<path class="st0" d="M-43.6,321.6c10.5-2.6,21.5,6.7,20.9,17.4c-0.5,4.2-0.6,8.6-2,12.6c-3.7,2.8-5.1,7.5-8.7,10.5
		c0,0.7,0.1,2.2,0.1,2.9c7.1,3.9,15.7,4.4,22.5,8.8c4.8,3.7,2.8,10.3,3.1,15.4c-13.9,7-30.1,10.5-45.5,6.9
		c-6.7-1.5-13.2-3.7-19.4-6.7c-0.8-5.2-2.4-11.9,2.6-15.6c6.8-4.4,15.3-5.1,22.6-8.7c0-1.2,0.1-2.4,0.1-3.5c-2.4-2.2-4-4.9-5.5-7.8
		c-1.5-1.1-3.4-2.3-3.5-4.3c-0.2-4.2-1.7-8.3-1.2-12.6c0.6-5.7,4.1-10.9,9.2-13.6C-46.4,324-44.7,323.4-43.6,321.6z"/>
	<path class="st0" d="M-126.5,342.4c14.5-0.5,29.1-0.1,43.6-0.2c2.2-0.4,4.2,1.5,4.1,3.7c0.1,9.7,0,19.4,0,29.2
		c0.2,2.2-2,3.9-4.1,3.6c-14,0.1-28.1,0.1-42.1,0c-1.7,0.1-3.8-0.5-4.1-2.5c-0.3-9.4,0-18.9-0.1-28.3
		C-129.2,345.9-128.8,343.1-126.5,342.4 M-126.7,344.3c-0.6,9-0.5,18.1-0.4,27.1c15.5,0.1,30.9,0.2,46.4,0c0.1-9,0-18,0-27
		C-96.1,344.1-111.4,344.3-126.7,344.3 M-93.5,375c2.6,1.1,5.6,0.8,8.4,0.8c0-0.4,0-1.2,0-1.6C-87.9,374.2-90.9,373.8-93.5,375z"/>
	<path class="st0" d="M-108.6,366.8c1.8-5.6,3-11.4,5.5-16.8c0.2,0.4,0.5,1.2,0.7,1.6c-0.8,4-2.3,7.8-3.4,11.7
		C-106.4,364.6-106.3,367-108.6,366.8z"/>
	<path class="st0" d="M-120.8,357.8c3.3-1.2,6.5-2.8,9.9-3.7c0.5,0.2,1.4,0.6,1.9,0.7c-3.1,1.5-6.3,2.6-9.4,3.9
		c3.2,1.3,6.9,1.9,9.5,4.5c-4.2,0.3-7.9-2.4-11.8-3.6C-120.7,359.2-120.8,358.3-120.8,357.8z"/>
	<path class="st0" d="M-101,355.3c0.2-0.5,0.5-1.3,0.6-1.8c3.4,1.6,7.1,2.7,10.5,4.4c0.1,0.3,0.4,1,0.6,1.3c-3.6,2-7.6,3.2-11.5,4.7
		c0.1-0.5,0.2-1.5,0.2-2c2.7-1,5.4-1.9,8-3C-95.3,357.4-98.2,356.4-101,355.3z"/>
	<path class="st0" d="M-107.6,391.4c6.3-1,13.2,0.7,17.4,5.7c3.8,4.3,5.4,10.2,4.7,15.8c-0.7,4-0.7,8.3-2.3,12.1
		c-0.8,0.4-1.6,0.8-2.4,1.2c-1.4,3.4-3.6,6.3-5.9,9.1c-0.1,0.7-0.4,2-0.5,2.7c7.4,4.9,17.1,5,24.2,10.4c4,4.1,2.6,10.3,2.6,15.5
		c-0.2,0.3-0.5,0.9-0.7,1.2c-13.2,6.8-28.5,10.3-43.2,7.8c-8.1-1.5-16-4.2-23.4-8c-0.3-5.7-2.4-13.2,3.2-17.1
		c6.5-4.3,14.5-5.2,21.4-8.4c1.8-0.8,2.1-2.6,2-4.4c-2.5-2.3-4.4-5.1-5.6-8.3c-1.9-1.3-4-2.8-4.1-5.4c-0.2-5.4-2.3-10.9-0.7-16.2
		c1.1-5,4.7-9.1,8.8-11.9c1.1,0.1,2.3,0.3,3.4,0.4C-108.4,393.2-107.8,392-107.6,391.4z"/>
</g>
</svg>
