<svg xmlns="http://www.w3.org/2000/svg" id="Слой_1" viewBox="-67 312.4 119.95462 92.699907" width="119.955" height="92.7"><style id="style3">.st0{fill:#003d54}</style><g id="g3366" transform="translate(-2.376 9.212) scale(.96554)"><path id="path6" class="st0" d="M-48.7 315.8c.4-1.9 2.5-1.5 3.9-1.5 5 .1 9.3 4.1 10.4 8.8.6 3.3-.2 6.7-.6 10-.1 1.3-1.3 2-2.2 2.7-1 2.1-2.4 4-4.1 5.7.3.6.5 1.3.8 2 4.5 2 9.7 2.7 14 5.3 3.3 2.5 1.9 7.1 1.9 10.6-5.5 2.4-11.3 4.5-17.3 5-8.4 1-16.7-1.6-24.3-4.9-.8-3.5-1.7-8.3 1.8-10.7 4.3-2.6 9.4-3.3 14-5.2.3-.7.5-1.3.8-2-1.5-1.7-2.9-3.6-4-5.7-1.1-.7-2.3-1.7-2.3-3.2-.1-2.6-1-5.1-.8-7.7.3-3.8 2.6-7.4 5.9-9.3.7-.1 1.4-.1 2.1.1z" fill="#003d54"/><path id="path8" class="st0" d="M34.2 314.3c6.7-1.7 13.8 4.3 13.4 11.1-.3 2.7-.4 5.5-1.3 8.1-2.4 1.8-3.3 4.8-5.6 6.7 0 .4.1 1.4.1 1.9 4.5 2.5 10.1 2.8 14.4 5.6 3.1 2.4 1.8 6.6 2 9.9-8.9 4.5-19.3 6.7-29.1 4.4-4.3-1-8.4-2.4-12.4-4.3-.5-3.3-1.5-7.6 1.7-10 4.4-2.8 9.8-3.3 14.5-5.6 0-.8.1-1.5.1-2.2-1.5-1.4-2.6-3.1-3.5-5-1-.7-2.2-1.5-2.2-2.8-.1-2.7-1.1-5.3-.8-8.1.4-3.6 2.6-7 5.9-8.7 1 .6 2 .2 2.8-1z" fill="#003d54"/><path id="path10" class="st0" d="M-18.9 327.7c9.3-.3 18.6-.1 27.9-.1 1.4-.3 2.7 1 2.6 2.4.1 6.2 0 12.4 0 18.7.1 1.4-1.3 2.5-2.6 2.3-9 .1-18 .1-26.9 0-1.1.1-2.4-.3-2.6-1.6-.2-6 0-12.1-.1-18.1 0-1.4.2-3.2 1.7-3.6m-.1 1.2c-.4 5.8-.3 11.6-.3 17.3 9.9.1 19.8.1 29.7 0 .1-5.8 0-11.5 0-17.3-9.9-.2-19.6 0-29.4 0m21.2 19.6c1.7.7 3.6.5 5.4.5v-1c-1.8 0-3.7-.2-5.4.5z" fill="#003d54"/><path id="path12" class="st0" d="M-7.4 343.3c1.2-3.6 1.9-7.3 3.5-10.8.1.3.3.8.4 1-.5 2.6-1.5 5-2.2 7.5-.3.9-.3 2.4-1.7 2.3z" fill="#003d54"/><path id="path14" class="st0" d="M-15.3 337.5c2.1-.8 4.2-1.8 6.3-2.4.3.1.9.4 1.2.4-2 1-4 1.7-6 2.5 2 .8 4.4 1.2 6.1 2.9-2.7.2-5.1-1.5-7.6-2.3.1-.2 0-.8 0-1.1z" fill="#003d54"/><path id="path16" class="st0" d="M-2.6 335.9c.1-.3.3-.8.4-1.1 2.2 1 4.5 1.7 6.7 2.8l.4.8c-2.3 1.3-4.9 2-7.4 3 .1-.3.1-1 .1-1.3 1.7-.6 3.5-1.2 5.1-1.9-1.6-.9-3.5-1.6-5.3-2.3z" fill="#003d54"/><path id="path6-3" class="st0" d="M-7.1 361.2c.4-1.9 2.5-1.5 3.9-1.5 5 .1 9.3 4.1 10.4 8.8.6 3.3-.2 6.7-.6 10-.1 1.3-1.3 2-2.2 2.7-1 2.1-2.4 4-4.1 5.7.3.6.5 1.3.8 2 4.5 2 9.7 2.7 14 5.3 3.3 2.5 1.9 7.1 1.9 10.6-5.5 2.4-11.3 4.5-17.3 5-8.4 1-16.7-1.6-24.3-4.9-.8-3.5-1.7-8.3 1.8-10.7 4.3-2.6 9.4-3.3 14-5.2.3-.7.5-1.3.8-2-1.5-1.7-2.9-3.6-4-5.7-1.1-.7-2.3-1.7-2.3-3.2-.1-2.6-1-5.1-.8-7.7.3-3.8 2.6-7.4 5.9-9.3.7-.1 1.4-.1 2.1.1z" fill="#003d54"/></g></svg>