<?xml version="1.0" encoding="UTF-8" ?>
<!DOCTYPE svg PUBLIC "-//W3C//DTD SVG 1.1//EN" "http://www.w3.org/Graphics/SVG/1.1/DTD/svg11.dtd">
<svg width="200pt" height="162pt" viewBox="0 0 200 162" version="1.1" xmlns="http://www.w3.org/2000/svg">
<g id="#736bbeff">
<path fill="#736bbe" opacity="1.00" d=" M 31.97 7.76 C 32.53 4.76 35.87 5.43 38.11 5.35 C 45.87 5.50 52.65 11.77 54.40 19.17 C 55.31 24.41 54.12 29.68 53.37 34.86 C 53.15 36.83 51.36 37.95 49.93 39.06 C 48.34 42.37 46.12 45.32 43.57 47.96 C 44.00 48.99 44.42 50.02 44.82 51.06 C 51.93 54.21 59.94 55.26 66.60 59.39 C 71.70 63.28 69.46 70.49 69.55 75.99 C 60.91 79.69 51.93 82.99 42.49 83.76 C 29.38 85.23 16.40 81.27 4.54 76.02 C 3.23 70.50 1.92 63.06 7.32 59.28 C 14.05 55.22 22.04 54.13 29.20 51.04 C 29.59 49.98 30.01 48.92 30.44 47.87 C 28.01 45.18 25.86 42.24 24.27 38.97 C 22.48 37.86 20.70 36.32 20.69 34.02 C 20.55 29.98 19.04 26.06 19.45 21.99 C 19.90 15.95 23.57 10.45 28.76 7.42 C 29.83 7.53 30.90 7.65 31.97 7.76 Z" />
<path fill="#736bbe" opacity="1.00" d=" M 161.43 5.64 C 171.89 3.08 182.91 12.34 182.35 23.03 C 181.87 27.21 181.75 31.61 180.31 35.58 C 176.58 38.41 175.17 43.11 171.64 46.13 C 171.66 46.86 171.69 48.31 171.70 49.03 C 178.82 52.90 187.35 53.41 194.17 57.85 C 198.99 61.54 196.97 68.11 197.31 73.28 C 183.44 80.31 167.18 83.76 151.82 80.20 C 145.12 78.75 138.58 76.54 132.43 73.50 C 131.59 68.31 130.06 61.61 135.00 57.92 C 141.83 53.47 150.34 52.80 157.59 49.22 C 157.62 48.04 157.67 46.86 157.71 45.69 C 155.33 43.53 153.68 40.76 152.19 37.94 C 150.67 36.86 148.81 35.69 148.69 33.62 C 148.46 29.41 147.02 25.29 147.48 21.04 C 148.03 15.35 151.58 10.12 156.64 7.45 C 158.65 7.98 160.32 7.42 161.43 5.64 Z" />
<path fill="#736bbe" opacity="1.00" d=" M 78.46 26.38 C 92.98 25.92 107.54 26.30 122.07 26.20 C 124.30 25.80 126.27 27.70 126.14 29.92 C 126.20 39.65 126.18 49.37 126.15 59.10 C 126.38 61.33 124.17 62.99 122.08 62.72 C 108.05 62.79 94.02 62.81 80.00 62.77 C 78.26 62.89 76.21 62.25 75.94 60.27 C 75.69 50.83 75.94 41.38 75.86 31.93 C 75.80 29.88 76.25 27.12 78.46 26.38 M 78.26 28.32 C 77.71 37.34 77.80 46.38 77.82 55.41 C 93.29 55.55 108.76 55.58 124.22 55.38 C 124.31 46.37 124.26 37.35 124.26 28.34 C 108.93 28.07 93.59 28.26 78.26 28.32 M 111.48 59.00 C 114.13 60.12 117.05 59.78 119.85 59.78 C 119.85 59.38 119.85 58.58 119.85 58.18 C 117.05 58.19 114.12 57.82 111.48 59.00 Z" />
<path fill="#736bbe" opacity="1.00" d=" M 96.44 50.77 C 98.23 45.15 99.49 39.33 101.94 33.94 C 102.11 34.35 102.45 35.16 102.61 35.57 C 101.76 39.53 100.27 43.33 99.22 47.24 C 98.57 48.60 98.69 51.05 96.44 50.77 Z" />
<path fill="#736bbe" opacity="1.00" d=" M 84.20 41.82 C 87.51 40.62 90.69 39.00 94.12 38.17 C 94.60 38.35 95.56 38.72 96.04 38.90 C 92.99 40.37 89.78 41.49 86.67 42.84 C 89.90 44.14 93.58 44.78 96.16 47.31 C 91.94 47.59 88.27 44.89 84.34 43.71 C 84.30 43.23 84.23 42.29 84.20 41.82 Z" />
<path fill="#736bbe" opacity="1.00" d=" M 103.99 39.29 C 104.14 38.84 104.44 37.95 104.59 37.51 C 108.00 39.16 111.66 40.20 115.06 41.87 C 115.20 42.21 115.48 42.88 115.63 43.21 C 112.00 45.20 108.02 46.43 104.17 47.91 C 104.23 47.41 104.34 46.41 104.40 45.91 C 107.09 44.95 109.76 43.97 112.40 42.88 C 109.70 41.43 106.83 40.39 103.99 39.29 Z" />
<path fill="#736bbe" opacity="1.00" d=" M 97.45 75.38 C 103.77 74.36 110.63 76.05 114.84 81.12 C 118.67 85.40 120.25 91.28 119.50 96.94 C 118.80 100.98 118.84 105.22 117.17 109.03 C 116.36 109.44 115.54 109.85 114.73 110.27 C 113.34 113.68 111.12 116.60 108.80 119.41 C 108.68 120.09 108.45 121.46 108.34 122.14 C 115.72 127.08 125.40 127.15 132.53 132.59 C 136.51 136.69 135.12 142.93 135.11 148.08 C 134.94 148.38 134.59 148.98 134.41 149.29 C 121.25 156.11 105.96 159.60 91.20 157.05 C 83.07 155.53 75.19 152.81 67.81 149.08 C 67.49 143.34 65.43 135.91 70.97 131.94 C 77.44 127.68 85.44 126.77 92.38 123.54 C 94.21 122.79 94.48 120.89 94.42 119.14 C 91.96 116.86 90.06 114.03 88.85 110.89 C 86.96 109.59 84.86 108.05 84.74 105.51 C 84.50 100.09 82.41 94.65 84.08 89.27 C 85.22 84.24 88.73 80.21 92.87 77.32 C 94.01 77.47 95.16 77.62 96.32 77.77 C 96.60 77.17 97.16 75.98 97.45 75.38 Z" />
</g>
</svg>
