<?xml version="1.0" encoding="UTF-8" standalone="no"?>
<svg
   xmlns:dc="http://purl.org/dc/elements/1.1/"
   xmlns:cc="http://creativecommons.org/ns#"
   xmlns:rdf="http://www.w3.org/1999/02/22-rdf-syntax-ns#"
   xmlns:svg="http://www.w3.org/2000/svg"
   xmlns="http://www.w3.org/2000/svg"
   xmlns:sodipodi="http://sodipodi.sourceforge.net/DTD/sodipodi-0.dtd"
   xmlns:inkscape="http://www.inkscape.org/namespaces/inkscape"
   id="Слой_1"
   viewBox="-205 316 124.23353 97.633141"
   width="124.234"
   height="97.633"
   version="1.1"
   inkscape:version="0.91 r13725"
   sodipodi:docname="developers.svg">
  <metadata
     id="metadata16">
    <rdf:RDF>
      <cc:Work
         rdf:about="">
        <dc:format>image/svg+xml</dc:format>
        <dc:type
           rdf:resource="http://purl.org/dc/dcmitype/StillImage" />
      </cc:Work>
    </rdf:RDF>
  </metadata>
  <defs
     id="defs14" />
  <sodipodi:namedview
     pagecolor="#ffffff"
     bordercolor="#666666"
     borderopacity="1"
     objecttolerance="10"
     gridtolerance="10"
     guidetolerance="10"
     inkscape:pageopacity="0"
     inkscape:pageshadow="2"
     inkscape:window-width="1317"
     inkscape:window-height="744"
     id="namedview12"
     showgrid="false"
     inkscape:zoom="2.4172154"
     inkscape:cx="-6.1433619"
     inkscape:cy="48.816502"
     inkscape:window-x="49"
     inkscape:window-y="24"
     inkscape:window-maximized="1"
     inkscape:current-layer="g3366" />
  <style
     id="style3">.st0{fill:#03131f}</style>
  <g
     id="g3366">
    <path
       class="st0"
       d="m -186.667,317.69 c 0.384,-1.92 2.496,-1.472 3.904,-1.536 4.993,0.064 9.28,4.096 10.433,8.832 0.576,3.328 -0.192,6.72 -0.64,10.05 -0.128,1.28 -1.28,1.983 -2.176,2.687 -1.024,2.112 -2.432,4.032 -4.096,5.696 0.256,0.64 0.512,1.343 0.832,1.983 4.544,1.984 9.664,2.688 13.952,5.312 3.264,2.496 1.856,7.104 1.856,10.624 -5.504,2.367 -11.264,4.48 -17.344,4.99 -8.385,0.96 -16.705,-1.6 -24.32,-4.927 -0.833,-3.52 -1.665,-8.32 1.79,-10.688 4.29,-2.624 9.41,-3.264 14.017,-5.248 0.257,-0.704 0.513,-1.344 0.77,-2.048 -1.537,-1.73 -2.945,-3.585 -3.97,-5.697 -1.15,-0.704 -2.303,-1.664 -2.303,-3.2 -0.064,-2.56 -1.024,-5.12 -0.768,-7.68 0.255,-3.84 2.623,-7.36 5.95,-9.345 0.705,0 1.41,0.064 2.113,0.192 z"
       id="path6"
       inkscape:connector-curvature="0"
       style="fill:#003d54;fill-opacity:1" />
    <path
       class="st0"
       d="m -103.85,316.282 c 6.72,-1.664 13.762,4.288 13.378,11.136 -0.32,2.688 -0.384,5.505 -1.28,8.065 -2.37,1.792 -3.265,4.8 -5.57,6.72 0,0.448 0.065,1.408 0.065,1.856 4.544,2.495 10.05,2.815 14.4,5.63 3.073,2.37 1.793,6.593 1.985,9.857 -8.896,4.48 -19.265,6.72 -29.12,4.416 -4.29,-0.96 -8.45,-2.368 -12.417,-4.288 -0.51,-3.328 -1.535,-7.616 1.665,-9.984 4.352,-2.815 9.792,-3.263 14.464,-5.567 0,-0.768 0.063,-1.536 0.063,-2.24 -1.536,-1.408 -2.56,-3.136 -3.52,-4.992 -0.96,-0.703 -2.176,-1.47 -2.24,-2.75 -0.128,-2.69 -1.088,-5.314 -0.768,-8.066 0.384,-3.648 2.624,-6.976 5.888,-8.704 1.216,0.448 2.304,0.064 3.008,-1.088 z"
       id="path8"
       inkscape:connector-curvature="0"
       style="fill:#003d54;fill-opacity:1" />
    <path
       class="st0"
       d="m -156.906,329.594 c 9.28,-0.32 18.624,-0.064 27.905,-0.128 1.407,-0.256 2.687,0.96 2.623,2.368 0.064,6.21 0,12.417 0,18.69 0.128,1.407 -1.28,2.495 -2.624,2.303 -8.962,0.064 -17.986,0.064 -26.946,0 -1.088,0.064 -2.432,-0.32 -2.624,-1.6 -0.192,-6.016 0,-12.096 -0.064,-18.112 0,-1.28 0.256,-3.073 1.728,-3.52 m -0.128,1.215 c -0.384,5.76 -0.32,11.585 -0.256,17.345 9.92,0.064 19.776,0.128 29.697,0 0.064,-5.76 0,-11.52 0,-17.28 -9.857,-0.193 -19.65,-0.065 -29.44,-0.065 m 21.248,19.65 c 1.664,0.703 3.584,0.51 5.376,0.51 l 0,-1.023 c -1.79,0 -3.71,-0.256 -5.375,0.512 z"
       id="path10"
       inkscape:connector-curvature="0"
       style="fill:#003d54;fill-opacity:1" />
    <path
       class="st0"
       d="m -145.45,345.21 c 1.152,-3.583 1.92,-7.295 3.52,-10.75 0.128,0.255 0.32,0.767 0.448,1.023 -0.512,2.56 -1.472,4.992 -2.176,7.488 -0.384,0.833 -0.32,2.37 -1.792,2.24 z"
       id="path12"
       inkscape:connector-curvature="0"
       style="fill:#003d54;fill-opacity:1" />
    <path
       class="st0"
       d="m -153.258,339.45 c 2.112,-0.767 4.16,-1.79 6.336,-2.367 0.32,0.128 0.896,0.384 1.216,0.448 -1.984,0.96 -4.032,1.665 -6.016,2.497 2.048,0.832 4.416,1.216 6.08,2.88 -2.688,0.192 -5.056,-1.536 -7.552,-2.304 0,-0.256 -0.064,-0.832 -0.064,-1.152 z"
       id="path14"
       inkscape:connector-curvature="0"
       style="fill:#003d54;fill-opacity:1" />
    <path
       class="st0"
       d="m -140.586,337.85 c 0.128,-0.32 0.32,-0.83 0.384,-1.15 2.176,1.023 4.545,1.727 6.72,2.815 0.065,0.192 0.257,0.64 0.385,0.832 -2.304,1.28 -4.865,2.048 -7.36,3.008 0.063,-0.32 0.127,-0.96 0.127,-1.28 1.728,-0.64 3.456,-1.216 5.12,-1.92 -1.728,-0.96 -3.584,-1.6 -5.376,-2.304 z"
       id="path16"
       inkscape:connector-curvature="0"
       style="fill:#003d54;fill-opacity:1" />
    <path
       class="st0"
       d="m -145.13504,363.09141 c 0.384,-1.92 2.496,-1.472 3.904,-1.536 4.993,0.064 9.28,4.096 10.433,8.832 0.576,3.328 -0.192,6.72 -0.64,10.05 -0.128,1.27999 -1.28,1.98299 -2.176,2.68699 -1.024,2.112 -2.432,4.032 -4.096,5.69601 0.256,0.63999 0.512,1.34299 0.832,1.98299 4.544,1.984 9.664,2.688 13.952,5.31201 3.264,2.496 1.856,7.104 1.856,10.62399 -5.504,2.36701 -11.264,4.48001 -17.344,4.99 -8.385,0.96001 -16.705,-1.59999 -24.32,-4.927 -0.833,-3.52 -1.665,-8.32 1.79,-10.68799 4.29,-2.62401 9.41,-3.26401 14.017,-5.24801 0.257,-0.704 0.513,-1.34399 0.77,-2.04799 -1.537,-1.73 -2.945,-3.58501 -3.97,-5.69701 -1.15,-0.704 -2.303,-1.66399 -2.303,-3.19999 -0.064,-2.56001 -1.024,-5.12001 -0.768,-7.68 0.255,-3.84 2.623,-7.36 5.95,-9.345 0.705,0 1.41,0.064 2.113,0.192 z"
       id="path6-3"
       inkscape:connector-curvature="0"
       style="fill:#003d54;fill-opacity:1" />
  </g>
</svg>
