<svg xmlns="http://www.w3.org/2000/svg" id="Слой_1" viewBox="-205 316 124.23353 97.633141" width="124.234" height="97.633"><style id="style3">.st0{fill:#03131f}</style><g id="_x23_736bbeff" fill="#03131f"><path class="st0" d="M-186.667 317.69c.384-1.92 2.496-1.472 3.904-1.536 4.993.064 9.28 4.096 10.433 8.832.576 3.328-.192 6.72-.64 10.05-.128 1.28-1.28 1.983-2.176 2.687-1.024 2.112-2.432 4.032-4.096 5.696.256.64.512 1.343.832 1.983 4.544 1.984 9.664 2.688 13.952 5.312 3.264 2.496 1.856 7.104 1.856 10.624-5.504 2.367-11.264 4.48-17.344 4.99-8.385.96-16.705-1.6-24.32-4.927-.833-3.52-1.665-8.32 1.79-10.688 4.29-2.624 9.41-3.264 14.017-5.248.257-.704.513-1.344.77-2.048-1.537-1.73-2.945-3.585-3.97-5.697-1.15-.704-2.303-1.664-2.303-3.2-.064-2.56-1.024-5.12-.768-7.68.255-3.84 2.623-7.36 5.95-9.345.705 0 1.41.064 2.113.192z" id="path6"/><path class="st0" d="M-103.85 316.282c6.72-1.664 13.762 4.288 13.378 11.136-.32 2.688-.384 5.505-1.28 8.065-2.37 1.792-3.265 4.8-5.57 6.72 0 .448.065 1.408.065 1.856 4.544 2.495 10.05 2.815 14.4 5.63 3.073 2.37 1.793 6.593 1.985 9.857-8.896 4.48-19.265 6.72-29.12 4.416-4.29-.96-8.45-2.368-12.417-4.288-.51-3.328-1.535-7.616 1.665-9.984 4.352-2.815 9.792-3.263 14.464-5.567 0-.768.063-1.536.063-2.24-1.536-1.408-2.56-3.136-3.52-4.992-.96-.703-2.176-1.47-2.24-2.75-.128-2.69-1.088-5.314-.768-8.066.384-3.648 2.624-6.976 5.888-8.704 1.216.448 2.304.064 3.008-1.088z" id="path8"/><path class="st0" d="M-156.906 329.594c9.28-.32 18.624-.064 27.905-.128 1.407-.256 2.687.96 2.623 2.368.064 6.21 0 12.417 0 18.69.128 1.407-1.28 2.495-2.624 2.303-8.962.064-17.986.064-26.946 0-1.088.064-2.432-.32-2.624-1.6-.192-6.016 0-12.096-.064-18.112 0-1.28.256-3.073 1.728-3.52m-.128 1.215c-.384 5.76-.32 11.585-.256 17.345 9.92.064 19.776.128 29.697 0 .064-5.76 0-11.52 0-17.28-9.857-.193-19.65-.065-29.44-.065m21.248 19.65c1.664.703 3.584.51 5.376.51v-1.023c-1.79 0-3.71-.256-5.375.512z" id="path10"/><path class="st0" d="M-145.45 345.21c1.152-3.583 1.92-7.295 3.52-10.75.128.255.32.767.448 1.023-.512 2.56-1.472 4.992-2.176 7.488-.384.833-.32 2.37-1.792 2.24z" id="path12"/><path class="st0" d="M-153.258 339.45c2.112-.767 4.16-1.79 6.336-2.367.32.128.896.384 1.216.448-1.984.96-4.032 1.665-6.016 2.497 2.048.832 4.416 1.216 6.08 2.88-2.688.192-5.056-1.536-7.552-2.304 0-.256-.064-.832-.064-1.152z" id="path14"/><path class="st0" d="M-140.586 337.85c.128-.32.32-.83.384-1.15 2.176 1.023 4.545 1.727 6.72 2.815.065.192.257.64.385.832-2.304 1.28-4.865 2.048-7.36 3.008.063-.32.127-.96.127-1.28 1.728-.64 3.456-1.216 5.12-1.92-1.728-.96-3.584-1.6-5.376-2.304z" id="path16"/><path class="st0" d="M-144.81 360.955c4.032-.64 8.448.448 11.137 3.648 2.432 2.752 3.456 6.528 3.008 10.112-.448 2.56-.448 5.313-1.472 7.745l-1.536.768c-.896 2.176-2.304 4.032-3.777 5.824-.064.448-.256 1.28-.32 1.728 4.737 3.136 10.945 3.2 15.49 6.656 2.56 2.624 1.663 6.592 1.663 9.92-.128.192-.32.576-.448.768-8.448 4.352-18.24 6.592-27.65 4.992a54.587 54.587 0 0 1-14.975-5.12c-.192-3.648-1.536-8.448 2.048-10.944 4.16-2.752 9.28-3.328 13.696-5.376 1.152-.512 1.344-1.664 1.28-2.816a13.717 13.717 0 0 1-3.584-5.312c-1.216-.832-2.56-1.792-2.624-3.456-.128-3.457-1.472-6.977-.448-10.37.704-3.2 3.008-5.823 5.632-7.615.704.064 1.472.192 2.176.256.192-.256.576-1.024.704-1.408z" id="path18"/></g></svg>