<?xml version="1.0" encoding="UTF-8" standalone="no"?>
<!-- Created with Inkscape (http://www.inkscape.org/) -->

<svg
   xmlns:dc="http://purl.org/dc/elements/1.1/"
   xmlns:cc="http://creativecommons.org/ns#"
   xmlns:rdf="http://www.w3.org/1999/02/22-rdf-syntax-ns#"
   xmlns:svg="http://www.w3.org/2000/svg"
   xmlns="http://www.w3.org/2000/svg"
   xmlns:sodipodi="http://sodipodi.sourceforge.net/DTD/sodipodi-0.dtd"
   xmlns:inkscape="http://www.inkscape.org/namespaces/inkscape"
   width="58.932163mm"
   height="44.464256mm"
   viewBox="0 0 208.81475 157.55051"
   id="svg2"
   version="1.1"
   inkscape:version="0.91 r13725"
   sodipodi:docname="drawing.svg">
  <defs
     id="defs4" />
  <sodipodi:namedview
     id="base"
     pagecolor="#ffffff"
     bordercolor="#666666"
     borderopacity="1.0"
     inkscape:pageopacity="0.0"
     inkscape:pageshadow="2"
     inkscape:zoom="1.4"
     inkscape:cx="124.89346"
     inkscape:cy="25.927959"
     inkscape:document-units="px"
     inkscape:current-layer="layer1"
     showgrid="false"
     fit-margin-top="0"
     fit-margin-left="0"
     fit-margin-right="0"
     fit-margin-bottom="0"
     inkscape:window-width="1317"
     inkscape:window-height="744"
     inkscape:window-x="49"
     inkscape:window-y="24"
     inkscape:window-maximized="1" />
  <metadata
     id="metadata7">
    <rdf:RDF>
      <cc:Work
         rdf:about="">
        <dc:format>image/svg+xml</dc:format>
        <dc:type
           rdf:resource="http://purl.org/dc/dcmitype/StillImage" />
        <dc:title></dc:title>
      </cc:Work>
    </rdf:RDF>
  </metadata>
  <g
     inkscape:label="Layer 1"
     inkscape:groupmode="layer"
     id="layer1"
     transform="translate(-429.52119,-320.01552)">
    <g
       id="g3356"
       transform="matrix(1.6509656,0,0,1.6552333,415.62069,291.31171)">
      <g
         id="#736bbeff">
        <path
           id="path3339"
           d="m 43.93,20.33 c 2.53,-4.07 7.89,-2.99 11.9,-2.42 9.26,1.85 16.21,10.01 17.64,19.19 18.84,0.22 37.69,-0.01 56.53,0.11 2.71,-0.35 5.21,2.05 4.86,4.79 0.07,15.68 -0.03,31.37 0.04,47.05 -0.14,1.86 0.32,4.19 -1.32,5.52 -1.1,1.36 -2.98,1.18 -4.53,1.27 -12.04,-0.02 -24.08,0 -36.13,-0.02 -0.67,2.51 0.47,6.48 -2.7,7.49 C 75.47,109.78 59.19,113.83 43,112.14 31.39,110.85 20.11,107.33 9.49,102.53 8.8,98.38 8.13,94.16 8.55,89.94 c 0.48,-3.83 3.41,-6.96 6.8,-8.57 7.65,-3.58 16.06,-5.09 23.91,-8.14 2.2,-0.66 3.03,-2.84 2.6,-4.97 -2.08,-2.67 -4.41,-5.17 -6.01,-8.19 -1.16,-2.38 -3.96,-3.36 -5.14,-5.7 -0.94,-3.4 -0.9,-6.98 -1.75,-10.4 -1.88,-8.73 2.23,-18.42 9.91,-23 1.48,-1.08 3.37,-0.59 5.06,-0.64 m 18.29,7.81 C 57.9,34.35 53.8,40.71 49.21,46.73 46.41,44.08 43.6,41.3 39.93,39.9 c 0.32,1.3 0.27,2.84 1.38,3.79 2.61,2.65 5.36,5.24 8.58,7.14 4.01,-4.11 6.64,-9.29 10.09,-13.83 2.09,-2.65 3.7,-5.61 5.28,-8.58 -0.76,-0.07 -2.28,-0.21 -3.04,-0.28 m 11.39,11.79 c -0.64,4.25 -1.45,8.48 -1.93,12.75 -0.14,3.54 -4.22,4.56 -5.6,7.43 -1.58,3.07 -3.9,5.61 -6.19,8.15 -1.46,2.08 0.66,4.46 2.68,5.1 9.49,3.6 19.92,5.09 28.45,10.92 13.6,0.19 27.21,0.2 40.81,-0.03 0.91,-13.07 0.14,-26.2 0.43,-39.29 -0.23,-1.46 0.45,-3.34 -0.72,-4.49 -1.72,-0.79 -3.66,-0.61 -5.5,-0.66 -17.48,0.12 -34.96,-0.11 -52.43,0.12 m 41.58,48.45 c -0.01,0.66 -0.03,1.98 -0.03,2.64 3.55,0.23 7.13,0.22 10.69,0.01 -0.01,-0.66 -0.02,-1.99 -0.03,-2.66 -3.54,-0.05 -7.09,-0.05 -10.63,0.01 z"
           inkscape:connector-curvature="0"
           style="opacity:1;fill:#736bbe" />
        <path
           id="path3341"
           d="m 98.42,51.2 c 0.63,-0.07 1.89,-0.21 2.53,-0.28 -2.39,8.35 -4.24,16.91 -7.22,25.05 -0.55,0.15 -1.66,0.45 -2.21,0.6 2.02,-8.53 4.69,-16.89 6.9,-25.37 z"
           inkscape:connector-curvature="0"
           style="opacity:1;fill:#736bbe" />
        <path
           id="path3343"
           d="m 73.05,62.51 c 5.53,-2.49 11.09,-4.91 16.77,-7.02 -0.07,0.65 -0.21,1.94 -0.29,2.59 -3.76,2.5 -8.29,3.58 -12.3,5.68 3.89,1.9 8.05,3.19 11.9,5.15 0.32,1.01 0.62,2.03 0.92,3.05 -5.15,-1.67 -10.04,-4.01 -15,-6.12 -1.59,-0.35 -1.52,-2.11 -2,-3.33 z"
           inkscape:connector-curvature="0"
           style="opacity:1;fill:#736bbe" />
        <path
           id="path3345"
           d="m 102.43,55.51 c 5.07,1.74 10.02,3.84 14.9,6.05 1.56,0.41 1.72,2.06 2.23,3.33 -5.66,2.45 -11.26,5.07 -17.08,7.13 0.16,-0.71 0.49,-2.15 0.66,-2.87 3.82,-2.26 8.17,-3.46 12.18,-5.37 -3.92,-1.88 -8.03,-3.34 -11.98,-5.14 -0.23,-0.78 -0.68,-2.35 -0.91,-3.13 z"
           inkscape:connector-curvature="0"
           style="opacity:1;fill:#736bbe" />
      </g>
      <g
         id="#fefeffff">
        <path
           id="path3348"
           d="m 62.22,28.14 c 0.76,0.07 2.28,0.21 3.04,0.28 -1.58,2.97 -3.19,5.93 -5.28,8.58 -3.45,4.54 -6.08,9.72 -10.09,13.83 -3.22,-1.9 -5.97,-4.49 -8.58,-7.14 -1.11,-0.95 -1.06,-2.49 -1.38,-3.79 3.67,1.4 6.48,4.18 9.28,6.83 4.59,-6.02 8.69,-12.38 13.01,-18.59 z"
           inkscape:connector-curvature="0"
           style="opacity:1;fill:#fefeff" />
      </g>
    </g>
  </g>
</svg>
