<?xml version="1.0" encoding="UTF-8" standalone="no"?>
<!-- Generator: Adobe Illustrator 19.0.1, SVG Export Plug-In . SVG Version: 6.00 Build 0)  -->

<svg
   xmlns:dc="http://purl.org/dc/elements/1.1/"
   xmlns:cc="http://creativecommons.org/ns#"
   xmlns:rdf="http://www.w3.org/1999/02/22-rdf-syntax-ns#"
   xmlns:svg="http://www.w3.org/2000/svg"
   xmlns="http://www.w3.org/2000/svg"
   xmlns:sodipodi="http://sodipodi.sourceforge.net/DTD/sodipodi-0.dtd"
   xmlns:inkscape="http://www.inkscape.org/namespaces/inkscape"
   version="1.1"
   id="svg2"
   sodipodi:docname="drawing.svg"
   inkscape:version="0.91 r13725"
   x="0px"
   y="0px"
   viewBox="-221 334 167.1 126"
   style="enable-background:new -221 334 167.1 126;"
   xml:space="preserve"><metadata
     id="metadata17"><rdf:RDF><cc:Work
         rdf:about=""><dc:format>image/svg+xml</dc:format><dc:type
           rdf:resource="http://purl.org/dc/dcmitype/StillImage" /></cc:Work></rdf:RDF></metadata><defs
     id="defs15" /><style
     type="text/css"
     id="style3">
	.st0{fill:#03131F;}
</style><sodipodi:namedview
     fit-margin-top="0"
     borderopacity="1.0"
     fit-margin-left="0"
     showgrid="false"
     inkscape:cx="124.89346"
     bordercolor="#666666"
     id="base"
     pagecolor="#ffffff"
     inkscape:cy="25.927959"
     inkscape:zoom="1.4"
     inkscape:current-layer="layer1"
     inkscape:window-maximized="1"
     inkscape:window-y="24"
     inkscape:window-x="49"
     inkscape:pageopacity="0.0"
     inkscape:window-height="744"
     inkscape:window-width="1317"
     inkscape:pageshadow="2"
     fit-margin-right="0"
     inkscape:document-units="px"
     fit-margin-bottom="0" /><g
     id="layer1"
     transform="translate(-429.52119,-320.01552)"
     inkscape:label="Layer 1"
     inkscape:groupmode="layer"><g
       id="g3356"
       transform="matrix(1.6509656,0,0,1.6552333,415.62069,291.31171)"><g
         id="_x23_736bbeff"><path
           id="path3339"
           inkscape:connector-curvature="0"
           class="st0"
           d="M-97,221.5c2-3.3,6.3-2.4,9.5-1.9c7.4,1.5,13,8,14.1,15.4     c15.1,0.2,30.2,0,45.2,0.1c2.2-0.3,4.2,1.6,3.9,3.8c0.1,12.5,0,25.1,0,37.6c-0.1,1.5,0.3,3.4-1.1,4.4c-0.9,1.1-2.4,0.9-3.6,1     c-9.6,0-19.3,0-28.9,0c-0.5,2,0.4,5.2-2.2,6c-11.8,5.2-24.8,8.4-37.8,7.1c-9.3-1-18.3-3.8-26.8-7.7c-0.6-3.3-1.1-6.7-0.8-10.1     c0.4-3.1,2.7-5.6,5.4-6.9c6.1-2.9,12.8-4.1,19.1-6.5c1.8-0.5,2.4-2.3,2.1-4c-1.7-2.1-3.5-4.1-4.8-6.6c-0.9-1.9-3.2-2.7-4.1-4.6     c-0.8-2.7-0.7-5.6-1.4-8.3c-1.5-7,1.8-14.7,7.9-18.4C-99.9,221.1-98.4,221.5-97,221.5 M-82.4,227.7c-3.5,5-6.7,10.1-10.4,14.9     c-2.2-2.1-4.5-4.3-7.4-5.5c0.3,1,0.2,2.3,1.1,3c2.1,2.1,4.3,4.2,6.9,5.7c3.2-3.3,5.3-7.4,8.1-11.1c1.7-2.1,3-4.5,4.2-6.9     C-80.6,227.9-81.8,227.8-82.4,227.7 M-73.3,237.2c-0.5,3.4-1.2,6.8-1.5,10.2c-0.1,2.8-3.4,3.6-4.5,5.9c-1.3,2.5-3.1,4.5-5,6.5     c-1.2,1.7,0.5,3.6,2.1,4.1c7.6,2.9,15.9,4.1,22.8,8.7c10.9,0.2,21.8,0.2,32.6,0c0.7-10.5,0.1-21,0.3-31.4     c-0.2-1.2,0.4-2.7-0.6-3.6c-1.4-0.6-2.9-0.5-4.4-0.5C-45.3,237.2-59.3,237-73.3,237.2 M-40,275.9c0,0.5,0,1.6,0,2.1     c2.8,0.2,5.7,0.2,8.6,0c0-0.5,0-1.6,0-2.1C-34.4,275.9-37.2,275.9-40,275.9L-40,275.9z" /><path
           id="path3341"
           inkscape:connector-curvature="0"
           class="st0"
           d="M-53.4,246.2c0.5-0.1,1.5-0.2,2-0.2     c-1.9,6.7-3.4,13.5-5.8,20c-0.4,0.1-1.3,0.4-1.8,0.5C-57.3,259.7-55.2,253-53.4,246.2z" /><path
           id="path3343"
           inkscape:connector-curvature="0"
           class="st0"
           d="M-73.7,255.2c4.4-2,8.9-3.9,13.4-5.6     c-0.1,0.5-0.2,1.6-0.2,2.1c-3,2-6.6,2.9-9.8,4.5c3.1,1.5,6.4,2.6,9.5,4.1c0.3,0.8,0.5,1.6,0.7,2.4c-4.1-1.3-8-3.2-12-4.9     C-73.4,257.6-73.4,256.2-73.7,255.2z" /><path
           id="path3345"
           inkscape:connector-curvature="0"
           class="st0"
           d="M-50.2,249.6c4.1,1.4,8,3.1,11.9,4.8     c1.2,0.3,1.4,1.6,1.8,2.7c-4.5,2-9,4.1-13.7,5.7c0.1-0.6,0.4-1.7,0.5-2.3c3.1-1.8,6.5-2.8,9.7-4.3c-3.1-1.5-6.4-2.7-9.6-4.1     C-49.7,251.5-50,250.3-50.2,249.6L-50.2,249.6z" /></g><g
         id="_x23_fefeffff"><path
           id="path3348"
           inkscape:connector-curvature="0"
           class="st0"
           d="M-82.4,227.7c0.6,0.1,1.8,0.2,2.4,0.2     c-1.3,2.4-2.6,4.7-4.2,6.9c-2.8,3.6-4.9,7.8-8.1,11.1c-2.6-1.5-4.8-3.6-6.9-5.7c-0.9-0.8-0.8-2-1.1-3c2.9,1.1,5.2,3.3,7.4,5.5     C-89.1,237.8-85.9,232.7-82.4,227.7z"
           style="fill:#ffffff" /></g></g></g></svg>