<svg xmlns="http://www.w3.org/2000/svg" id="Слой_1" viewBox="-83 309.7 94.635698 105.65909" width="94.636" height="105.659"><style id="style3">.st0{fill:#003d54}</style><g id="_x23_736bbeff" transform="translate(2.817 -10.51) scale(1.03393)"><path id="path6" class="st0" d="M-45.5 310.7c.5-.2 1.5-.8 2-1 .9.6 2.2 1.2 1.9 2.5.1 4.8.1 9.7-.1 14.5-.4.2-1.4.6-1.9.8-.4-.2-1.4-.6-1.9-.8-.2-5.3-.3-10.7 0-16z" fill="#003d54"/><path id="path8" class="st0" d="M-64.4 320.4c-1.8-1.4-.2-4.9 2.1-3.7 3.4 2.9 6.4 6.2 9.6 9.4 1.6 1.5-.2 3.1-1.5 4-3.9-2.7-6.9-6.5-10.2-9.7z" fill="#003d54"/><path id="path10" class="st0" d="M-25.3 317c1.1-1.2 3.4-.4 3.4 1.3.3 1.6-1.3 2.5-2.2 3.7-2.6 2.4-4.9 5.2-7.6 7.4-1.9 1-4.3-1.6-2.6-3.3 2.9-3.1 5.9-6.2 9-9.1z" fill="#003d54"/><path id="path12" class="st0" d="M-7.7 321.1c3.4-3.7 10-3.1 12.7 1.1 2.2 3.1 1.8 7.9-1 10.6-4.8 4.9-9.6 9.6-14.4 14.5 4.5 1.3 7 6.3 5.5 10.6 2.2.6 4.5 1.6 5.6 3.7 1.4 2.1 1.2 4.7 1 7.1 6.2.9 9.2 9.3 4.6 13.7-8.2 8.3-16.4 16.5-24.6 24.7-6.4 6.2-17.4 6.4-24 .5-5.8-5.5-11.2-11.2-16.9-16.8-2.2-2-2.5-5.2-3.5-7.8-2.5-7.3-4.7-14.6-7.3-21.7-4-4.9-9.3-8.6-13-13.8 2.8-3.1 5.5-7.5 10.3-7.1 7.6.4 15.4 4.2 19.6 10.7 2.1 3.1 3.9 6.4 5.8 9.7 13.1-13.3 26.3-26.5 39.6-39.7m3 3.1c-12.5 12.4-24.9 24.9-37.4 37.4-1.7 1.6-3.1 3.5-5.2 4.8-1.3.6-2.3-.7-2.9-1.7-2.7-4.7-5.2-9.7-8.7-13.8-3.7-3.6-8.8-5.9-14-6.1-2-.3-3.2 1.6-4.6 2.8 3.2 3.3 6.5 6.5 9.8 9.8 2 1.9 2.3 4.9 3.3 7.3 2.5 7.4 4.8 14.9 7.6 22.2 5.4 5.8 11.2 11.3 16.8 16.9 4.9 5 13.6 5.2 18.6.3 8-7.9 16-16 24-24 1.6-1.3 2.2-3.8.9-5.5-1.3-2.1-4.3-1.9-6.1-.5-1.5 1.5-3.9-.1-3.7-2 1.3-2.1 3.5-3.5 4.3-5.9-.6-2.2-2.3-4.6-4.9-4.1-1.7.5-4 2.9-5.5.8-1.3-2.3 1.6-3.7 2.8-5.4 2.2-2.3-.1-6.7-3.3-6.3-1.7-.1-2.8 1.6-4.4 1.7-1.7-.1-2.7-2.6-1.2-3.7 6.4-6.6 13-13 19.4-19.5 1.2-1.1 1.4-3 .8-4.5-1-2.3-4.6-3.1-6.4-1z" fill="#003d54"/></g></svg>