<?xml version="1.0" encoding="UTF-8" ?>
<!DOCTYPE svg PUBLIC "-//W3C//DTD SVG 1.1//EN" "http://www.w3.org/Graphics/SVG/1.1/DTD/svg11.dtd">
<svg width="145pt" height="145pt" viewBox="0 0 145 145" version="1.1" xmlns="http://www.w3.org/2000/svg">
<g id="#736bbeff">
<path fill="#736bbe" opacity="1.00" d=" M 55.45 3.82 C 56.13 3.49 57.48 2.82 58.15 2.49 C 59.39 3.30 61.05 4.12 60.77 5.90 C 60.84 12.34 60.99 18.80 60.58 25.23 C 59.94 25.51 58.65 26.07 58.00 26.35 C 57.35 26.07 56.06 25.51 55.41 25.23 C 55.06 18.10 54.99 10.94 55.45 3.82 Z" />
<path fill="#736bbe" opacity="1.00" d=" M 30.12 16.80 C 27.68 14.89 29.83 10.27 32.95 11.76 C 37.47 15.64 41.55 20.06 45.71 24.32 C 47.80 26.34 45.42 28.45 43.75 29.63 C 38.57 26.10 34.60 21.13 30.12 16.80 Z" />
<path fill="#736bbe" opacity="1.00" d=" M 82.34 12.29 C 83.80 10.70 86.90 11.77 86.87 14.00 C 87.28 16.17 85.12 17.44 83.92 18.88 C 80.43 22.06 77.42 25.77 73.74 28.73 C 71.10 30.07 67.99 26.62 70.23 24.38 C 74.16 20.25 78.19 16.19 82.34 12.29 Z" />
<path fill="#736bbe" opacity="1.00" d=" M 105.76 17.78 C 110.31 12.85 119.15 13.68 122.73 19.32 C 125.74 23.54 125.18 29.81 121.46 33.43 C 115.10 39.90 108.61 46.24 102.25 52.70 C 108.24 54.39 111.51 61.08 109.67 66.93 C 112.62 67.74 115.66 69.08 117.19 71.89 C 119.14 74.68 118.80 78.19 118.44 81.39 C 126.76 82.58 130.69 93.79 124.66 99.74 C 113.80 110.82 102.72 121.72 91.75 132.69 C 83.23 141.02 68.49 141.27 59.67 133.27 C 51.99 125.96 44.68 118.27 37.09 110.87 C 34.17 108.17 33.73 103.99 32.37 100.45 C 29.03 90.80 26.10 81.00 22.55 71.43 C 17.28 64.85 10.16 59.88 5.25 52.98 C 8.99 48.91 12.65 42.96 18.99 43.49 C 29.22 43.96 39.57 49.08 45.22 57.80 C 48.00 61.95 50.46 66.31 52.91 70.66 C 70.47 52.97 88.12 35.38 105.76 17.78 M 109.94 21.85 C 93.21 38.45 76.60 55.19 59.91 71.84 C 57.65 73.99 55.67 76.50 53.04 78.22 C 51.28 79.01 49.92 77.22 49.17 75.90 C 45.59 69.59 42.26 63.04 37.58 57.46 C 32.67 52.62 25.82 49.59 18.92 49.32 C 16.19 48.93 14.62 51.48 12.82 53.04 C 17.12 57.47 21.52 61.78 25.89 66.13 C 28.61 68.66 28.99 72.58 30.28 75.89 C 33.72 85.76 36.65 95.84 40.38 105.60 C 47.54 113.40 55.31 120.68 62.76 128.22 C 69.25 134.88 80.91 135.10 87.60 128.60 C 98.32 118.01 108.92 107.28 119.62 96.65 C 121.82 94.92 122.56 91.52 120.83 89.22 C 119.03 86.40 114.99 86.63 112.61 88.55 C 110.59 90.59 107.39 88.49 107.71 85.89 C 109.51 83.14 112.41 81.23 113.55 78.03 C 112.76 75.10 110.50 71.81 107.00 72.53 C 104.71 73.22 101.69 76.46 99.64 73.62 C 97.80 70.53 101.84 68.67 103.29 66.44 C 106.26 63.29 103.16 57.58 98.94 58.09 C 96.68 57.99 95.18 60.22 93.00 60.38 C 90.70 60.24 89.38 56.90 91.39 55.44 C 99.93 46.64 108.79 38.13 117.33 29.34 C 118.95 27.85 119.20 25.37 118.44 23.38 C 117.06 20.17 112.31 19.14 109.94 21.85 Z" />
</g>
</svg>
