<svg xmlns="http://www.w3.org/2000/svg" id="Слой_1" viewBox="-233 324 91.627823 102.31403" width="91.628" height="102.314"><style id="style3">.st0{fill:#03131f}</style><g id="_x23_736bbeff" fill="#03131f"><path class="st0" d="M-195.48 324.974c.525-.225 1.498-.75 2.022-.974.9.6 2.172 1.198 1.948 2.546.075 4.793.15 9.66-.15 14.454-.45.225-1.423.6-1.947.824-.45-.225-1.423-.6-1.947-.824-.15-5.317-.225-10.71.074-16.026z" id="path6"/><path class="st0" d="M-214.427 334.71c-1.797-1.424-.225-4.868 2.097-3.745 3.37 2.92 6.44 6.216 9.586 9.436 1.573 1.5-.225 3.072-1.498 3.97-3.82-2.696-6.815-6.44-10.185-9.66z" id="path8"/><path class="st0" d="M-175.334 331.34c1.123-1.2 3.445-.375 3.37 1.272.3 1.648-1.348 2.547-2.172 3.67-2.62 2.397-4.868 5.168-7.64 7.414-1.946.974-4.342-1.572-2.62-3.295 2.996-3.07 5.992-6.14 9.062-9.06z" id="path10"/><path class="st0" d="M-157.734 335.458c3.37-3.67 10.035-3.07 12.73 1.124 2.248 3.145 1.798 7.863-.973 10.56-4.793 4.867-9.586 9.585-14.38 14.453 4.495 1.273 6.966 6.29 5.543 10.635 2.247.6 4.494 1.647 5.617 3.744 1.423 2.097 1.198 4.72.974 7.115 6.216.898 9.21 9.286 4.643 13.704-8.163 8.313-16.4 16.476-24.64 24.714-6.365 6.216-17.45 6.44-24.04.45-5.766-5.468-11.233-11.234-16.925-16.776-2.17-2.022-2.546-5.168-3.52-7.79-2.47-7.263-4.718-14.603-7.34-21.717-3.968-4.943-9.285-8.613-12.955-13.78 2.77-3.07 5.542-7.49 10.26-7.115 7.64.375 15.428 4.194 19.622 10.71 2.096 3.145 3.894 6.365 5.766 9.66a6600.903 6600.903 0 0 1 39.618-39.692m3.07 3.07c-12.507 12.433-24.94 24.94-37.445 37.446-1.722 1.573-3.145 3.52-5.167 4.793-1.348.6-2.322-.748-2.92-1.722-2.697-4.718-5.168-9.66-8.688-13.78-3.67-3.595-8.837-5.916-14.005-6.066-2.022-.3-3.22 1.646-4.568 2.77 3.22 3.295 6.515 6.515 9.81 9.81 2.023 1.873 2.322 4.868 3.296 7.34 2.546 7.414 4.793 14.903 7.564 22.242 5.392 5.842 11.16 11.31 16.775 16.926 4.868 5.018 13.63 5.167 18.573.3 8.014-7.94 15.952-15.952 23.966-23.966 1.647-1.273 2.17-3.82.898-5.542-1.348-2.097-4.343-1.947-6.14-.524-1.5 1.498-3.895-.075-3.67-2.022 1.348-2.097 3.52-3.52 4.343-5.916-.6-2.172-2.32-4.644-4.943-4.12-1.722.525-3.97 2.92-5.542.824-1.348-2.32 1.648-3.744 2.77-5.392 2.248-2.32-.073-6.665-3.294-6.29-1.722-.075-2.846 1.572-4.418 1.722-1.723-.075-2.696-2.62-1.2-3.67 6.367-6.59 13.032-12.956 19.398-19.546 1.198-1.124 1.423-2.996.824-4.494-.824-2.396-4.42-3.22-6.216-1.123z" id="path12"/></g></svg>