<?xml version="1.0" encoding="utf-8"?>
<!-- Generator: Adobe Illustrator 19.0.1, SVG Export Plug-In . SVG Version: 6.00 Build 0)  -->
<svg version="1.1" id="Слой_1" xmlns="http://www.w3.org/2000/svg" xmlns:xlink="http://www.w3.org/1999/xlink" x="0px" y="0px"
	 viewBox="-233 324 145 145" style="enable-background:new -233 324 145 145;" xml:space="preserve">
<style type="text/css">
	.st0{fill:#03131F;}
</style>
<g id="_x23_736bbeff">
	<path class="st0" d="M-177.6,327.8c0.7-0.3,2-1,2.7-1.3c1.2,0.8,2.9,1.6,2.6,3.4c0.1,6.4,0.2,12.9-0.2,19.3
		c-0.6,0.3-1.9,0.8-2.6,1.1c-0.6-0.3-1.9-0.8-2.6-1.1C-177.9,342.1-178,334.9-177.6,327.8z"/>
	<path class="st0" d="M-202.9,340.8c-2.4-1.9-0.3-6.5,2.8-5c4.5,3.9,8.6,8.3,12.8,12.6c2.1,2-0.3,4.1-2,5.3
		C-194.4,350.1-198.4,345.1-202.9,340.8z"/>
	<path class="st0" d="M-150.7,336.3c1.5-1.6,4.6-0.5,4.5,1.7c0.4,2.2-1.8,3.4-2.9,4.9c-3.5,3.2-6.5,6.9-10.2,9.9
		c-2.6,1.3-5.8-2.1-3.5-4.4C-158.8,344.3-154.8,340.2-150.7,336.3z"/>
	<path class="st0" d="M-127.2,341.8c4.5-4.9,13.4-4.1,17,1.5c3,4.2,2.4,10.5-1.3,14.1c-6.4,6.5-12.8,12.8-19.2,19.3
		c6,1.7,9.3,8.4,7.4,14.2c3,0.8,6,2.2,7.5,5c1.9,2.8,1.6,6.3,1.3,9.5c8.3,1.2,12.3,12.4,6.2,18.3c-10.9,11.1-21.9,22-32.9,33
		c-8.5,8.3-23.3,8.6-32.1,0.6c-7.7-7.3-15-15-22.6-22.4c-2.9-2.7-3.4-6.9-4.7-10.4c-3.3-9.7-6.3-19.5-9.8-29
		c-5.3-6.6-12.4-11.5-17.3-18.4c3.7-4.1,7.4-10,13.7-9.5c10.2,0.5,20.6,5.6,26.2,14.3c2.8,4.2,5.2,8.5,7.7,12.9
		C-162.5,377-144.9,359.4-127.2,341.8 M-123.1,345.9c-16.7,16.6-33.3,33.3-50,50c-2.3,2.1-4.2,4.7-6.9,6.4c-1.8,0.8-3.1-1-3.9-2.3
		c-3.6-6.3-6.9-12.9-11.6-18.4c-4.9-4.8-11.8-7.9-18.7-8.1c-2.7-0.4-4.3,2.2-6.1,3.7c4.3,4.4,8.7,8.7,13.1,13.1
		c2.7,2.5,3.1,6.5,4.4,9.8c3.4,9.9,6.4,19.9,10.1,29.7c7.2,7.8,14.9,15.1,22.4,22.6c6.5,6.7,18.2,6.9,24.8,0.4
		c10.7-10.6,21.3-21.3,32-32c2.2-1.7,2.9-5.1,1.2-7.4c-1.8-2.8-5.8-2.6-8.2-0.7c-2,2-5.2-0.1-4.9-2.7c1.8-2.8,4.7-4.7,5.8-7.9
		c-0.8-2.9-3.1-6.2-6.6-5.5c-2.3,0.7-5.3,3.9-7.4,1.1c-1.8-3.1,2.2-5,3.7-7.2c3-3.1-0.1-8.9-4.4-8.4c-2.3-0.1-3.8,2.1-5.9,2.3
		c-2.3-0.1-3.6-3.5-1.6-4.9c8.5-8.8,17.4-17.3,25.9-26.1c1.6-1.5,1.9-4,1.1-6C-115.9,344.2-120.7,343.1-123.1,345.9z"/>
</g>
</svg>
