<?xml version="1.0" encoding="UTF-8" standalone="no"?>
<!-- Generator: Adobe Illustrator 19.0.1, SVG Export Plug-In . SVG Version: 6.00 Build 0)  -->

<svg
   xmlns:dc="http://purl.org/dc/elements/1.1/"
   xmlns:cc="http://creativecommons.org/ns#"
   xmlns:rdf="http://www.w3.org/1999/02/22-rdf-syntax-ns#"
   xmlns:svg="http://www.w3.org/2000/svg"
   xmlns="http://www.w3.org/2000/svg"
   xmlns:sodipodi="http://sodipodi.sourceforge.net/DTD/sodipodi-0.dtd"
   xmlns:inkscape="http://www.inkscape.org/namespaces/inkscape"
   version="1.1"
   id="Слой_1"
   x="0px"
   y="0px"
   viewBox="-389 114 82 88"
   style="enable-background:new -389 114 82 88;"
   xml:space="preserve"
   inkscape:version="0.91 r13725"
   sodipodi:docname="logo.svg"><metadata
     id="metadata29"><rdf:RDF><cc:Work
         rdf:about=""><dc:format>image/svg+xml</dc:format><dc:type
           rdf:resource="http://purl.org/dc/dcmitype/StillImage" /></cc:Work></rdf:RDF></metadata><defs
     id="defs27" /><sodipodi:namedview
     pagecolor="#ffffff"
     bordercolor="#666666"
     borderopacity="1"
     objecttolerance="10"
     gridtolerance="10"
     guidetolerance="10"
     inkscape:pageopacity="0"
     inkscape:pageshadow="2"
     inkscape:window-width="1317"
     inkscape:window-height="744"
     id="namedview25"
     showgrid="false"
     inkscape:zoom="5.3636364"
     inkscape:cx="29.363657"
     inkscape:cy="45.621242"
     inkscape:window-x="49"
     inkscape:window-y="24"
     inkscape:window-maximized="1"
     inkscape:current-layer="Слой_1" /><style
     type="text/css"
     id="style3">
	.st0{fill:#38335A;}
	.st1{fill:#6869BB;}
</style><g
     id="_x23_38335aff"><path
       class="st0"
       d="M-334.7,114h2c1.5,0.6,3.1,1.4,3.6,3.1c7.4,17,14.9,34.1,22.1,51.2v1.6c-2.4,4.7-8.1,2.3-11.9,1.2   c-0.1,1.3-0.1,2.6-0.2,3.8c-0.2,0.2-0.5,0.7-0.6,0.9c0.1-4-0.8-7.8-2.7-11.3c2.8,0.8,5.6,1.6,8.4,2.3   c-6.5-15.3-13.3-30.5-19.8-45.8c-1.4,2.5-2.8,5-4.2,7.5c-1-2.3-2-4.5-3-6.8C-339.2,118.9-338.2,115-334.7,114z"
       id="path6" /><path
       class="st0"
       d="M-364.6,121.2c1.2-2.7,4.6-4.4,7.4-2.9c2,0.7,2.5,3,3.4,4.7c1,2.3,2,4.6,3,6.9c5.6,13.2,11.5,26.3,17,39.5   c0.9,2.2,2,4.3,3,6.4c0.2,0.9,0.5,2.6,0.7,3.5c-1.6,1.8-3.9,3.7-6.5,2.7c-16-4.1-31.8-8.6-47.7-12.7c-2-0.4-3.5-1.5-4.5-3.3v-1.4   C-381.2,149.9-372.7,135.6-364.6,121.2 M-360.2,125.3c-7.3,13-14.6,26-22.1,38.9c15,4.1,30,8,45,12.1c-1.7-3.9-3.3-7.8-5.2-11.6   c-4.8-1.2-9.6-2.5-14.4-3.7c-2.2-0.4-4.4-2.6-3.5-5c2.6-4.8,5.3-9.5,8.2-14.2c-2.4-5.6-4.8-11.1-7.2-16.7   C-359.7,125.2-360,125.2-360.2,125.3 M-353.8,156.2c2.9,0.8,5.8,1.6,8.7,2.4c-1.1-3.2-2.9-6.9-3.9-10.2   C-351.5,151.8-351.7,152.4-353.8,156.2z"
       id="path8" /><path
       class="st0"
       d="M-379.7,189.6c0.6,0,1.8,0,2.4,0c0,4.1,0,8.3,0,12.4h-2c-2.7-2.2-4.2-5.4-6.2-8.2c-0.1,2.7-0.1,5.5-0.1,8.2   h-2.7c-0.1-4.1-0.1-8.3,0-12.4c0.9,0,2.7,0,3.6,0c1.7,2.4,3.3,4.7,5.1,7C-379.7,194.3-379.7,191.9-379.7,189.6z"
       id="path10" /><path
       class="st0"
       d="M-371,189.6c1.3,0,2.7,0.1,4,0.1c1.5,4.1,2.9,8.2,4.5,12.3h-3.6c-0.2-0.6-0.6-2.1-0.9-2.7   c-3.1-0.1-3.1,0-4.7,0c-0.4,0.9-0.9,1.8-1.3,2.8h-2.8C-374.2,197.8-372.6,193.7-371,189.6 M-370.9,197.1c0.7,0,2.7,0,3.4,0.1   c-0.8-2.2-0.8-2.2-1.6-4.3C-369.9,194.3-369.9,194.3-370.9,197.1z"
       id="path12" /><path
       class="st0"
       d="M-360.8,189.6c2.6,0,5.3-0.1,7.9,0.2c2.6,0.4,4.5,3.7,2.5,5.9c-1.7,2.2-4.7,1.6-7.1,1.8c0,1.5,0,3,0,4.6h-3.2   C-360.9,197.9-360.8,193.7-360.8,189.6 M-357.7,194.9c2.1,0.2,2.9,0,4.3-0.3c0.1,0,0.1,0,0.2-0.1c0.6-0.5,0.4-1.6,0.3-2.1   c0-0.1-0.1-0.2-0.2-0.3c-1.3-0.7-3.2-0.5-4.7-0.6C-357.7,193-357.7,193-357.7,194.9z"
       id="path14" /><path
       class="st0"
       d="M-347.6,202c-0.1-4.1-0.1-8.3-0.1-12.4c5.9,0,8.3-0.5,10.8,1.4c1.8,2,0.3,4.6-1.5,5.9c0.9,1.6,1.8,3.5,2.7,5.1   c-0.9,0-2.7,0-3.6,0c-1.1-2.1-1.6-3.2-2.4-4.7c-0.9,0-1.8-0.1-2.6-0.1c0,1.6,0,3.2,0,4.8H-347.6 M-344.3,191.8   c0,0.8-0.1,2.3-0.1,3.1c1.3-0.2,3.5,0.3,4.8-0.4c1-0.5,0.8-2-0.2-2.3C-341.2,191.6-343,191.8-344.3,191.8z"
       id="path16" /><path
       class="st0"
       d="M-333.6,192.4c2-3.8,8.4-4.2,10.6-0.4c2.4,3.5,0.8,8.9-3.5,10h-3C-333.7,201.3-335.7,196-333.6,192.4    M-329.7,192.4c-0.5,0.2-0.8,0.7-0.8,1.2c-0.3,2.5-0.8,6.2,2.5,6c3,0,2.5-3.7,2.3-6c0-0.5-0.3-0.9-0.7-1.1c0,0,0,0-0.1,0   c-0.9-0.6-2.1-0.6-3.1-0.1C-329.6,192.3-329.7,192.4-329.7,192.4z"
       id="path18" /><path
       class="st0"
       d="m -319.5,202 c -0.1,-4.1 -0.1,-8.3 -0.1,-12.4 l 3.2,0 c 0,1.9 0,3.9 0.1,5.8 l 5.97181,-6.00348 c 0.29972,-0.30131 2.14981,-0.10623 2.73709,-0.10623 l -4.71187,5.67204 4.80297,7.13771 -3.8,0 -3.14382,-5.55805 -1.85618,1.76328 c 0,0.5 0,-0.50523 -0.1,3.79477 l -3.1,0 z"
       id="path20"
       inkscape:connector-curvature="0"
       style="fill:#38335a"
       sodipodi:nodetypes="ccccsccccccccc" /></g><g
     id="_x23_6869bbff"><path
       class="st1"
       d="M-353.9,123c1.7-2.7,2.9-7.1,6.9-6.9c3.5-0.5,5,2.9,6,5.6c1,2.3,2,4.5,3,6.8c5.2,12,10.3,24.1,15.6,36.1   c1.9,3.5,2.8,7.4,2.7,11.3c-3.3,3-7.5,0.8-11.1-0.1c-1-2.2-2-4.3-3-6.4c2.6,0.7,5.2,1.5,7.8,2.2c-6.5-15.9-13.6-31.5-20.3-47.3   c-0.3-0.1-1-0.2-1.3-0.2c-1.2,1.8-2.2,3.8-3.2,5.8C-351.9,127.5-352.9,125.3-353.9,123z"
       id="path23" /></g></svg>