<svg xmlns="http://www.w3.org/2000/svg" id="Слой_1" viewBox="-88 317 80.709 87.009003" width="80.709" height="87.009"><style id="style3">.st0{fill:#193f54}.st1{fill:#0098ab}</style><g id="g3348" transform="matrix(.9903 0 0 .991 908.137 -489.567)"><g id="_x23_38335aff"><path d="M-952 813.9h2c1.5.6 3.1 1.4 3.6 3.1 7.4 16.9 14.8 33.9 22 51v1.6c-2.4 4.7-8.1 2.3-11.8 1.2-.1 1.3-.1 2.6-.2 3.8-.2.2-.5.7-.6.9.1-4-.8-7.8-2.7-11.3 2.8.8 5.6 1.6 8.4 2.3-6.5-15.2-13.2-30.4-19.7-45.6l-4.2 7.5c-1-2.3-2-4.5-3-6.8 1.7-2.8 2.7-6.7 6.2-7.7z" class="st0" id="path6" fill="#193f54"/><path d="M-981.8 821.1c1.2-2.7 4.6-4.4 7.4-2.9 2 .7 2.5 3 3.4 4.7l3 6.9c5.6 13.1 11.4 26.2 16.9 39.3.9 2.2 2 4.3 3 6.4.2.9.5 2.6.7 3.5-1.6 1.8-3.9 3.7-6.5 2.7-15.9-4.1-31.7-8.6-47.5-12.6-2-.4-3.5-1.5-4.5-3.3v-1.4c7.6-14.8 16-29 24.1-43.3m4.4 4.1c-7.3 12.9-14.5 25.9-22 38.7 14.9 4.1 29.9 8 44.8 12-1.7-3.9-3.3-7.8-5.2-11.5-4.8-1.2-9.6-2.5-14.3-3.7-2.2-.4-4.4-2.6-3.5-5 2.6-4.8 5.3-9.5 8.2-14.1-2.4-5.6-4.8-11.1-7.2-16.6-.3 0-.6 0-.8.2m6.3 30.7l8.7 2.4c-1.1-3.2-2.9-6.9-3.9-10.2-2.5 3.5-2.7 4-4.8 7.8z" class="st0" id="path8" fill="#193f54"/><path d="M-996.8 889.2h2.4v12.3h-2c-2.7-2.2-4.2-5.4-6.2-8.2-.1 2.7-.1 5.5-.1 8.2h-2.7c-.1-4.1-.1-8.3 0-12.3h3.6c1.7 2.4 3.3 4.7 5.1 7-.1-2.3-.1-4.7-.1-7z" class="st0" id="path10" fill="#193f54"/><path d="M-988.2 889.2c1.3 0 2.7.1 4 .1 1.5 4.1 2.9 8.2 4.5 12.2h-3.6c-.2-.6-.6-2.1-.9-2.7-3.1-.1-3.1 0-4.7 0-.4.9-.9 1.8-1.3 2.8h-2.8c1.6-4.2 3.2-8.4 4.8-12.4m.1 7.4c.7 0 2.7 0 3.4.1-.8-2.2-.8-2.2-1.6-4.3-.8 1.5-.8 1.5-1.8 4.2z" class="st0" id="path12" fill="#193f54"/><path d="M-978 889.2c2.6 0 5.3-.1 7.9.2 2.6.4 4.5 3.7 2.5 5.9-1.7 2.2-4.7 1.6-7.1 1.8v4.6h-3.2c-.2-4.3-.1-8.5-.1-12.5m3.1 5.2c2.1.2 2.9 0 4.3-.3.1 0 .1 0 .2-.1.6-.5.4-1.6.3-2.1 0-.1-.1-.2-.2-.3-1.3-.7-3.2-.5-4.7-.6.1 1.6.1 1.6.1 3.4z" class="st0" id="path14" fill="#193f54"/><path d="M-964.9 901.5c-.1-4.1-.1-8.3-.1-12.3 5.9 0 8.3-.5 10.8 1.4 1.8 2 .3 4.6-1.5 5.9.9 1.6 1.8 3.5 2.7 5.1h-3.6c-1.1-2.1-1.6-3.2-2.4-4.7-.9 0-1.8-.1-2.6-.1v4.8h-3.3m3.3-10.1c0 .8-.1 2.3-.1 3.1 1.3-.2 3.5.3 4.8-.4 1-.5.8-2-.2-2.3-1.4-.7-3.2-.4-4.5-.4z" class="st0" id="path16" fill="#193f54"/><path d="M-950.9 892c2-3.8 8.4-4.2 10.6-.4 2.4 3.5.8 8.9-3.5 10h-3c-4.2-.7-6.2-6.1-4.1-9.6m3.8 0c-.5.2-.8.7-.8 1.2-.3 2.5-.8 6.2 2.5 6 3 0 2.5-3.7 2.3-6 0-.5-.3-.9-.7-1.1h-.1c-.9-.6-2.1-.6-3.2-.1.1 0 0 0 0 0z" class="st0" id="path18" fill="#193f54"/><path d="M-936.9 901.5c-.1-4.1-.1-8.3-.1-12.3h3.2c0 1.9-.2 3.4-.1 5.3l5.3-5.2c.3-.3 2.9-.2 3.5-.2l-4.6 5.5 4.8 7.1h-3.8l-3.1-5.6-1.9 1.8c0 .5 0-.5-.1 3.8l-3.1-.2z" class="st0" id="path20" fill="#193f54"/></g><g id="_x23_6869bbff"><path d="M-971.2 822.9c1.7-2.7 2.9-7.1 6.9-6.9 3.5-.5 5 2.9 6 5.6 1 2.3 2 4.5 3 6.8 5.2 11.9 10.3 24 15.5 35.9 1.9 3.5 2.8 7.4 2.7 11.3-3.3 3-7.5.8-11.1-.1-1-2.2-2-4.3-3-6.4 2.6.7 5.2 1.5 7.8 2.2-6.5-15.8-13.5-31.4-20.2-47.1-.3-.1-1-.2-1.3-.2-1.2 1.8-2.2 3.8-3.2 5.8-1.1-2.5-2.1-4.6-3.1-6.9z" class="st1" id="path23" fill="#0098ab"/></g></g></svg>