<?xml version="1.0" encoding="UTF-8" standalone="no"?>
<!-- Generator: Adobe Illustrator 19.0.1, SVG Export Plug-In . SVG Version: 6.00 Build 0)  -->

<svg
   xmlns:dc="http://purl.org/dc/elements/1.1/"
   xmlns:cc="http://creativecommons.org/ns#"
   xmlns:rdf="http://www.w3.org/1999/02/22-rdf-syntax-ns#"
   xmlns:svg="http://www.w3.org/2000/svg"
   xmlns="http://www.w3.org/2000/svg"
   xmlns:sodipodi="http://sodipodi.sourceforge.net/DTD/sodipodi-0.dtd"
   xmlns:inkscape="http://www.inkscape.org/namespaces/inkscape"
   version="1.1"
   id="Слой_1"
   sodipodi:docname="logo.svg"
   inkscape:version="0.91 r13725"
   x="0px"
   y="0px"
   viewBox="-918 497 82 88"
   xml:space="preserve"
   width="82"
   height="88"><metadata
     id="metadata21"><rdf:RDF><cc:Work
         rdf:about=""><dc:format>image/svg+xml</dc:format><dc:type
           rdf:resource="http://purl.org/dc/dcmitype/StillImage" /><dc:title></dc:title></cc:Work></rdf:RDF></metadata><defs
     id="defs19" /><style
     type="text/css"
     id="style3">
	.st0{fill:#38335A;}
	.st1{fill:#6869BB;}
</style><sodipodi:namedview
     id="namedview25"
     bordercolor="#666666"
     borderopacity="1"
     guidetolerance="10000"
     showgrid="false"
     objecttolerance="10"
     inkscape:cy="42.067965"
     inkscape:cx="44.5324"
     inkscape:zoom="3.7926636"
     pagecolor="#ffffff"
     gridtolerance="10"
     inkscape:current-layer="g6"
     inkscape:window-maximized="1"
     inkscape:window-y="24"
     inkscape:window-x="49"
     inkscape:window-height="744"
     inkscape:pageshadow="2"
     inkscape:pageopacity="0"
     inkscape:window-width="1317"
     borderlayer="false"
     showguides="true" /><g
     id="g6"
     transform="matrix(0.40046393,0,0,0.40046393,-550.31416,297.90947)"><g
       id="_x23_38335aff"
       transform="matrix(2.4861221,0,0,2.4861221,1364.1115,-738.4541)"><path
         id="path6"
         class="st0"
         d="m -863.8,496.9 2,0 c 1.5,0.6 3.1,1.4 3.6,3.1 7.4,17 14.9,34.1 22.1,51.2 l 0,1.6 c -2.4,4.7 -8.1,2.3 -11.9,1.2 -0.1,1.3 -0.1,2.6 -0.2,3.8 -0.2,0.2 -0.5,0.7 -0.6,0.9 0.1,-4 -0.8,-7.8 -2.7,-11.3 2.8,0.8 5.6,1.6 8.4,2.3 -6.5,-15.3 -13.3,-30.5 -19.8,-45.8 -1.4,2.5 -2.8,5 -4.2,7.5 -1,-2.3 -2,-4.5 -3,-6.8 1.8,-2.8 2.8,-6.7 6.3,-7.7 z"
         inkscape:connector-curvature="0"
         style="fill:#38335a" /><path
         id="path8"
         class="st0"
         d="m -893.7,504.1 c 1.2,-2.7 4.6,-4.4 7.4,-2.9 2,0.7 2.5,3 3.4,4.7 1,2.3 2,4.6 3,6.9 5.6,13.2 11.5,26.3 17,39.5 0.9,2.2 2,4.3 3,6.4 0.2,0.9 0.5,2.6 0.7,3.5 -1.6,1.8 -3.9,3.7 -6.5,2.7 -16,-4.1 -31.8,-8.6 -47.7,-12.7 -2,-0.4 -3.5,-1.5 -4.5,-3.3 l 0,-1.4 c 7.6,-14.7 16.1,-29 24.2,-43.4 m 4.4,4.2 c -7.3,13 -14.6,26 -22.1,38.9 15,4.1 30,8 45,12.1 -1.7,-3.9 -3.3,-7.8 -5.2,-11.6 -4.8,-1.2 -9.6,-2.5 -14.4,-3.7 -2.2,-0.4 -4.4,-2.6 -3.5,-5 2.6,-4.8 5.3,-9.5 8.2,-14.2 -2.4,-5.6 -4.8,-11.1 -7.2,-16.7 -0.3,0 -0.6,0 -0.8,0.2 m 6.4,30.8 c 2.9,0.8 5.8,1.6 8.7,2.4 -1.1,-3.2 -2.9,-6.9 -3.9,-10.2 -2.5,3.5 -2.7,4 -4.8,7.8 z"
         inkscape:connector-curvature="0"
         style="fill:#38335a" /><path
         id="path10"
         class="st0"
         d="m -908.8,572.5 c 0.6,0 1.8,0 2.4,0 0,4.1 0,8.3 0,12.4 l -2,0 c -2.7,-2.2 -4.2,-5.4 -6.2,-8.2 -0.1,2.7 -0.1,5.5 -0.1,8.2 l -2.7,0 c -0.1,-4.1 -0.1,-8.3 0,-12.4 0.9,0 2.7,0 3.6,0 1.7,2.4 3.3,4.7 5.1,7 -0.1,-2.2 -0.1,-4.7 -0.1,-7 z"
         inkscape:connector-curvature="0"
         style="fill:#38335a" /><path
         id="path12"
         class="st0"
         d="m -900.1,572.5 c 1.3,0 2.7,0.1 4,0.1 1.5,4.1 2.9,8.2 4.5,12.3 l -3.6,0 c -0.2,-0.6 -0.6,-2.1 -0.9,-2.7 -3.1,-0.1 -3.1,0 -4.7,0 -0.4,0.9 -0.9,1.8 -1.3,2.8 l -2.8,0 c 1.6,-4.2 3.2,-8.4 4.8,-12.5 m 0.1,7.5 c 0.7,0 2.7,0 3.4,0.1 -0.8,-2.2 -0.8,-2.2 -1.6,-4.3 -0.8,1.5 -0.8,1.5 -1.8,4.2 z"
         inkscape:connector-curvature="0"
         style="fill:#38335a" /><path
         id="path14"
         class="st0"
         d="m -889.9,572.5 c 2.6,0 5.3,-0.1 7.9,0.2 2.6,0.4 4.5,3.7 2.5,5.9 -1.7,2.2 -4.7,1.6 -7.1,1.8 0,1.5 0,3 0,4.6 l -3.2,0 c -0.2,-4.2 -0.1,-8.4 -0.1,-12.5 m 3.1,5.3 c 2.1,0.2 2.9,0 4.3,-0.3 0.1,0 0.1,0 0.2,-0.1 0.6,-0.5 0.4,-1.6 0.3,-2.1 0,-0.1 -0.1,-0.2 -0.2,-0.3 -1.3,-0.7 -3.2,-0.5 -4.7,-0.6 0.1,1.5 0.1,1.5 0.1,3.4 z"
         inkscape:connector-curvature="0"
         style="fill:#38335a" /><path
         id="path16"
         class="st0"
         d="m -876.7,584.9 c -0.1,-4.1 -0.1,-8.3 -0.1,-12.4 5.9,0 8.3,-0.5 10.8,1.4 1.8,2 0.3,4.6 -1.5,5.9 0.9,1.6 1.8,3.5 2.7,5.1 -0.9,0 -2.7,0 -3.6,0 -1.1,-2.1 -1.6,-3.2 -2.4,-4.7 -0.9,0 -1.8,-0.1 -2.6,-0.1 0,1.6 0,3.2 0,4.8 l -3.3,0 m 3.3,-10.1 c 0,0.8 -0.1,2.3 -0.1,3.1 1.3,-0.2 3.5,0.3 4.8,-0.4 1,-0.5 0.8,-2 -0.2,-2.3 -1.4,-0.7 -3.2,-0.4 -4.5,-0.4 z"
         inkscape:connector-curvature="0"
         style="fill:#38335a" /><path
         id="path18"
         class="st0"
         d="m -862.7,575.3 c 2,-3.8 8.4,-4.2 10.6,-0.4 2.4,3.5 0.8,8.9 -3.5,10 l -3,0 c -4.2,-0.6 -6.2,-6 -4.1,-9.6 m 3.9,0 c -0.5,0.2 -0.8,0.7 -0.8,1.2 -0.3,2.5 -0.8,6.2 2.5,6 3,0 2.5,-3.7 2.3,-6 0,-0.5 -0.3,-0.9 -0.7,-1.1 0,0 0,0 -0.1,0 -0.9,-0.6 -2.1,-0.6 -3.2,-0.1 0.1,0 0,0 0,0 z"
         inkscape:connector-curvature="0"
         style="fill:#38335a" /><path
         id="path20"
         sodipodi:nodetypes="ccccsccccccccc"
         inkscape:connector-curvature="0"
         class="st0"
         d="m -848.6,584.9 c -0.1,-4.1 -0.1,-8.3 -0.1,-12.4 l 3.2,0 c 0,1.9 -0.2,3.4 -0.1,5.3 l 5.3,-5.2 c 0.3,-0.3 2.9,-0.2 3.5,-0.2 l -4.6,5.5 4.8,7.1 -3.8,0 -3.1,-5.6 -1.9,1.8 c 0,0.5 0,-0.5 -0.1,3.8 l -3.1,0 0,-0.1 z"
         style="fill:#38335a" /></g><g
       id="_x23_6869bbff"
       transform="matrix(2.4861221,0,0,2.4861221,1364.1115,-738.4541)"><path
         id="path23"
         class="st1"
         d="m -883,505.9 c 1.7,-2.7 2.9,-7.1 6.9,-6.9 3.5,-0.5 5,2.9 6,5.6 1,2.3 2,4.5 3,6.8 5.2,12 10.3,24.1 15.6,36.1 1.9,3.5 2.8,7.4 2.7,11.3 -3.3,3 -7.5,0.8 -11.1,-0.1 -1,-2.2 -2,-4.3 -3,-6.4 2.6,0.7 5.2,1.5 7.8,2.2 -6.5,-15.9 -13.6,-31.5 -20.3,-47.3 -0.3,-0.1 -1,-0.2 -1.3,-0.2 -1.2,1.8 -2.2,3.8 -3.2,5.8 -1.1,-2.4 -2.1,-4.5 -3.1,-6.9 z"
         inkscape:connector-curvature="0"
         style="fill:#6869bb" /></g></g></svg>