<?xml version="1.0" encoding="UTF-8" ?>
<!DOCTYPE svg PUBLIC "-//W3C//DTD SVG 1.1//EN" "http://www.w3.org/Graphics/SVG/1.1/DTD/svg11.dtd">
<svg width="50pt" height="50pt" viewBox="0 0 50 50" version="1.1" xmlns="http://www.w3.org/2000/svg">
<g id="#5b5b87ff">
<path fill="#5b5b87" opacity="1.00" d=" M 0.00 0.00 L 50.00 0.00 L 50.00 50.00 L 0.00 50.00 L 0.00 0.00 M 14.66 14.94 C 14.66 15.65 14.68 17.06 14.69 17.77 C 21.57 17.72 28.44 17.73 35.32 17.77 C 35.32 17.06 35.34 15.64 35.34 14.94 C 28.45 14.92 21.55 14.92 14.66 14.94 M 14.65 23.93 C 14.67 24.65 14.70 26.07 14.72 26.78 C 21.58 26.71 28.45 26.73 35.32 26.77 C 35.32 26.06 35.34 24.64 35.34 23.94 C 28.45 23.92 21.55 23.92 14.65 23.93 M 14.66 32.94 C 14.66 33.65 14.68 35.06 14.68 35.77 C 21.53 35.74 28.38 35.68 35.23 35.80 C 35.27 35.09 35.33 33.65 35.36 32.93 C 28.46 32.93 21.56 32.92 14.66 32.94 Z" />
</g>
<g id="#eae3edff">
<path fill="#eae3ed" opacity="1.00" d=" M 14.66 14.94 C 21.55 14.92 28.45 14.92 35.34 14.94 C 35.34 15.64 35.32 17.06 35.32 17.77 C 28.44 17.73 21.57 17.72 14.69 17.77 C 14.68 17.06 14.66 15.65 14.66 14.94 Z" />
<path fill="#eae3ed" opacity="1.00" d=" M 14.65 23.93 C 21.55 23.92 28.45 23.92 35.34 23.94 C 35.34 24.64 35.32 26.06 35.32 26.77 C 28.45 26.73 21.58 26.71 14.72 26.78 C 14.70 26.07 14.67 24.65 14.65 23.93 Z" />
<path fill="#eae3ed" opacity="1.00" d=" M 14.66 32.94 C 21.56 32.92 28.46 32.93 35.36 32.93 C 35.33 33.65 35.27 35.09 35.23 35.80 C 28.38 35.68 21.53 35.74 14.68 35.77 C 14.68 35.06 14.66 33.65 14.66 32.94 Z" />
</g>
</svg>
