<?xml version="1.0" encoding="UTF-8" standalone="no"?>
<!-- Generator: Adobe Illustrator 19.0.1, SVG Export Plug-In . SVG Version: 6.00 Build 0)  -->

<svg
   xmlns:dc="http://purl.org/dc/elements/1.1/"
   xmlns:cc="http://creativecommons.org/ns#"
   xmlns:rdf="http://www.w3.org/1999/02/22-rdf-syntax-ns#"
   xmlns:svg="http://www.w3.org/2000/svg"
   xmlns="http://www.w3.org/2000/svg"
   xmlns:sodipodi="http://sodipodi.sourceforge.net/DTD/sodipodi-0.dtd"
   xmlns:inkscape="http://www.inkscape.org/namespaces/inkscape"
   version="1.1"
   id="Слой_1"
   x="0px"
   y="0px"
   viewBox="0 0 500 500"
   style="enable-background:new 0 0 500 500;"
   xml:space="preserve"
   inkscape:version="0.91 r13725"
   sodipodi:docname="naprokillustration.svg"><metadata
     id="metadata57"><rdf:RDF><cc:Work
         rdf:about=""><dc:format>image/svg+xml</dc:format><dc:type
           rdf:resource="http://purl.org/dc/dcmitype/StillImage" /></cc:Work></rdf:RDF></metadata><defs
     id="defs55" /><sodipodi:namedview
     pagecolor="#ffffff"
     bordercolor="#666666"
     borderopacity="1"
     objecttolerance="10"
     gridtolerance="10"
     guidetolerance="10"
     inkscape:pageopacity="0"
     inkscape:pageshadow="2"
     inkscape:window-width="1317"
     inkscape:window-height="744"
     id="namedview53"
     showgrid="false"
     inkscape:zoom="0.944"
     inkscape:cx="161.88354"
     inkscape:cy="321.49659"
     inkscape:window-x="49"
     inkscape:window-y="24"
     inkscape:window-maximized="1"
     inkscape:current-layer="Слой_1" /><style
     type="text/css"
     id="style3">
	.st0{fill:#F3D3C3;}
	.st1{fill:#F8E3D0;}
	.st2{fill:#211A17;}
	.st3{fill:#2E304B;}
	.st4{fill:#414141;}
	.st5{fill:#575758;}
	.st6{fill:#FFFFFF;}
	.st7{fill:#464646;}
	.st8{fill:#7A7A7A;}
	.st9{fill:#E8E8E8;}
	.st10{fill:#C1C1C1;}
	.st11{fill:none;stroke:#C1C1C1;stroke-width:2;stroke-miterlimit:10;}
</style><ellipse
     class="st0"
     cx="221.38675"
     cy="98.789047"
     rx="6.9120989"
     ry="7.579175"
     id="ellipse5"
     style="fill:#f3d3c3" /><ellipse
     class="st0"
     cx="287.7717"
     cy="98.237831"
     rx="6.9120989"
     ry="7.579175"
     id="ellipse7"
     style="fill:#f3d3c3" /><rect
     x="239.81902"
     y="129.10574"
     class="st0"
     width="29.808426"
     height="29.903292"
     id="rect9"
     style="fill:#f3d3c3" /><ellipse
     class="st1"
     cx="254.65123"
     cy="98.789047"
     rx="33.408478"
     ry="43.132397"
     id="ellipse11"
     style="fill:#f8e3d0" /><g
     id="g13"
     transform="matrix(1.4400205,0,0,1.3780318,-57.545225,-97.304876)"><path
       class="st2"
       d="m 220.6,125.5 c -3.2,-1.3 -10.2,-0.7 -14.2,0.6 -4.1,1.3 -8.3,0.3 -8.3,0.3 l -0.7,0.1 -0.6,1.7 -0.4,2.1 c 0,0 0.2,-1.1 0,0 -1.3,-1.3 -0.7,1.7 -0.7,1.7 0,0 -0.6,0.8 -1,1.6 -0.6,-1.1 0,0 0,0 0,0 0.4,11.5 -0.9,11.6 -2.1,-1.3 -3.2,-10.4 -3.2,-10.4 0,0 -1.8,-9.8 -1.5,-11.8 0.3,-2 4.1,-4.8 5.3,-4.7 -2.6,-3.2 2.6,-4.4 2.6,-4.4 0,0 4.9,-3.8 16.3,-5.9 1.1,-0.1 -1.6,-1 -3.8,-1.2 0.8,-1.3 5.8,0.9 5.8,0.9 0,0 -2.5,-0.8 -4.8,-1.4 0.7,-0.6 4.2,0.1 7.6,1.2 6.2,2 11.8,1.8 13.6,4.1 0.9,0.9 0.1,2.5 1.4,2.7 1.3,0.1 8.8,1.9 11.2,8.3 -2.8,-2.8 -4.8,-2.6 -4.8,-2.6 0,0 4.4,4.3 4.3,7.4 0,1.2 -0.3,4.3 -1.4,6 -1.8,2.7 -2.9,10.8 -3.2,12.4 -0.5,2.5 0,0 -1.3,0.1 -1.3,0.1 -1,-16.1 -0.8,-17.2 0.4,-1.5 -10.5,-3.5 -10.5,-3.5 0,0 11.9,1.7 10.4,4.8 -1.6,-3.6 -9.7,-2.1 -9.7,-2.1"
       id="path15"
       inkscape:connector-curvature="0"
       style="fill:#211a17" /></g><path
     class="st3"
     d="m 316.14009,282.34289 -119.5217,0 0,-106.10845 c 0,-9.50842 8.06412,-17.2254 18.00026,-17.2254 l 83.52118,0 c 9.93615,0 18.00026,7.71698 18.00026,17.2254 l 0,106.10845 z"
     id="path17"
     inkscape:connector-curvature="0"
     style="fill:#2e304b" /><rect
     x="47.576271"
     y="260.29437"
     class="st4"
     width="419.47797"
     height="12.402286"
     id="rect19"
     style="fill:#414141" /><rect
     x="58.088428"
     y="272.69666"
     class="st5"
     width="399.31769"
     height="150.20547"
     id="rect21"
     style="fill:#575758" /><path
     class="st3"
     d="m 209.57858,250.78596 0,8.81941 c 0,0.2756 -0.28801,0.5512 -0.57601,0.5512 l -42.19261,-0.1378 c -6.48008,0 -11.80816,-5.78773 -11.80816,-12.67789 l 0,-11.85107 c 0,-1.10243 0.86401,-3.58289 2.01602,-3.30728 l 52.12875,18.05222 c 0.28801,0.1378 0.43201,0.4134 0.43201,0.55121 z"
     id="path23"
     inkscape:connector-curvature="0"
     style="fill:#2e304b" /><path
     class="st3"
     d="m 305.62794,250.92376 0,7.85478 c 0,0.27561 0.288,0.55122 0.57601,0.55122 l 42.62461,0.1378 c 6.6241,0 11.95217,-4.96091 11.95217,-11.16206 l 0.144,-12.12667 c 0,-0.96463 -0.86401,-1.51584 -2.01603,-1.24023 l -52.84875,15.57175 c -0.28801,0.1378 -0.43201,0.27561 -0.43201,0.41341 z"
     id="path25"
     inkscape:connector-curvature="0"
     style="fill:#2e304b" /><path
     class="st3"
     d="m 174.73008,246.10065 -17.56826,-7.57917 c -1.87201,-0.82682 -2.73602,-3.03167 -1.87201,-4.68531 l 35.2805,-64.07848 c 0.432,-0.82682 1.15201,-1.65363 1.87202,-2.20485 10.65615,-8.68161 15.55222,-9.78403 30.96044,-7.16577 l 0,0 c 1.00802,0.55122 1.44003,1.79145 1.00802,2.75607 l -46.80066,82.13069 c -0.57602,0.82682 -1.72803,1.24023 -2.88005,0.82682 z"
     id="path27"
     inkscape:connector-curvature="0"
     style="fill:#2e304b" /><path
     class="st3"
     d="m 350.98859,249.68353 6.76809,-3.85849 c 3.31206,-1.79143 4.03206,-6.33894 1.58403,-10.05963 l -41.61659,-65.0431 c -0.28801,-0.55121 -0.72001,-0.96462 -1.15203,-1.51583 -8.35211,-8.6816 -20.88029,-13.22911 -29.37641,-8.1304 l -1.44001,0.82683 55.15278,84.33555 c 2.59203,3.72068 6.9121,5.23652 10.08014,3.44507 z"
     id="path29"
     inkscape:connector-curvature="0"
     style="fill:#2e304b" /><path
     class="st0"
     d="m 229.16285,260.29438 -24.04834,0 0,-4.5475 c 0,-3.58289 3.02404,-6.61455 6.9121,-6.61455 l 10.36815,0 c 3.74405,0 6.9121,2.89386 6.9121,6.61455 l 0,4.5475 z"
     id="path31"
     inkscape:connector-curvature="0"
     style="fill:#f3d3c3" /><path
     class="st0"
     d="m 309.804,260.29438 -24.04833,0 0,-4.5475 c 0,-3.58289 3.02404,-6.61455 6.91209,-6.61455 l 10.36814,0 c 3.74406,0 6.91211,2.89386 6.91211,6.61455 l 0,4.5475 z"
     id="path33"
     inkscape:connector-curvature="0"
     style="fill:#f3d3c3" /><polygon
     class="st6"
     points="235.4,186 217.6,224.6 200.6,185.9 "
     id="polygon35"
     transform="matrix(1.4400205,0,0,1.3780318,-57.545225,-97.304876)"
     style="fill:#ffffff" /><rect
     x="306.77997"
     y="256.8493"
     class="st7"
     width="74.881065"
     height="6.8901591"
     id="rect37"
     style="fill:#464646" /><path
     class="st7"
     d="m 407.14939,231.90692 -125.85779,0 c -4.46407,0 -8.06411,-3.44508 -8.06411,-7.71697 l 0,-77.44539 c 0,-4.2719 3.60004,-7.71698 8.06411,-7.71698 l 125.85779,0 c 4.46406,0 8.06412,3.44508 8.06412,7.71698 l 0,77.44539 c 0,4.27189 -3.60006,7.71697 -8.06412,7.71697 z"
     id="path39"
     inkscape:connector-curvature="0"
     style="fill:#464646" /><polygon
     class="st8"
     points="289.4,216.9 293,257.6 265,257.6 268.7,216.9 "
     id="polygon41"
     transform="matrix(1.4400205,0,0,1.3780318,-57.545225,-97.304876)"
     style="fill:#7a7a7a" /><path
     class="st9"
     d="m 153.84978,256.02248 -15.69622,0 c -3.31205,0 -5.90408,-2.48045 -5.90408,-5.64993 l 0,-15.02055 27.50439,0 0,15.02055 c 0,3.16948 -2.59205,5.64993 -5.90409,5.64993 z"
     id="path43"
     inkscape:connector-curvature="0"
     style="fill:#e8e8e8" /><path
     class="st10"
     d="m 165.08195,260.29438 -38.16055,0 c -2.44803,0 -4.46406,-1.92924 -4.46406,-4.2719 l 0,0 46.94466,0 0,0 c 0.144,2.34266 -1.87202,4.2719 -4.32005,4.2719 z"
     id="path45"
     inkscape:connector-curvature="0"
     style="fill:#c1c1c1" /><path
     class="st11"
     d="m 159.75387,239.4861 c 4.03205,0 7.3441,-0.27561 7.3441,2.61825 l 0,0 c 0,2.89388 -3.31205,5.23653 -7.3441,5.23653"
     id="path47"
     inkscape:connector-curvature="0"
     style="fill:none;stroke:#c1c1c1;stroke-width:2.81737041;stroke-miterlimit:10" /><rect
     x="75.368675"
     y="422.90213"
     class="st4"
     width="25.92037"
     height="12.12668"
     id="rect49"
     style="fill:#414141" /><rect
     x="414.20551"
     y="422.90213"
     class="st4"
     width="25.92037"
     height="12.12668"
     id="rect51"
     style="fill:#414141" /></svg>