<svg xmlns="http://www.w3.org/2000/svg" id="Слой_1" viewBox="0 0 500 500"><style id="style3">.st0{fill:#f3d3c3}.st1{fill:#f8e3d0}.st2{fill:#211a17}.st3{fill:#2e304b}.st4{fill:#414141}.st5{fill:#575758}.st6{fill:#FFF}.st7{fill:#464646}.st8{fill:#7a7a7a}.st9{fill:#e8e8e8}.st10{fill:#c1c1c1}.st11{fill:none;stroke:#c1c1c1;stroke-width:2;stroke-miterlimit:10}</style><ellipse class="st0" cx="221.387" cy="98.789" rx="6.912" ry="7.579" id="ellipse5" fill="#f3d3c3"/><ellipse class="st0" cx="287.772" cy="98.238" rx="6.912" ry="7.579" id="ellipse7" fill="#f3d3c3"/><path class="st0" id="rect9" fill="#f3d3c3" d="M239.82 129.106h29.807v29.903H239.82z"/><ellipse class="st1" cx="254.651" cy="98.789" rx="33.408" ry="43.132" id="ellipse11" fill="#f8e3d0"/><g id="g13"><path class="st2" d="M260.123 75.638c-4.608-1.79-14.688-.965-20.448.827-5.904 1.79-11.952.413-11.952.413l-1.008.138-.864 2.343-.575 2.893s.288-1.516 0 0c-1.872-1.792-1.008 2.342-1.008 2.342s-.864 1.103-1.44 2.205c-.864-1.516 0 0 0 0s.576 15.848-1.296 15.985c-3.023-1.79-4.607-14.33-4.607-14.33s-2.592-13.506-2.16-16.262c.432-2.756 5.904-6.615 7.632-6.477-3.744-4.41 3.744-6.063 3.744-6.063s7.055-5.237 23.47-8.13c1.585-.138-2.303-1.378-5.47-1.654 1.15-1.793 8.35 1.24 8.35 1.24s-3.6-1.103-6.91-1.93c1.007-.827 6.047.138 10.943 1.654 8.928 2.756 16.992 2.48 19.585 5.65 1.296 1.24.144 3.445 2.016 3.72 1.872.138 12.672 2.618 16.128 11.438-4.032-3.86-6.912-3.583-6.912-3.583s6.336 5.924 6.192 10.196c0 1.654-.432 5.926-2.016 8.27-2.592 3.72-4.176 14.88-4.608 17.086-.72 3.445 0 0-1.872.138s-1.44-22.186-1.152-23.702c.576-2.067-15.12-4.823-15.12-4.823s17.136 2.342 14.976 6.614c-2.304-4.962-13.97-2.895-13.97-2.895" id="path15" fill="#211a17"/></g><path class="st3" d="M316.14 282.343H196.618v-106.11c0-9.507 8.065-17.224 18-17.224h83.522c9.936 0 18 7.716 18 17.224v106.11z" id="path17" fill="#2e304b"/><path class="st4" id="rect19" fill="#414141" d="M47.576 260.294h419.478v12.402H47.576z"/><path class="st5" id="rect21" fill="#575758" d="M58.088 272.697h399.318v150.205H58.088z"/><path class="st3" d="M209.58 250.786v8.82c0 .275-.29.55-.577.55l-42.193-.137c-6.48 0-11.808-5.79-11.808-12.68v-11.85c0-1.103.864-3.583 2.016-3.307l52.13 18.052c.287.138.43.413.43.55z" id="path23" fill="#2e304b"/><path class="st3" d="M305.628 250.924v7.855c0 .274.288.55.576.55l42.625.138c6.623 0 11.95-4.96 11.95-11.163l.145-12.126c0-.966-.864-1.517-2.016-1.24l-52.85 15.57c-.288.138-.432.276-.432.414z" id="path25" fill="#2e304b"/><path class="st3" d="M174.73 246.1l-17.568-7.58c-1.872-.825-2.736-3.03-1.872-4.684l35.28-64.078c.432-.827 1.152-1.654 1.872-2.205 10.656-8.682 15.553-9.784 30.96-7.166 1.01.55 1.44 1.792 1.01 2.756l-46.802 82.13c-.576.828-1.728 1.24-2.88.828z" id="path27" fill="#2e304b"/><path class="st3" d="M350.99 249.684l6.767-3.86c3.312-1.79 4.032-6.338 1.584-10.06l-41.616-65.042c-.288-.55-.72-.964-1.152-1.516-8.352-8.68-20.88-13.23-29.376-8.13l-1.44.827 55.152 84.335c2.592 3.72 6.913 5.237 10.08 3.446z" id="path29" fill="#2e304b"/><path class="st0" d="M229.163 260.294h-24.048v-4.547c0-3.583 3.024-6.615 6.912-6.615h10.368c3.744 0 6.912 2.894 6.912 6.615v4.547z" id="path31" fill="#f3d3c3"/><path class="st0" d="M309.804 260.294h-24.048v-4.547c0-3.583 3.024-6.615 6.912-6.615h10.368c3.744 0 6.912 2.894 6.912 6.615v4.547z" id="path33" fill="#f3d3c3"/><path class="st6" id="polygon35" fill="#fff" d="M281.436 159.01l-25.633 53.19-24.48-53.33z"/><path class="st7" id="rect37" fill="#464646" d="M306.78 256.85h74.88v6.89h-74.88z"/><path class="st7" d="M407.15 231.907H281.29c-4.464 0-8.065-3.445-8.065-7.717v-77.445c0-4.272 3.6-7.717 8.065-7.717H407.15c4.463 0 8.064 3.445 8.064 7.717v77.445c0 4.272-3.6 7.717-8.065 7.717z" id="path39" fill="#464646"/><path class="st8" id="polygon41" fill="#7a7a7a" d="M359.197 201.59l5.184 56.086h-40.32l5.328-56.086z"/><path class="st9" d="M153.85 256.022h-15.696c-3.312 0-5.905-2.48-5.905-5.65v-15.02h27.504v15.02c0 3.17-2.592 5.65-5.904 5.65z" id="path43" fill="#e8e8e8"/><path class="st10" d="M165.082 260.294h-38.16c-2.45 0-4.465-1.93-4.465-4.272h46.945c.144 2.343-1.872 4.272-4.32 4.272z" id="path45" fill="#c1c1c1"/><path class="st11" d="M159.754 239.486c4.032 0 7.344-.276 7.344 2.618s-3.312 5.237-7.344 5.237" id="path47" fill="none" stroke="#c1c1c1" stroke-width="2.817" stroke-miterlimit="10"/><path class="st4" id="rect49" fill="#414141" d="M75.37 422.902h25.92v12.127H75.37z"/><path class="st4" id="rect51" fill="#414141" d="M414.206 422.902h25.92v12.127h-25.92z"/></svg>