<?xml version="1.0" encoding="utf-8"?>
<!-- Generator: Adobe Illustrator 19.0.1, SVG Export Plug-In . SVG Version: 6.00 Build 0)  -->
<svg version="1.1" id="Слой_1" xmlns="http://www.w3.org/2000/svg" xmlns:xlink="http://www.w3.org/1999/xlink" x="0px" y="0px"
	 viewBox="-238 329 135 135" style="enable-background:new -238 329 135 135;" xml:space="preserve">
<style type="text/css">
	.st0{fill:#03131F;}
</style>
<g id="_x23_776bc2ff">
	<path class="st0" d="M-183,331.5c0.5-0.4,1.6-1.3,2.2-1.8c1.7-0.2,3.3-0.4,5-0.6c1.2,1.5,2.4,3,3.6,4.5c3.7-1.2,7.1-4.5,11.1-4.1
		c2.1,3.3,3.4,7,5.1,10.6c9.8,1.6,19.6,2.8,29.3,4.4c0.2,1.1,0.4,2.1,0.6,3.2c1.6,0.5,3.2,1.1,4.7,1.8c-2.1,10.2-5.1,20.3-7.3,30.5
		c0.7,1.1,1.9,1.7,2.9,2.5c7.6,5.1,15.1,10.3,22.7,15.5v1.8c-0.5,0.7-0.9,1.4-1.4,2.1c1.9,2.4,0,4.6-1.5,6.6
		c1.6,1.9,1.4,4.2-0.7,5.8c0.1,0.6,0.3,1.8,0.4,2.5c-0.8,5.2-5.9,7.4-9.6,10.3c0.5,2.2,3.4,5.3,1,7c-5.4,3.1-11.5,5-16.9,8.2
		c-4.1,4.7-6.9,10.4-10.8,15.3c-0.8,1.1-2.5,0.8-3.7,1.1c-1.8,1.8-4.3,2.2-6.7,1.8c-0.5,0.5-1.6,1.5-2.1,2c-0.7-0.3-2.2-0.8-3-1
		c-0.5,0.4-1.6,1.3-2.2,1.8c-1.7,0.1-3.3,0.3-5,0.5c-1.2-1.5-2.4-3-3.6-4.5c-3.7,1.5-7.1,4-11.2,4.4c-1.6-3.6-3.4-7.2-5-10.9
		c-9.8-1.6-19.6-2.8-29.4-4.4c-0.2-1-0.3-2-0.5-3.1c-1.6-0.6-3.2-1.2-4.8-2c2.1-10.4,5.2-20.6,7.3-31c-8.7-5.6-17.1-11.5-25.6-17.4
		v-1.8c0.5-0.7,1-1.4,1.4-2.1c-2-2.4,0-4.7,1.5-6.6c-1.7-1.9-1.3-4.2,0.6-5.7c-0.1-0.6-0.3-1.9-0.4-2.5c0.9-5.2,5.9-7.3,9.6-10.3
		c-0.5-2.2-3.4-5.2-1-7c5.4-3.1,11.6-5,16.9-8.2c4-4.7,6.9-10.4,10.8-15.2c0.9-1.1,2.5-0.8,3.7-1.1c1.9-1.8,4.3-2.2,6.7-1.8
		c0.5-0.5,1.6-1.4,2.1-1.9C-185.3,330.8-183.8,331.3-183,331.5 M-169.2,337.3c2.6,0.8,5.2,1.4,7.8,2.1c-0.6-1.4-1.2-2.9-1.7-4.4
		C-165.3,335.2-167.3,336.2-169.2,337.3 M-195.1,339.5c-2,18.3-5.2,36.4-7.5,54.6c-0.9,5.3-0.8,10.7-2.6,15.8
		c-1.5,11.6-3.7,23.1-4.8,34.8c21.2,3.1,42.4,6.2,63.6,9.3c3.2-22,6.6-44,9.2-66.1c0.7-2.2,1.4-4.4,1.6-6.7
		c1.4-10.9,3.5-21.7,4.5-32.6c-19-2.8-38-5.6-57.1-8.4C-190.4,339.7-192.7,339.3-195.1,339.5 M-229.6,376.8
		c6.7,7.6,13.1,15.4,19.7,23.1l0.8-0.2c1.4-5,2.7-10.1,3.3-15.3c1.5-10.6,3.2-21.1,4.5-31.7C-210.7,360.9-220.2,368.7-229.6,376.8
		 M-231.9,388c0.3,1.1,1.6,1.6,2.3,2.4c5.9,4.5,11.3,9.4,17.3,13.6c-5.6-6.6-11.3-13.2-16.8-19.9C-230,385.5-231.1,386.6-231.9,388
		 M-128.8,388.8c5.6,6.7,11.3,13.3,16.9,20c0.7-1.5,4-3.3,2.1-4.9C-116.2,398.9-122.3,393.5-128.8,388.8 M-131.9,392.9
		c-0.9,4.7-2.4,9.3-3,14.1c-1.5,11.1-3.4,22.1-4.7,33.3c9.2-7.9,18.4-15.8,27.8-23.5c-0.3-1.2-0.9-2.4-1.8-3.3
		c-4.7-5.3-9.2-10.8-13.8-16.2C-128.8,395.8-129.9,393.8-131.9,392.9 M-179.6,453.6c0.6,1.5,1.2,3,1.8,4.5c2.2-0.4,4.2-1.3,6.1-2.2
		C-174.3,454.9-177,454.3-179.6,453.6z"/>
	<path class="st0" d="M-190.5,368.4c-0.2-1.3-0.1-2.6,0.2-3.9c13.5,1.1,26.8,3.9,40.2,5.6c1.7,0.3,5.1,0.2,4.5,2.9
		c0.7,2.2-2.3,1.8-3.6,1.7C-162.9,372.6-176.8,370.9-190.5,368.4z"/>
	<path class="st0" d="M-193.4,382.1c-0.6-2.2,1.4-3.2,3.3-2.7c13.4,2,26.8,3.9,40.2,6c2.4,0,2.8,3,1.1,4.4
		c-13.2-1.6-26.2-3.9-39.4-5.7C-189.9,383.7-192.4,384-193.4,382.1z"/>
	<path class="st0" d="M-195.7,394.5c2.7-0.7,5.5-0.1,8.2,0.3c12.3,2,24.7,3.4,37,5.7c0.1,1.2,0.6,2.6-0.4,3.6c-1.6,0.6-3.3,0-5-0.1
		c-13.1-2.1-26.3-3.9-39.4-6C-195.5,397-195.6,395.8-195.7,394.5z"/>
</g>
</svg>
