<?xml version="1.0" encoding="UTF-8" standalone="no"?>
<svg
   xmlns:dc="http://purl.org/dc/elements/1.1/"
   xmlns:cc="http://creativecommons.org/ns#"
   xmlns:rdf="http://www.w3.org/1999/02/22-rdf-syntax-ns#"
   xmlns:svg="http://www.w3.org/2000/svg"
   xmlns="http://www.w3.org/2000/svg"
   xmlns:sodipodi="http://sodipodi.sourceforge.net/DTD/sodipodi-0.dtd"
   xmlns:inkscape="http://www.inkscape.org/namespaces/inkscape"
   id="Слой_1"
   viewBox="-238 329 99.421783 99.200843"
   width="99.422"
   height="99.201"
   version="1.1"
   inkscape:version="0.91 r13725"
   sodipodi:docname="paper.svg">
  <metadata
     id="metadata13">
    <rdf:RDF>
      <cc:Work
         rdf:about="">
        <dc:format>image/svg+xml</dc:format>
        <dc:type
           rdf:resource="http://purl.org/dc/dcmitype/StillImage" />
      </cc:Work>
    </rdf:RDF>
  </metadata>
  <defs
     id="defs11" />
  <sodipodi:namedview
     pagecolor="#ffffff"
     bordercolor="#666666"
     borderopacity="1"
     objecttolerance="10"
     gridtolerance="10"
     guidetolerance="10"
     inkscape:pageopacity="0"
     inkscape:pageshadow="2"
     inkscape:window-width="732"
     inkscape:window-height="480"
     id="namedview9"
     showgrid="false"
     inkscape:zoom="2.3790084"
     inkscape:cx="49.710999"
     inkscape:cy="49.600498"
     inkscape:window-x="59"
     inkscape:window-y="34"
     inkscape:window-maximized="0"
     inkscape:current-layer="Слой_1" />
  <style
     id="style3">.st0{fill:#03131f}</style>
  <g
     id="_x23_776bc2ff"
     fill="#03131f"
     style="fill:#003d54;fill-opacity:1">
    <path
       class="st0"
       d="M-197.42 330.767c.367-.294 1.177-.957 1.62-1.325 1.25-.147 2.43-.295 3.68-.442l2.653 3.314c2.724-.884 5.228-3.314 8.174-3.02 1.547 2.43 2.504 5.156 3.756 7.807 7.217 1.18 14.435 2.063 21.578 3.24.15.812.296 1.548.443 2.358 1.18.368 2.357.81 3.462 1.326-1.547 7.512-3.756 14.95-5.377 22.462.516.81 1.4 1.252 2.136 1.84 5.597 3.757 11.12 7.586 16.718 11.416v1.326c-.368.515-.663 1.03-1.03 1.546 1.398 1.768 0 3.388-1.106 4.86 1.178 1.4 1.03 3.094-.515 4.272.074.442.22 1.326.295 1.84-.59 3.83-4.345 5.45-7.07 7.587.368 1.62 2.504 3.903.737 5.155-3.977 2.283-8.47 3.682-12.447 6.04-3.02 3.46-5.08 7.658-7.953 11.267-.59.81-1.84.59-2.725.81-1.326 1.326-3.167 1.62-4.934 1.326-.37.37-1.18 1.105-1.547 1.473a19.42 19.42 0 0 0-2.21-.736c-.368.295-1.178.957-1.62 1.326-1.252.073-2.43.22-3.682.368l-2.65-3.313c-2.726 1.104-5.23 2.946-8.25 3.24-1.178-2.65-2.503-5.302-3.682-8.027-7.217-1.18-14.434-2.062-21.652-3.24-.147-.737-.22-1.474-.368-2.284-1.178-.44-2.356-.883-3.535-1.473 1.547-7.66 3.83-15.17 5.376-22.83-6.407-4.124-12.593-8.47-18.853-12.814v-1.327c.368-.515.736-1.03 1.03-1.546-1.472-1.768 0-3.462 1.106-4.86-1.252-1.4-.958-3.094.442-4.2-.074-.44-.22-1.398-.295-1.84.663-3.83 4.345-5.376 7.07-7.585-.368-1.62-2.504-3.83-.736-5.156 3.976-2.283 8.542-3.682 12.446-6.04 2.946-3.46 5.08-7.658 7.953-11.193.663-.81 1.842-.59 2.725-.81 1.4-1.325 3.168-1.62 4.936-1.325.368-.37 1.178-1.03 1.546-1.4.663.074 1.768.442 2.357.59m10.162 4.27c1.915.59 3.83 1.032 5.744 1.548a42.25 42.25 0 0 1-1.252-3.24c-1.62.146-3.093.883-4.492 1.693m-19.074 1.62c-1.473 13.476-3.83 26.806-5.524 40.21-.663 3.903-.59 7.88-1.915 11.636-1.105 8.543-2.725 17.012-3.536 25.63l46.84 6.848c2.356-16.203 4.86-32.405 6.775-48.68.514-1.62 1.03-3.24 1.177-4.935 1.03-8.028 2.578-15.982 3.314-24.01-13.992-2.06-27.984-4.123-42.05-6.185-1.62-.37-3.315-.663-5.082-.516m-25.408 27.47c4.934 5.596 9.647 11.34 14.508 17.01l.59-.146c1.03-3.682 1.988-7.438 2.43-11.268 1.104-7.806 2.356-15.54 3.314-23.346-6.923 6.04-13.92 11.784-20.842 17.75m-1.694 8.247c.22.81 1.178 1.18 1.694 1.768 4.345 3.314 8.322 6.923 12.74 10.016-4.124-4.86-8.32-9.72-12.372-14.655-.663 1.03-1.473 1.84-2.062 2.872m75.93.59c4.123 4.934 8.32 9.794 12.445 14.73.516-1.106 2.947-2.432 1.548-3.61-4.714-3.682-9.206-7.66-13.993-11.12m-2.283 3.02c-.663 3.46-1.768 6.848-2.21 10.383-1.104 8.175-2.504 16.276-3.46 24.524 6.774-5.818 13.55-11.636 20.473-17.307-.22-.883-.663-1.767-1.326-2.43-3.462-3.903-6.776-7.954-10.164-11.93-1.03-1.105-1.84-2.578-3.314-3.24m-35.13 44.702c.443 1.104.885 2.208 1.326 3.313 1.62-.295 3.094-.957 4.493-1.62-1.914-.737-3.902-1.18-5.817-1.694z"
       id="path6"
       style="fill:#003d54;fill-opacity:1" />
    <path
       class="st0"
       d="M-202.945 357.943c-.147-.958-.073-1.915.148-2.872 9.942.81 19.737 2.873 29.605 4.125 1.252.22 3.756.147 3.314 2.135.516 1.62-1.694 1.326-2.65 1.252-10.09-1.546-20.327-2.798-30.417-4.64z"
       id="path8"
       style="fill:#003d54;fill-opacity:1" />
    <path
       class="st0"
       d="M-205.08 368.032c-.442-1.62 1.03-2.356 2.43-1.988 9.87 1.473 19.737 2.872 29.606 4.42 1.767 0 2.062 2.208.81 3.24-9.722-1.18-19.296-2.873-29.017-4.2-1.253-.293-3.094-.072-3.83-1.472z"
       id="path10"
       style="fill:#003d54;fill-opacity:1" />
    <path
       class="st0"
       d="M-206.774 377.164c1.988-.515 4.05-.073 6.04.22 9.057 1.474 18.19 2.505 27.248 4.2.073.883.442 1.914-.295 2.65-1.18.442-2.43 0-3.683-.073-9.648-1.546-19.37-2.872-29.017-4.418-.147-.737-.22-1.62-.294-2.578z"
       id="path12"
       style="fill:#003d54;fill-opacity:1" />
  </g>
</svg>
