<?xml version="1.0" encoding="UTF-8" ?>
<!DOCTYPE svg PUBLIC "-//W3C//DTD SVG 1.1//EN" "http://www.w3.org/Graphics/SVG/1.1/DTD/svg11.dtd">
<svg width="135pt" height="135pt" viewBox="0 0 135 135" version="1.1" xmlns="http://www.w3.org/2000/svg">
<g id="#776bc2ff">
<path fill="#776bc2" opacity="1.00" d=" M 54.98 2.54 C 55.51 2.11 56.59 1.23 57.13 0.79 C 58.81 0.63 60.48 0.43 62.16 0.23 C 63.37 1.74 64.57 3.26 65.77 4.78 C 69.46 3.57 72.91 0.28 76.85 0.72 C 78.99 4.01 80.29 7.76 81.99 11.28 C 91.76 12.84 101.57 14.06 111.33 15.71 C 111.54 16.78 111.75 17.85 111.96 18.92 C 113.56 19.43 115.13 20.03 116.66 20.73 C 114.57 30.97 111.61 41.01 109.41 51.21 C 110.10 52.31 111.34 52.90 112.35 53.67 C 119.94 58.76 127.49 63.92 135.00 69.12 L 135.00 70.93 C 134.53 71.64 134.06 72.33 133.58 73.03 C 135.51 75.41 133.58 77.68 132.06 79.61 C 133.67 81.55 133.41 83.84 131.38 85.37 C 131.49 85.99 131.72 87.21 131.83 87.82 C 130.99 93.00 125.96 95.20 122.27 98.12 C 122.74 100.31 125.68 103.38 123.25 105.17 C 117.83 108.28 111.75 110.13 106.38 113.33 C 102.31 118.06 99.44 123.71 95.55 128.59 C 94.72 129.74 93.05 129.35 91.86 129.73 C 90.01 131.49 87.61 131.96 85.15 131.53 C 84.61 132.02 83.55 133.00 83.01 133.49 C 82.27 133.23 80.77 132.72 80.03 132.46 C 79.48 132.90 78.39 133.79 77.85 134.23 C 76.17 134.37 74.51 134.57 72.84 134.75 C 71.63 133.25 70.42 131.73 69.23 130.22 C 65.51 131.70 62.10 134.23 58.01 134.58 C 56.36 130.95 54.61 127.37 53.01 123.72 C 43.23 122.17 33.40 120.94 23.63 119.28 C 23.47 118.25 23.30 117.23 23.14 116.21 C 21.51 115.63 19.91 114.98 18.36 114.23 C 20.44 103.82 23.57 93.66 25.63 83.25 C 16.95 77.66 8.51 71.70 0.00 65.87 L 0.00 64.07 C 0.47 63.36 0.96 62.66 1.45 61.97 C -0.54 59.60 1.47 57.30 2.96 55.36 C 1.30 53.45 1.66 51.17 3.61 49.63 C 3.50 49.00 3.29 47.75 3.18 47.13 C 4.07 41.97 9.09 39.79 12.75 36.83 C 12.27 34.66 9.32 31.64 11.72 29.87 C 17.16 26.72 23.28 24.87 28.66 21.64 C 32.69 16.90 35.57 11.28 39.45 6.42 C 40.30 5.28 41.93 5.63 43.14 5.28 C 45.00 3.53 47.41 3.06 49.88 3.46 C 50.40 2.98 51.45 2.02 51.97 1.54 C 52.72 1.79 54.22 2.29 54.98 2.54 M 68.77 8.26 C 71.36 9.03 73.98 9.71 76.60 10.40 C 76.03 8.95 75.45 7.51 74.92 6.05 C 72.70 6.22 70.71 7.24 68.77 8.26 M 42.95 10.45 C 40.94 28.70 37.79 46.82 35.46 65.03 C 34.60 70.31 34.67 75.72 32.86 80.81 C 31.40 92.41 29.15 103.92 28.08 115.57 C 49.28 118.65 70.46 121.78 91.66 124.87 C 94.90 102.85 98.28 80.82 100.89 58.72 C 101.57 56.54 102.25 54.35 102.44 52.06 C 103.81 41.17 105.93 30.38 106.95 19.45 C 87.93 16.66 68.91 13.84 49.88 11.10 C 47.59 10.73 45.29 10.25 42.95 10.45 M 8.38 47.80 C 15.05 55.41 21.45 63.24 28.06 70.89 L 28.85 70.70 C 30.21 65.68 31.51 60.61 32.16 55.44 C 33.62 44.86 35.39 34.32 36.66 23.72 C 27.32 31.85 17.77 39.72 8.38 47.80 M 6.12 59.03 C 6.42 60.17 7.68 60.68 8.46 61.46 C 14.32 65.91 19.76 70.90 25.80 75.11 C 20.20 68.46 14.54 61.87 8.97 55.20 C 7.98 56.45 6.89 57.63 6.12 59.03 M 109.16 59.84 C 114.77 66.51 120.45 73.11 126.03 79.80 C 126.69 78.32 130.01 76.52 128.17 74.90 C 121.83 69.89 115.73 64.55 109.16 59.84 M 106.09 63.88 C 105.22 68.62 103.64 73.21 103.08 78.00 C 101.54 89.10 99.67 100.15 98.34 111.28 C 107.54 103.37 116.74 95.47 126.12 87.79 C 125.79 86.57 125.26 85.43 124.35 84.54 C 119.69 79.22 115.20 73.75 110.59 68.38 C 109.19 66.79 108.07 64.84 106.09 63.88 M 58.36 124.57 C 58.97 126.05 59.58 127.53 60.18 129.02 C 62.33 128.65 64.33 127.75 66.28 126.80 C 63.68 125.92 61.01 125.28 58.36 124.57 Z" />
<path fill="#776bc2" opacity="1.00" d=" M 47.51 39.38 C 47.28 38.08 47.37 36.77 47.73 35.50 C 61.21 36.63 74.54 39.40 87.97 41.11 C 89.64 41.45 93.11 41.34 92.45 44.04 C 93.12 46.26 90.16 45.79 88.89 45.73 C 75.10 43.58 61.23 41.87 47.51 39.38 Z" />
<path fill="#776bc2" opacity="1.00" d=" M 44.64 53.07 C 44.08 50.91 46.07 49.91 47.92 50.34 C 61.32 52.33 74.74 54.28 88.12 56.35 C 90.55 56.38 90.92 59.40 89.27 60.80 C 76.09 59.24 63.02 56.90 49.88 55.12 C 48.09 54.67 45.64 55.02 44.64 53.07 Z" />
<path fill="#776bc2" opacity="1.00" d=" M 42.33 65.54 C 45.04 64.88 47.81 65.42 50.51 65.86 C 62.82 67.89 75.25 69.25 87.50 71.60 C 87.62 72.84 88.05 74.23 87.07 75.25 C 85.45 75.81 83.75 75.28 82.12 75.10 C 69.00 73.05 55.85 71.21 42.73 69.15 C 42.50 67.96 42.37 66.75 42.33 65.54 Z" />
</g>
</svg>
