<svg xmlns="http://www.w3.org/2000/svg" id="Слой_1" viewBox="-79 311.8 96.872878 96.677966" width="96.873" height="96.678"><style id="style3">.st0{fill:#003d54}</style><g id="_x23_776bc2ff" transform="translate(-2.106 7.83) scale(.97458)"><path id="path6" class="st0" d="M-38.4 313.6c.4-.3 1.2-1 1.6-1.3 1.3-.1 2.4-.3 3.7-.4l2.7 3.3c2.7-.9 5.2-3.3 8.2-3 1.5 2.4 2.5 5.2 3.8 7.8 7.2 1.2 14.4 2.1 21.6 3.2.1.8.3 1.5.4 2.4 1.2.4 2.4.8 3.5 1.3-1.5 7.5-3.8 15-5.4 22.5.5.8 1.4 1.3 2.1 1.8 5.6 3.8 11.1 7.6 16.7 11.4v1.3c-.4.5-.7 1-1 1.5 1.4 1.8 0 3.4-1.1 4.9 1.2 1.4 1 3.1-.5 4.3.1.4.2 1.3.3 1.8-.6 3.8-4.3 5.5-7.1 7.6.4 1.6 2.5 3.9.7 5.2-4 2.3-8.5 3.7-12.4 6-3 3.5-5.1 7.7-8 11.3-.6.8-1.8.6-2.7.8-1.3 1.3-3.2 1.6-4.9 1.3-.4.4-1.2 1.1-1.5 1.5-.7-.3-1.5-.5-2.2-.7-.4.3-1.2 1-1.6 1.3-1.3.1-2.4.2-3.7.4l-2.6-3.3c-2.7 1.1-5.2 2.9-8.3 3.2-1.2-2.6-2.5-5.3-3.7-8-7.2-1.2-14.4-2.1-21.7-3.2-.1-.7-.2-1.5-.4-2.3-1.2-.4-2.4-.9-3.5-1.5 1.5-7.7 3.8-15.2 5.4-22.8-6.4-4.1-12.6-8.5-18.9-12.8v-1.3c.4-.5.7-1 1-1.5-1.5-1.8 0-3.5 1.1-4.9-1.3-1.4-1-3.1.4-4.2-.1-.4-.2-1.4-.3-1.8.7-3.8 4.3-5.4 7.1-7.6-.4-1.6-2.5-3.8-.7-5.2 4-2.3 8.5-3.7 12.4-6 2.9-3.5 5.1-7.7 8-11.2.7-.8 1.8-.6 2.7-.8 1.4-1.3 3.2-1.6 4.9-1.3.4-.4 1.2-1 1.5-1.4.7-.1 1.8.2 2.4.4m10.1 4.2c1.9.6 3.8 1 5.7 1.5-.5-1.1-.9-2.1-1.3-3.2-1.5.2-3 .9-4.4 1.7m-19 1.7c-1.5 13.5-3.8 26.8-5.5 40.2-.7 3.9-.6 7.9-1.9 11.6-1.1 8.5-2.7 17-3.5 25.6l46.8 6.8c2.4-16.2 4.9-32.4 6.8-48.7.5-1.6 1-3.2 1.2-4.9 1-8 2.6-16 3.3-24-14-2.1-28-4.1-42.1-6.2-1.7-.3-3.4-.6-5.1-.4m-25.4 27.4c4.9 5.6 9.6 11.3 14.5 17l.6-.1c1-3.7 2-7.4 2.4-11.3 1.1-7.8 2.4-15.5 3.3-23.3-6.9 6-13.9 11.8-20.8 17.7m-1.7 8.3c.2.8 1.2 1.2 1.7 1.8 4.3 3.3 8.3 6.9 12.7 10-4.1-4.9-8.3-9.7-12.4-14.7-.6 1-1.4 1.8-2 2.9m75.9.6c4.1 4.9 8.3 9.8 12.4 14.7.5-1.1 2.9-2.4 1.5-3.6-4.6-3.7-9.1-7.7-13.9-11.1m-2.3 3c-.7 3.5-1.8 6.8-2.2 10.4-1.1 8.2-2.5 16.3-3.5 24.5 6.8-5.8 13.6-11.6 20.5-17.3-.2-.9-.7-1.8-1.3-2.4-3.5-3.9-6.8-8-10.2-11.9-1-1.2-1.8-2.7-3.3-3.3m-35.1 44.7c.4 1.1.9 2.2 1.3 3.3 1.6-.3 3.1-1 4.5-1.6-1.9-.8-3.9-1.2-5.8-1.7z" fill="#003d54"/><path id="path8" class="st0" d="M-43.9 340.7c-.1-1-.1-1.9.1-2.9 9.9.8 19.7 2.9 29.6 4.1 1.3.2 3.8.1 3.3 2.1.5 1.6-1.7 1.3-2.6 1.3-10.1-1.5-20.4-2.7-30.4-4.6z" fill="#003d54"/><path id="path10" class="st0" d="M-46.1 350.8c-.4-1.6 1-2.4 2.4-2 9.9 1.5 19.7 2.9 29.6 4.4 1.8 0 2.1 2.2.8 3.2-9.7-1.2-19.3-2.9-29-4.2-1.2-.2-3 0-3.8-1.4z" fill="#003d54"/><path id="path12" class="st0" d="M-47.8 360c2-.5 4.1-.1 6 .2 9.1 1.5 18.2 2.5 27.2 4.2.1.9.4 1.9-.3 2.6-1.2.4-2.4 0-3.7-.1-9.6-1.5-19.4-2.9-29-4.4 0-.7-.1-1.6-.2-2.5z" fill="#003d54"/></g></svg>