<?xml version="1.0" encoding="UTF-8" ?>
<!DOCTYPE svg PUBLIC "-//W3C//DTD SVG 1.1//EN" "http://www.w3.org/Graphics/SVG/1.1/DTD/svg11.dtd">
<svg width="90pt" height="90pt" viewBox="0 0 90 90" version="1.1" xmlns="http://www.w3.org/2000/svg">
<g id="#776bc2ff">
<path fill="#776bc2" opacity="1.00" d=" M 3.18 21.12 C 9.19 15.17 15.17 9.19 21.12 3.18 C 28.48 10.42 35.76 17.73 43.08 25.01 C 37.10 31.05 31.11 37.08 25.04 43.04 C 23.03 41.04 21.03 39.03 19.04 37.01 C 21.61 34.34 24.36 31.85 26.84 29.09 C 26.41 28.63 25.56 27.69 25.13 27.23 C 22.46 29.88 19.99 32.75 17.05 35.10 C 15.08 33.05 13.05 31.05 11.06 29.03 C 13.69 26.38 16.35 23.75 18.96 21.08 C 18.48 20.61 17.51 19.67 17.02 19.20 C 14.37 21.82 11.80 24.53 9.06 27.06 C 7.09 25.09 5.12 23.12 3.18 21.12 Z" />
<path fill="#776bc2" opacity="1.00" d=" M 68.44 4.55 C 72.48 3.24 75.05 7.10 77.56 9.49 C 80.10 12.32 83.36 14.59 85.30 17.91 C 86.72 23.40 80.72 26.23 77.85 29.87 C 71.85 23.99 65.93 18.03 60.01 12.06 C 62.83 9.60 65.00 6.16 68.44 4.55 Z" />
<path fill="#776bc2" opacity="1.00" d=" M 16.21 55.86 C 30.07 41.80 44.10 27.91 58.04 13.93 C 64.04 19.90 70.05 25.85 75.97 31.89 C 62.00 45.82 48.10 59.83 34.09 73.72 C 28.16 67.73 22.22 61.76 16.21 55.86 M 24.33 55.80 C 24.81 56.28 25.75 57.23 26.22 57.71 C 37.55 46.54 48.73 35.23 60.00 24.00 C 59.50 23.51 58.50 22.54 58.00 22.06 C 46.80 33.32 35.49 44.48 24.33 55.80 M 61.65 26.10 C 50.70 37.49 39.31 48.45 28.28 59.76 C 28.75 60.23 29.70 61.18 30.18 61.66 C 41.52 50.47 52.72 39.13 64.01 27.89 C 63.25 27.27 62.46 26.67 61.65 26.10 M 65.63 30.03 C 54.73 41.44 43.18 52.24 32.33 63.71 C 32.76 64.19 33.63 65.15 34.06 65.63 C 45.40 54.42 56.59 43.06 67.93 31.85 C 67.18 31.22 66.42 30.61 65.63 30.03 Z" />
<path fill="#776bc2" opacity="1.00" d=" M 46.95 64.95 C 52.93 58.90 58.96 52.90 64.98 46.90 C 72.25 54.24 79.58 61.51 86.82 68.88 C 80.81 74.83 74.83 80.81 68.88 86.82 C 66.87 84.88 64.89 82.90 62.93 80.92 C 65.53 78.20 68.23 75.57 70.88 72.89 C 70.05 72.38 68.95 70.39 67.98 71.94 C 65.60 74.23 63.35 76.65 60.97 78.94 C 58.95 76.94 56.94 74.93 54.91 72.95 C 57.34 70.05 60.18 67.53 62.84 64.83 C 62.13 64.26 61.41 63.69 60.70 63.12 C 58.23 65.83 55.58 68.36 52.99 70.96 C 50.96 68.97 48.96 66.96 46.95 64.95 Z" />
<path fill="#776bc2" opacity="1.00" d=" M 14.87 58.09 C 20.51 63.75 26.19 69.38 31.82 75.06 C 26.86 76.79 21.92 78.55 16.99 80.35 C 14.52 77.88 12.06 75.40 9.57 72.96 C 11.34 68.01 13.04 63.02 14.87 58.09 Z" />
<path fill="#776bc2" opacity="1.00" d=" M 5.47 84.42 C 6.53 81.55 7.52 78.65 8.77 75.86 C 10.55 77.64 12.33 79.42 14.12 81.21 C 11.25 82.30 8.36 83.35 5.47 84.42 Z" />
</g>
</svg>
