<svg xmlns="http://www.w3.org/2000/svg" id="Слой_1" viewBox="-260 352 56.456116 56.523727" width="56.456" height="56.524"><style id="style3">.st0{fill:#03131f}</style><g id="_x23_776bc2ff" fill="#03131f"><path class="st0" d="M-260 364.103A1021.25 1021.25 0 0 0-247.897 352c5.003 4.868 9.87 9.87 14.874 14.74-4.056 4.056-8.113 8.18-12.17 12.17l-4.057-4.057c1.758-1.826 3.584-3.516 5.274-5.34-.27-.34-.88-.948-1.15-1.286-1.825 1.758-3.448 3.72-5.476 5.34-1.352-1.42-2.704-2.77-4.057-4.123a405.46 405.46 0 0 0 5.343-5.41l-1.285-1.284c-1.825 1.758-3.516 3.584-5.41 5.342a110.967 110.967 0 0 1-3.988-3.99z" id="path6"/><path class="st0" d="M-215.917 352.88c2.705-.88 4.462 1.757 6.153 3.312 1.69 1.893 3.92 3.448 5.206 5.68.947 3.718-3.11 5.61-5.003 8.113a1009.87 1009.87 0 0 1-12.036-12.035c1.893-1.623 3.38-3.922 5.68-5.07z" id="path8"/><path class="st0" d="M-251.21 387.632c9.398-9.534 18.863-18.864 28.26-28.33 4.058 4.057 8.115 8.046 12.104 12.17-9.466 9.398-18.864 18.864-28.33 28.262-3.92-4.124-7.978-8.113-12.034-12.102m5.476-.068l1.285 1.285c7.64-7.574 15.214-15.214 22.854-22.787-.338-.338-1.014-1.014-1.353-1.284-7.57 7.57-15.21 15.144-22.784 22.784m25.22-20.08c-7.37 7.707-15.078 15.144-22.583 22.784.338.34.947.947 1.285 1.285 7.64-7.572 15.212-15.213 22.853-22.853-.473-.405-.946-.81-1.555-1.217m2.705 2.637c-7.37 7.708-15.213 15.01-22.515 22.785.27.338.88.947 1.15 1.285 7.64-7.573 15.212-15.28 22.92-22.853-.473-.406-1.014-.81-1.555-1.217z" id="path10"/><path class="st0" d="M-230.454 393.784a2082.63 2082.63 0 0 1 12.17-12.238c4.936 4.936 9.872 9.872 14.74 14.875-4.057 4.058-8.113 8.047-12.102 12.104a223.818 223.818 0 0 1-4.057-3.99c1.758-1.825 3.583-3.583 5.41-5.408-.542-.338-1.286-1.69-1.962-.676-1.623 1.555-3.11 3.177-4.733 4.732a235.292 235.292 0 0 0-4.124-4.056c1.623-1.96 3.583-3.65 5.34-5.477-.472-.407-.945-.745-1.42-1.15-1.69 1.825-3.447 3.515-5.205 5.273a237.368 237.368 0 0 0-4.057-3.99z" id="path12"/><path class="st0" d="M-252.09 389.12c3.787 3.853 7.64 7.64 11.495 11.493-3.38 1.15-6.694 2.367-10.007 3.584-1.69-1.69-3.313-3.38-5.003-5.004 1.082-3.38 2.23-6.76 3.516-10.074z" id="path14"/><path class="st0" d="M-258.445 406.9c.744-1.96 1.42-3.92 2.23-5.814a182.481 182.481 0 0 1 3.585 3.65c-1.96.745-3.854 1.49-5.815 2.165z" id="path16"/></g></svg>