<svg xmlns="http://www.w3.org/2000/svg" width="386.638" height="197.201" viewBox="0 0 362.47291 184.87606"><path class="st0" fill="#dde9e5" d="M52.396.377h310.077v184.5H52.396z"/><text transform="matrix(-.00927 -.96675 1.03431 -.00866 -151.978 -345.638)" class="st1 st2 st6" x="-515.535" y="226.244" font-size="37.238" font-family="MyriadPro-Regular" fill="#4a4b4c">STEP</text><g class="st7" opacity=".59"><path class="st8" d="M281.46 15.676c2.14-2.5 5.884-3.1 9.2-3.1h41.94c5.885-.5 11.02 4.1 11.341 9.4v26c-.642 4.1-3.744 8.1-8.238 8.6 0 .2 0 .6-.107.7-2.14.1-4.386-.3-6.526-.3-2.782 1.7-4.494 4.6-6.847 6.8-2.14-2.4-4.28-4.6-6.634-6.8v-4.2c.428 0 1.391.1 1.82.1 1.39 1.9 2.78 3.7 4.6 5.4 2.246-1.1 3.102-3.6 4.921-5.2 3.21-.7 6.847.4 9.843-1.2 3.638-2.3 2.889-7.1 3.103-10.7-.75-6.8.749-13.7-.535-20.4-.428-2.9-3.638-4.6-6.633-4.4-14.765.1-29.422-.1-44.08.1-3.53.2-5.242 3.4-6.205 6.2-.856 0-2.675 0-3.531-.1-.214-2.3.428-5 2.568-6.9z" fill="#4b4c4d"/><path class="st8" d="M247.972 33.776c.535-4.9 5.029-9.2 10.485-9 14.55-.1 29.101 0 43.652 0 3.316-.2 6.847 1 8.773 3.6 3.53 3.9 1.926 9.4 2.567 14-.534 6.5.535 13-.641 19.5-.75 3.6-4.066 6.9-8.239 7-9.308.4-18.616-.2-27.924.3-3.103 1.9-5.35 4.6-7.917 7-2.782-2.4-5.35-4.9-8.238-7.2-2.46-.1-5.029.2-7.275-.9-3.103-1.5-5.029-4.8-5.35-8.1l.107-26.2m9.95-4.9c-5.35.4-6.312 6.1-5.456 10.1-.856 6.5.32 13-.107 19.5.107 1.1.32 2.4.535 3.5.855.9 1.818 1.8 2.888 2.4 2.354.5 4.708.8 7.169 1 1.711 2.1 3.958 4 5.991 5.9 2.033-2 4.387-3.7 6.205-5.9 9.201-.5 18.51.1 27.925-.3.962-.2 1.818-.4 2.888-.7 1.07-.7 1.926-1.6 2.782-2.6.642-9 .214-18 .214-27 .214-2-.749-3.7-2.247-5.1-.428-.2-1.39-.7-1.819-.9-15.834-.2-31.348 0-46.968.1z" fill="#4b4c4d"/></g><text x="244.367" y="421.343" transform="matrix(1.0008 0 0 .9992 -151.978 -345.638)" font-size="11.359"><tspan x="244.367" y="421.343" class="st9 st10 st11" font-size="19.878" font-family="HelveticaLTStd-Bold" fill="#494a4b">Language.</tspan> <tspan x="244.367" y="434.974" class="st9 st12 st13" font-family="Helvetica-Normal" fill="#494a4b">The developer must speak English fluently</tspan> <tspan x="244.367" y="448.605" class="st9 st12 st13" font-family="Helvetica-Normal" fill="#494a4b">because this greatly speeds up the workflow.</tspan> <tspan x="244.367" y="462.235" class="st9 st12 st13" font-family="Helvetica-Normal" fill="#494a4b">We promise that the developer knows English</tspan> <tspan x="244.367" y="475.866" class="st9 st12 st13" font-family="Helvetica-Normal" fill="#494a4b">at a level sufficient to solve any issues during</tspan> <tspan x="244.367" y="489.497" class="st9 st12 st13" font-family="Helvetica-Normal" fill="#494a4b">the work process.</tspan></text><text style="line-height:125%" x="146.063" y="471.871" transform="matrix(.8896 0 0 1.1241 -151.978 -345.638)" font-weight="400" font-size="48.106" font-family="sans-serif" letter-spacing="0" word-spacing="0" fill="#4a4b4c"><tspan x="146.063" y="471.871" font-size="225.499">1</tspan></text></svg>