<svg xmlns="http://www.w3.org/2000/svg" xmlns:xlink="http://www.w3.org/1999/xlink" width="190.562" height="201.302" viewBox="0 0 178.6516 188.72034"><defs><linearGradient gradientTransform="translate(383.486 -251.725)" y2="751.503" x2="-105.768" y1="742.773" x1="-114.469" gradientUnits="userSpaceOnUse" id="d"><stop offset="0" stop-color="#4c7cac"/><stop offset="1" stop-color="#4b6a8d"/></linearGradient><linearGradient gradientTransform="translate(383.486 -251.725)" y2="757.034" x2="-99.719" y1="748.028" x1="-109.12" gradientUnits="userSpaceOnUse" id="e"><stop offset="0" stop-color="#f8dc5f"/><stop offset="1" stop-color="#f1c048"/></linearGradient><clipPath id="f"><use height="100%" width="100%" xlink:href="#a" overflow="visible"/></clipPath><radialGradient gradientUnits="userSpaceOnUse" gradientTransform="matrix(16.4481 0 0 -17.8773 248.817 -21112.34)" r="1" cy="-1168.177" cx="20.414" id="g"><stop offset="0" stop-color="#aeb1d2"/><stop offset=".3" stop-color="#aeb1d2"/><stop offset=".75" stop-color="#4c5587"/><stop offset="1" stop-color="#4c5587"/></radialGradient><clipPath id="h"><use height="100%" width="100%" xlink:href="#b" overflow="visible"/></clipPath><clipPath id="i"><use height="100%" width="100%" xlink:href="#c" overflow="visible"/></clipPath></defs><g transform="translate(-462.103 -403.716)"><path class="st5" d="M512.754 549.537l-13.7-.8c-1.5-.1-2.6-1.3-2.5-2.6l6.7-50.6c.1-.7.4-1.3.7-1.9 4.8-8.3 7.8-10.1 18.7-12.1.8.1 1.4.8 1.4 1.6l-9.7 65.2c0 .6-.7 1.2-1.6 1.2zm82.9-.1l13.7-1c1.5-.1 2.6-1.3 2.5-2.7l-7.4-50.6c-.1-.7-.4-1.3-.7-1.9-4.9-8.2-8-10-18.9-11.9-.8.2-1.4.8-1.4 1.6l10.6 65.3c0 .7.7 1.2 1.6 1.2z" fill="#314351"/><ellipse class="st6" cx="529.154" cy="439.037" rx="4.9" ry="5.3" fill="#eed2c4"/><ellipse class="st6" cx="576.354" cy="438.637" rx="4.9" ry="5.3" fill="#eed2c4"/><path class="st6" fill="#eed2c4" d="M563.454 460.337v21.1l-10.8 7.2-10.3-7.2v-21.1z"/><ellipse class="st7" cx="552.854" cy="439.037" rx="23.7" ry="30.4" fill="#f3e0cf"/><path class="st8" d="M556.654 422.637c-3.2-1.3-10.4-.7-14.5.6-4.2 1.3-8.5.3-8.5.3l-.7.1-.6 1.7-.4 2s.2-1.1 0 0c-1.3-1.3-.7 1.7-.7 1.7s-.6.8-1.1 1.5c-.6-1.1 0 0 0 0s.4 11.1-1 11.3c-2.2-1.3-3.2-10.1-3.2-10.1s-1.8-9.5-1.6-11.5c.3-1.9 4.2-4.6 5.4-4.6-2.6-3.1 2.6-4.3 2.6-4.3s5-3.7 16.6-5.7c1.1-.1-1.7-1-3.9-1.2.8-1.3 6 .8 6 .8s-2.5-.8-4.9-1.3c.7-.6 4.3.1 7.8 1.2 6.3 1.9 12.1 1.8 13.9 4 1 .8.1 2.4 1.4 2.6 1.3.1 9 1.9 11.5 8.1-2.9-2.7-4.9-2.5-4.9-2.5s4.5 4.2 4.4 7.2c0 1.2-.4 4.2-1.4 5.8-1.8 2.6-3 10.5-3.2 12.1-.5 2.4 0 0-1.3.1s-1.1-15.6-.8-16.7c.4-1.4-10.8-3.4-10.8-3.4s12.2 1.7 10.7 4.6c-1.7-3.5-9.9-2-9.9-2" fill="#1c1a18"/><path class="st5" d="M595.254 568.437h-84.9v-74.8c0-6.7 5.7-12.1 12.8-12.1h19.3l10.4 7.3 10.8-7.3h18.9c7.1 0 12.8 5.4 12.8 12.1v74.8z" fill="#314351"/><path class="st9" d="M609.254 577.137h-5.6c-.1-.9-1-1.6-1.9-1.6h-93.9c-1 0-1.8.8-1.8 1.6h-7c-1 0-1.8-.8-1.8-1.6 0-.9.8-1.6 1.8-1.6h110.1c1 0 1.8.8 1.8 1.6.1.9-.7 1.6-1.7 1.6z" fill="#8e8e8e"/><path class="st10" d="M606.754 573.937h-106.2c-1.7 0-3.8-.4-3.8-1.9l-3.5-58.5c0-1.4 1.4-2.7 3.1-2.7h115.6c1.7 0 3.1 1.2 3.1 2.7l-4.8 58.7c0 1.3-1.9 1.7-3.5 1.7z" fill="#aaa8a9"/><path class="st16" d="M469.254 553.937s-1.1.6.8.8c2.5.3 3.7.3 6.3-.3 0 0 .7.4 1.7.8-6 2.3-13.5-.1-8.8-1.3m-.8-3.1s-1.3.8.7 1.1c2.5.3 4.6.3 8.1-.3 0 0 .5.4 1.2.7-7.1 1.8-15.2.1-10-1.5" fill="#547f9c"/><path class="st17" d="M474.654 545.737c1.5 1.5-.4 2.9-.4 2.9s3.8-1.8 2-3.9c-1.6-2-2.8-3 3.9-6.5-.1 0-10.5 2.3-5.5 7.5" fill="#da7443"/><path class="st16" d="M482.554 556.137s.9.7-1 1.1c-3.4.9-14.4 1.3-17.3 0-1.1-.4 1-1 1.6-1.2.7-.2 1.1-.1 1.1-.1-1.2-.8-7.8 1.5-3.3 2.2 12 1.8 22-.8 18.9-2m-12.8-8.4s-5.5 1.2-1.9 1.6c1.5.2 4.6.2 7.4-.1 2.3-.2 4.6-.5 4.6-.5s-.8.3-1.4.7c-5.6 1.3-16.5.7-13.4-.7 2.5-1.2 4.7-1 4.7-1m10 5c5.7-2.7 3.1-5.2 1.2-4.9-.4.1-.6.2-.6.2s.2-.3.5-.3c3.7-1.2 6.5 3.4-1.1 5.2-.2 0-.1-.1 0-.2" fill="#547f9c"/><path class="st17" d="M476.254 532.637s3.2 2.9-3 7.3c-5 3.5-1.1 5.6 0 7.8-2.9-2.4-5-4.4-3.6-6.3 2.1-2.9 7.9-4.3 6.6-8.8" fill="#da7443"/><path class="st16" d="M470.254 559.937c5.5.3 13.9-.2 14.1-2.5 0 0-.4.9-4.6 1.6-4.6.8-10.4.7-13.9.2.1.1.8.6 4.4.7" fill="#547f9c"/><path class="st18" d="M483.854 587.137c-5.2 0-9.4-1.5-9.4-3.3v-3.3c0-.3.2-.6.4-.8 1.1 1.4 4.6 2.4 9 2.4s8-1.1 9-2.4c.2.3.4.5.4.8v3.3c0 1.8-4.2 3.3-9.4 3.3zm0-6.7c-5.2 0-9.4-1.5-9.4-3.3v-3.3c0-.2.1-.3.2-.5.1-.1.1-.2.2-.3 1.1 1.4 4.6 2.4 9 2.4s8-1.1 9-2.4c.1.1.2.2.2.3.1.2.2.3.2.5v3.3c0 1.8-4.2 3.3-9.4 3.3zm0-6.6c-5.2 0-9.4-1.5-9.4-3.3v-3.4c0-1.9 4.2-3.3 9.4-3.3s9.4 1.5 9.4 3.3v3.4c0 1.8-4.2 3.3-9.4 3.3zm0-8.3c-3.4 0-6.2.8-6.2 1.7 0 .9 2.8 1.7 6.2 1.7 3.4 0 6.2-.8 6.2-1.7 0-.9-2.8-1.7-6.2-1.7z" fill="#5d8296" stroke="#121314" stroke-miterlimit="10"/><path class="st19" d="M516.254 565.937v-.2h-.2c-.4 0-.8 0-1.1-.1-.4-.1-.8-.1-1.1-.3-.6-.2-1.1-.5-1.3-.7-.2-.2-.3-.3-.3-.4 0-.3.2-.5.5-.7.3-.1.5-.1 1 0s.9.2 1.1.2c-.9-1.1-1.6-2.3-2-3.3-.5-1.4-.5-2.7 0-3.2.9-.8 2-1.3 3.1-1.4 1.6-.3 3.2 0 3.9.1.2 0 .4-.1.6-.1h.9c.5 0 1.1.1 1.5.2.4.1.6.2 1 .3 1.7-.4 7.7-1.6 7.4 3.3 0 .6-.7 3-1.7 4.6-.4.6-.7 1.1-1.1 1.4-.6.5-1.2.7-2 .5l-.6-.3-.1.1c-.3.2-.6.3-.9.3-.4.1-1 .2-1.6.1-.3 0-.5-.1-.7-.2v.6c0 .3 0 .6-.1.8-.1.3-.1.6-.3.8v.1c-.3.6-.7 1.5-2.8 1.2-.8-.2-1.6-.3-2.1-.9-.7-.5-1-1.3-1-2.8z" fill="#68758b"/><path class="st2" d="M517.054 564.937c.1-.8-.4-.8-.8-.9l.2-.2c.2-.2.4-.3.6-.7 0-.1.1-.2.3-.3.4-.6 1.4-1.8 1.2-2.6-.1-.6-.7-.9-2.3-.8.1-.2.2-.3.4-.6.7-.8 2.1-2.1 4.7-2.1 3.2 0 3.7 2.2 3.8 3.1l-.4-.2c-.3-.1-.5-.2-.9-.2h-.9c-.4.1-.8.3-1 .8-.5 1.6-.1 2.3.3 2.9.3.4.2.3.3.5.1.1.1.3.2.3h-.1c-.2 0-.4.1-.6.2-.2.1-.4.3-.4.4-.1.2-.1.3-.1.4v2c0 .6-.1 1-.2 1.2-.1.2-.3.4-.5.6-.3.2-.7.3-1.4.2-.6-.1-1-.3-1.2-.4-.3-.2-.4-.5-.5-.8-.1-.3-.2-.8-.3-1.3-.3-.7-.4-1.3-.4-1.5zm7.3.4c-1.1-.2-1.1-.3-1.5-.6-.1-.1-.3-.3-.4-.3h-.1c-.1 0-.2 0-.3.1-.1.1-.2.1-.2.2s-.1.2 0 .3c.4.4.9.6 1.3.6.6-.1 1-.2 1.2-.3.2.1.4 0 .4 0h-.4zm.3-1.5c.1-.1.2-.1.3-.2.4-.3.6-.8.7-1.2v-.5c-.2-.7-.1-1.3-.1-1.6v-.2s.1-2-1.6-3.2c1.5-.3 6.1-1.2 5.9 2.5 0 .5-.6 2.8-1.6 4.3-.3.5-.6.9-1 1.2-.3.3-.5.3-.9.3-.2 0-.4-.2-.5-.3-.2-.3-.7-.7-1.2-1.1zm-5.7-7.2c-1.5.5-2.4 1.3-2.9 2-.2.2-.3.4-.4.6-.1.2-.1.3-.1.4 0 .3 0 .5.1.8 0 .2.1.3.1.6s0 .4-.1.7c-.1.6-.2 1.3.4 1.9 0 0-.1 0-.1.1-1-1.1-1.7-2.3-2.1-3.4-.4-1.2-.5-2.2-.2-2.5.7-.6 1.5-.9 2.3-1.1 1.2-.3 2.3-.2 3-.1zm6 3.6v.2c0 .3-.1.9.1 1.7v.4c-.1.3-.3.7-.6.9-.4.3-.7.4-1.1.4h-.3c0-.1-.1-.3-.2-.3-.1-.2-.1-.3-.4-.6-.4-.5-.7-1.1-.3-2.6.1-.3.3-.4.5-.5.2-.1.4-.1.7 0 .3 0 .5.1.7.2.7 0 .9.2.9.2zm-1.5-.2c-.2 0-.4 0-.6.1-.1.1-.2.1-.2.2s.1.1.2.2.3.1.4.1c.2 0 .3-.1.4-.2.1-.1.2-.2.1-.2-.2-.1-.2-.2-.3-.2zm-7.4-.2c1.2-.1 1.8.2 1.8.5.2.7-.7 1.8-1.1 2.4-.1.2-.2.3-.3.3-.1 0-.1.2-.2.3-.4-.5-.3-1-.2-1.5 0-.3.1-.5.1-.8 0-.3-.1-.4-.1-.7v-.5zm-.2 4.4h.2c.2 0 .5.1.4.6 0 0-.1 0-.3.1h-.7c-.4 0-1-.1-1.3-.2-.4-.1-.6-.3-.8-.3.9.1 1.9.3 2.5-.2zm.7-4.2s0 .1.1.2.2.1.4.1c.1 0 .2 0 .3-.1.1-.1.2-.1.2-.2 0 0 0-.1-.1-.1s-.2-.1-.3-.1h-.4c-.1.1-.2.1-.2.2zm-.9 4c-.1.1-.5.3-1.9 0h-.6c-.2.1-.3.2-.3.3 0 .1.1.2.2.3.2.2.6.4 1.1.6.4.2 1 .3 1.5.3h1.1c0 .3.1.7.2 1.1.1.5.2 1 .3 1.3.1.5.3.8.6 1.1.4.3.9.4 1.6.5.9.2 1.5 0 1.8-.3.4-.3.5-.5.7-.8.1-.2.2-.7.3-1.3v-1.5c.4.3.8.4 1.2.4.5.1 1.1 0 1.3-.1.3 0 .5-.2.6-.3.1-.1.2-.2.2-.3 0-.1 0-.2-.2-.3-.1-.1-.4-.2-.7-.3-.9-.1-.9-.2-1.1-.4l-.2-.2h.3c.3 0 .5-.1.8-.2.3.2.8.7 1.5 1.2.3.2.4.3.7.4.5.2 1 0 1.4-.3.4-.3.7-.8 1.1-1.3 1-1.6 1.6-3.9 1.6-4.5.4-4.6-6-3.1-6.9-2.9-.6-.3-1.3-.5-2.4-.4-.4 0-1 .1-1.3.1-.2 0-.4-.1-.5-.1h-.2c-.7-.1-2.1-.3-3.4 0-.9.2-1.8.6-2.5 1.3-.5.4-.4 1.6.1 2.9.1 1.2.8 2.5 2 3.7z" fill="#fff"/><path class="st20" fill="#e2c151" d="M563.554 560.837h10.7l-1 9.9-4.3 1.1-4.4-1.1z"/><path class="st21" fill="#ecd554" d="M568.954 561.537v9.4l3.6-.9.7-8.5z"/><path class="st22" fill="#ecebea" d="M567.454 568.037l-.1-1h-1.3l.2 2 2.7.6v-1.2zm1.6-1.6v-1.2h-1.6l.2-1.9 1.4-.1v-1.1h-2.6l-.1.8-.3 3.2v.3h.3z"/><path class="st2" fill="#fff" d="M570.554 563.337l.1 1.3h1.4l-.2-2.3-2.8-.2v1.2-.1z"/><path class="st2" fill="#fff" d="M571.854 563.337v-1.2h-2.9v1.2h2.9m-2.9 1.9v1.2h1.6l-.1 1.6-1.5.4v1.2l2.7-.6.1-.3.2-3.2.1-.3h-.4z"/><path class="st23" fill="#17181a" d="M569.954 558.637l.9.8v.5h-1.9v-.5h.9l-.9-.9v-.4h1.9v.5z"/><path class="st24" d="M568.654 558.137v1.9h-1.7v-.6h1v-1.3h.7z" fill="#131415"/><path class="st25" d="M547.554 538.537h13.8l3.4 4c-3.4 3.9-6.9 7.8-10.3 11.6-3.4-3.9-6.9-7.8-10.3-11.6l3.4-4z" fill="#c1524e"/><path class="st26" d="M554.454 538.537c1.2 1.3 2.5 2.7 3.8 4h-7.4c1.2-1.3 2.4-2.6 3.6-4z" fill="#cd6563"/><path class="st27" d="M547.554 538.537c1.1 1.4 2.1 2.7 3.2 4h-6.7c1.1-1.3 2.2-2.5 3.2-3.8l.3-.2zm12.1 4v5.8l-5.2 5.8-5.2-5.8v-5.8h10.4z" fill="#884946"/><path class="st26" d="M550.754 542.537c1.2 3.9 2.5 7.8 3.8 11.6-3.4-3.9-6.9-7.8-10.3-11.6h6.5z" fill="#cd6563"/><path class="st28" d="M564.854 542.537c-3.4 3.9-6.9 7.8-10.3 11.6 1.2-3.9 2.5-7.8 3.8-11.6h6.5z" fill="#4b3031"/><path class="st27" d="M561.354 538.537c-1.1 1.4-2.1 2.7-3.2 4h6.7c-1.1-1.3-2.2-2.5-3.2-3.8l-.3-.2z" fill="#884946"/><path class="st29" fill="#cc5e48" d="M578.554 560.537h10.5l-1 9.7-4.3 1-4.2-1z"/><path class="st30" fill="#d1704c" d="M583.754 561.237v9.2l3.5-.8.8-8.4z"/><path class="st22" fill="#ecebea" d="M582.054 564.837l-.1-1.1h1.8v-1.2h-3.2v.2l.4 3.3h2.8v-1.2zm.3 2.8v-1h-1.4l.1 1.9 2.7.7v-1.2z"/><path class="st24" d="M579.554 557.837h.7v.6h.6v-.6h.7v1.8h-.7v-.6h-.6v.6h-.7v-1.8zm2.8.6h-.6v-.6h1.8v.6h-.6v1.2h-.7l.1-1.2zm1.5-.6h.7l.4.7.4-.7h.7v1.8h-.7v-.9l-.4.7-.4-.7v.9h-.6l-.1-1.8zm2.7 0h.7v1.2h1v.6h-1.6l-.1-1.8z" fill="#131415"/><path class="st2" fill="#fff" d="M583.754 564.837v1.2h1.7l-.1 1.6-1.6.4v1.2l2.8-.7v-.2l.3-3.1v-.4h-.3zm0-1.6v.5h3.2l.2-.4v-.8h-3.4z"/><path class="st31" d="M601.154 558.337h-.9l.9.9v.4h-1.8v-.4h.9l-.9-.9v-.4h1.8v.4zm-2.2 0h-.9l.9.9v.4h-1.8v-.4h.9l-.9-.9v-.4h1.8v.4zm-2.2 0h-1v.8h1v.5h-1.6v-1.8h1.6v.5z" fill="#171818"/><path class="st32" fill="#4c719d" d="M592.854 560.537h10.5l-.9 9.7-4.4 1-4.3-1z"/><path class="st33" fill="#4c9bc2" d="M598.054 561.237v9.2l3.5-.8.9-8.4z"/><path class="st2" fill="#fff" d="M599.854 564.837l.1-1.2h-1.9v-1.2h3.3v.2l-.4 3.3h-2.9v-1.1z"/><path class="st22" fill="#ecebea" d="M596.554 567.537l-.1-1h-1.3l.3 2 2.6.6v-1.2z"/><path class="st2" fill="#fff" d="M600.754 568.537v-.3l.2-2.3h-1.3l-.1 1.6-1.5.4v1.2z"/><path class="st22" fill="#ecebea" d="M598.054 563.137v.5h-3l-.2-.4v-.6l-.1-.2h3.3zm0 2.4v.4h-1.5v-.2l-.1-.6v-.3h1.6z"/><path class="st2" d="M581.654 540.137c0 1.3 1.4 2.4 3.6 3-.4 1.9-.1 3.5 1.1 4.1 1.2.6 3.1.2 4.8-1.2 1.7 1.3 3.4 1.8 4.6 1.2 1.2-.6 1.6-2.3 1.1-4.3 2.3-.7 3.5-1.7 3.5-3 0-1.2-1.4-2.3-3.5-3 .4-2.1.1-3.6-1.1-4.2-1.2-.6-2.9-.1-4.6 1.3-1.8-1.4-3.5-1.9-4.7-1.2-1.2.6-1.6 2.2-1.1 4.1-2.3.9-3.7 2-3.7 3.2z" fill="#fff"/><path class="st34" d="M596.454 537.837c-.2-.1-.4-.1-.5-.2 0-.1.1-.3.1-.3.4-1.8.2-3.1-.8-3.6-.9-.4-2.3 0-3.7 1.1-.2.1-.3.3-.4.3l-.3-.3c-1.5-1.2-3-1.7-3.9-1.2-.9.4-1.1 1.8-.8 3.4 0 .2.1.3.1.5-.2.1-.4.1-.6.2-1.8.5-2.9 1.3-2.9 2.3 0 1 1.2 1.9 3.1 2.4.2.1.3.1.4.1-.1.2-.1.3-.1.5-.4 1.6-.1 2.9.8 3.4.9.4 2.4 0 3.9-1.1.1-.1.3-.2.4-.3.2.1.3.3.4.3 1.4 1.1 2.8 1.5 3.7 1.1.9-.4 1.1-1.9.8-3.5 0-.2-.1-.3-.1-.4.1 0 .2-.1.4-.1 1.9-.6 3.2-1.4 3.2-2.4-.4-.7-1.5-1.6-3.2-2.2z" fill="#5eb0c7"/><path class="st2" d="M595.954 541.937c-.1 0-.2.1-.3.1-.2-.6-.5-1.2-.9-1.9.4-.6.6-1.3.8-1.9.2.1.4.1.5.2 1.6.5 2.5 1.2 2.5 1.7 0 .6-.9 1.3-2.6 1.8zm-.7 1.2c.2.8.2 1.4.1 1.9s-.3.8-.5.9c-.5.3-1.7-.1-2.9-1-.2-.1-.3-.3-.4-.3.4-.4 1-1 1.4-1.6.8-.1 1.6-.2 2.3-.3-.1.2 0 .3 0 .4zm-6.9 2.8c-.5.2-.9.2-1.1 0-.5-.3-.7-1.3-.4-2.7 0-.2.1-.3.1-.5.7.2 1.4.3 2.3.3.4.6 1 1.1 1.4 1.5-.1.1-.2.2-.4.3-.7.6-1.3.9-1.9 1.1zm-2.4-4c-.8-.3-1.5-.6-1.9-.9-.4-.3-.6-.6-.6-.8 0-.5.9-1.2 2.4-1.7.2-.1.4-.1.6-.2.2.6.4 1.2.8 1.9-.4.7-.6 1.3-.8 1.9-.2-.1-.4-.1-.5-.2zm.8-4.8c-.4-1.4-.1-2.4.4-2.7.5-.3 1.8.1 3.1 1.1.1.1.2.2.3.2-.5.4-1 1-1.4 1.5-.8.1-1.5.2-2.2.3-.1-.1-.2-.2-.2-.4zm7.2 1.5c-.2-.3-.4-.5-.5-.8.5.1 1.1.2 1.5.3-.2.4-.4.8-.5 1.3-.1-.3-.3-.5-.5-.8zm-3-2.4c.4.3.6.7 1 1h-1.9c.3-.4.7-.8.9-1zm-2.9 2.4c-.2.3-.4.5-.4.8-.2-.4-.4-.8-.5-1.3.4-.1 1-.2 1.5-.3-.2.4-.4.6-.6.8zm.6 3.8c-.5-.1-1.1-.1-1.5-.3.2-.4.4-.8.5-1.3.2.3.4.5.4.8.2.3.4.6.6.8zm2.4 1.8c-.4-.3-.7-.7-1-1.1h2c-.4.4-.7.7-1 1.1zm3.3-3.3c.3.4.4.8.5 1.3-.5.1-1 .2-1.6.3.2-.3.4-.5.5-.8.4-.3.6-.6.6-.8zm-1 .4c-.3.4-.5.8-.8 1.1-.5 0-1 .1-1.5.1h-1.5c-.3-.3-.5-.8-.8-1.1-.3-.4-.5-.8-.7-1.2.2-.4.4-.8.7-1.2.3-.4.5-.8.8-1.1.5 0 1-.1 1.5-.1s1.1 0 1.5.1c.3.3.5.8.8 1.1.3.4.5.8.7 1.2-.3.3-.4.8-.7 1.1zm1.5-7c.5.3.8 1.4.4 3 0 .1-.1.2-.1.3-.7-.2-1.4-.3-2.2-.3-.4-.6-1-1.1-1.4-1.5.1-.1.3-.2.4-.3 1.2-1 2.4-1.4 2.9-1.2z" fill="#fff"/><path class="st34" d="M590.954 538.937c.8 0 1.5.6 1.5 1.3 0 .8-.7 1.3-1.5 1.3s-1.5-.6-1.5-1.3c0-.8.7-1.3 1.5-1.3" fill="#5eb0c7"/><path class="st35" d="M556.654 566.337c-4.6 8-14.4-1-9.6-6.7-.7 9.9 8.3 8.5 9.6 6.7zm-6.8-7.6c-3.9 3.9 3.6 10.5 6.9 4.6-1.4 1.5-7.8 1.5-6.9-4.6m2.7-.9c-.7 3.5 3.1 4 4.1 3.1-3.1 3.5-6.5-1.5-4.1-3.1z" fill="#4d80a6"/><path class="st36" d="M636.254 573.537l.4-5.7 1.1-1.6s-2.6.8-7.1.8-7.1-.8-7.1-.8l1.3 1.8.4 5.6c0 .6 2.5 1.1 5.4 1.1 3.2-.1 5.6-.6 5.6-1.2m-1.3-26.6l.9-2.9 4.9-4.2-1.3-.8-5.2 4.5-1.1 3.4h-2.4c-5.5 0-9.9.5-9.9 1.1 0 .6 4.5 1.1 9.9 1.1 5.5 0 9.9-.5 9.9-1.1.1-.5-2.3-1-5.7-1.1" fill="#c15551"/><path class="st2" d="M634.354 548.537h-.8c-.5 0-1 0-1.1-.1 0 0-.1-.1-.1-.2s.1-.2.2-.2l.1.1h-.1c0 .1.6.1 1.1.1.4 0 1 0 1-.1l-.1-.1.1-.1c.1 0 .2.1.2.2 0 .3-.3.4-.5.4" fill="#fff"/><path class="st36" d="M640.654 539.937c.1-.1-.1-.4-.4-.7-.4-.3-.7-.3-.9-.3-.1.1.1.4.4.7.4.3.8.4.9.3m-4.6 19.7c-.1-.9 2.5-2.2 1.8-2.3-1.4.1-2.1 1.3-2.8 2.7-.3.5-1.1 2.6-1.8 2.4-.6-.3.8-1.9 1.1-3-.4.3-2 1.3-2.5.3-.7.4-2.1.7-1.9-.5-.4.5-1.1 1.2-2.1.9-1.2-.4.7-3.6 1.2-3.5.5.2-.1.9-.3 1.2-.4.6-.7 1.4-.4 1.6.4.3 1.7-1 1.7-1.1.3-.3.9-1.9 1.4-1.7.5.2-1.3 2.3-.6 2.7.2.1.7-.1 1.1-.3.3-.2.2-.6.9-2s1.4-3.2 1.9-3c.5.2.1 1-.1 1.3-.9 1.6-2.4 4.2-1.7 4 .7-.2 1.1-.3 1.8-.8.7-.7.6-1.7 1.1-1.7.4 0 .4.3.3.6.4-.4 2.1-1.3 2.5-.4.4 1-2.4 2.5-1.7 2.4.7-.1 1.8-.7 2.3-1.2l1.3-9.7s-1.3.9-9.9.9c-8.5 0-9.7-.8-9.7-.8l1.1 8.9c.6-1.3 2-4.2 4.3-4.1 1.1.1 2.4 1.6 1.2 1.7-.5 0-.5-.8-1.1-.9-.4-.1-1.1.2-1.4.5-.8.6-2.4 3-2.2 4.1.3 1.5 2.5-.5 3-1.1.3-.4.4-1.7 1.1-1.5.6.2-.1 1.4-.5 2.6-.5 1.3-.8 2.6-1.3 2.5-.6-.2.4-1.9.4-2.1-.6.4-1.7 1.5-3 1l.7 5.5s1.8 1.2 7.5 1.2c5.6 0 7.6-1.2 7.6-1.2l.9-6.3c-.8.3-3.1 1.3-3.2.2" fill="#c15551"/><path class="st2" d="M617.054 573.937l9.2 4.6v9.3l-9.2 4.6-9.2-4.6v-9.3l9.2-4.6z" fill="#fff"/><path class="st37" d="M624.654 587.537l-7.3 3.6v-2.9l4.6-2.2 2.7 1.5zm.5-.4v-7.6l-2.6 1.3v4.9l2.6 1.4zm-15.7.4l7.3 3.6v-2.9l-4.6-2.2-2.7 1.5zm-.4-.4v-7.6l2.6 1.3v4.9l-2.6 1.4zm.3-8.1l7.4-3.7v2.8l-4.7 2.4-2.7-1.5zm15.4 0l-7.4-3.7v2.8l4.7 2.4 2.7-1.5z" fill="#91c7e4"/><path class="st38" d="M616.754 587.737l-4.5-2.2v-4.3l4.5 2.3v4.2m.7 0l4.5-2.2v-4.3l-4.5 2.3v4.2m-4.9-7l4.6-2.2 4.6 2.2-4.6 2.3-4.6-2.3" fill="#4e76a5"/><path class="st39" d="M510.354 529.937l-9.8 3.3 1.6 12.3 8.2 4.4 8.2-4.4 1.6-12.3-9.8-3.3z" fill="#b3b3b3"/><path class="st40" d="M519.254 534.037l-8.8-3v18l7.4-4 1.4-11z" fill="#924c48"/><path class="st41" d="M501.754 534.037l1.3 11 7.4 3.9v-18l-8.7 3.1z" fill="#c85149"/><path class="st42" d="M512.854 540.537l-2.5 1.1h-2.5l-1.2 3h-2.3l6-13 2.5 8.9zm-.3-.5l-2.2-4.2-1.8 4.1h1.8l2.2.1z" fill="#f3f2f1"/><path class="st39" d="M510.354 531.737v4.1l2 4.1h-2v1.7h2.8l1.3 3h2.2l-6.3-12.9z" fill="#b3b3b3"/><path class="st43" d="M276.1 489.6c-4.6 0-4.3 1.9-4.3 1.9v1.9h4.4v.6H270s-3-.3-3 4 2.5 4.2 2.5 4.2h1.6v-2s-.1-2.4 2.5-2.4h4.4s2.5 0 2.5-2.2v-3.7s.4-2.3-4.4-2.3zm-2.4 1.4c.4 0 .8.3.8.8s-.4.8-.8.8-.8-.3-.8-.8c-.1-.5.4-.8.8-.8z" fill="url(#d)" transform="translate(262.578 27.493)"/><path class="st44" d="M276.3 506.6c4.6 0 4.3-1.9 4.3-1.9v-1.9h-4.4v-.6h6.1s3 .3 3-4-2.5-4.2-2.5-4.2h-1.6v2s.1 2.4-2.5 2.4h-4.4s-2.5 0-2.5 2.2v3.7s-.4 2.3 4.5 2.3zm2.3-1.4c-.4 0-.8-.3-.8-.8s.4-.8.8-.8.8.3.8.8-.3.8-.8.8z" fill="url(#e)" transform="translate(262.578 27.493)"/><g transform="matrix(1.25 0 0 -1.25 -170.246 237.537)"><defs><path id="a" d="M579.8-231.5c0-2.5 3.6-4.6 8.1-4.6s8.1 2 8.1 4.6c0 2.5-3.6 4.6-8.1 4.6s-8.1-2.1-8.1-4.6"/></defs><g class="st45" clip-path="url(#f)"><path class="st46" d="M579.8-231.5c0-2.5 3.6-4.6 8.1-4.6s8.1 2 8.1 4.6c0 2.5-3.6 4.6-8.1 4.6s-8.1-2.1-8.1-4.6" fill="url(#g)"/></g></g><g transform="matrix(1.25 0 0 -1.25 -170.246 237.537)"><defs><path id="b" d="M574.7-239.5h26.1v15.9h-26.1z"/></defs><g class="st47" clip-path="url(#h)"><path class="st48" d="M587.8-235.74c4.3 0 7.7 1.9 7.7 4.2 0 2.3-3.4 4.2-7.7 4.2-4.3 0-7.7-1.9-7.7-4.2 0-2.3 3.4-4.2 7.7-4.2" fill="#767aae"/></g></g><g transform="matrix(1.25 0 0 -1.25 -170.246 237.537)"><defs><path id="c" d="M574.7-239.5h26.1v15.9h-26.1z"/></defs><g class="st49" clip-path="url(#i)"><path class="st50" d="M584.13-232.09c.4 0 .6.1.8.2.2.2.3.3.4.7.1.3 0 .5-.1.7-.1.1-.4.2-.6.2h-.5l-.4-1.8h.4zm-1.8-2.1c-.1 0-.1 0 0 0-.1.1-.1.1 0 0l.7 4.6c0 .1.1.1.1.1h1.8c.5 0 1-.2 1.2-.5.3-.3.4-.8.3-1.3 0-.3-.1-.4-.2-.7-.1-.2-.3-.3-.4-.5-.2-.2-.4-.3-.6-.4-.3-.1-.5-.1-.9-.1h-.7l-.2-1.2c0-.1 0-.1-.1-.1l-1 .1z" fill="#0d0f0f"/><path class="st2" d="M584.12-230.39h.5c.4 0 .5-.1.6-.2.1-.1.1-.3 0-.6s-.2-.5-.3-.7c-.2-.1-.4-.2-.7-.2h-.4l.3 1.7zm.7 1.1h-1.8c-.1 0-.2-.1-.2-.2l-.8-4.6v-.2c0-.1.1-.1.2-.1h1c.1 0 .2.1.2.2l.2 1.1h.6c.4 0 .7.1.9.2.3.1.4.3.7.4.2.2.3.3.4.6.1.2.2.4.3.7.1.6 0 1.1-.3 1.4-.3.3-.7.5-1.4.5m-1.3-2.9h.5c.4 0 .6.1.8.3.2.2.3.4.4.8.1.3 0 .6-.1.8-.1.2-.4.2-.7.2h-.6l-.3-2.1m1.3 2.7c.5 0 1-.2 1.1-.4.3-.3.4-.8.3-1.3 0-.3-.1-.4-.2-.6-.1-.2-.3-.3-.4-.5-.2-.2-.4-.3-.6-.4-.3-.1-.5-.1-.9-.1h-.8l-.2-1.2h-1l.8 4.6 1.9-.1" fill="#fff"/><path class="st50" d="M588.48-232.89c-.1 0-.1 0 0 0-.1.1-.1.1 0 0l.3 2.1v.4s-.1.1-.4.1h-.8l-.4-2.5c0-.1-.1-.1-.1-.1h-1v.1l.8 4.6c0 .1.1.1.1.1h1v-.1l-.2-1.1h.7c.5 0 .9-.1 1.1-.3.2-.3.3-.6.2-1l-.4-2.1c0-.1 0-.1-.1-.1h-.8z" fill="#0d0f0f"/><path class="st2" d="M587.96-228.04h-.9c-.1 0-.2-.1-.2-.2l-.8-4.6v-.2c0-.1.1-.1.2-.1h.9c.1 0 .2.1.2.2l.4 2.4h.6c.3 0 .4-.1.4-.1v-.3l-.4-2v-.2c0-.1.1-.1.2-.1h1c.1 0 .2.1.2.2l.4 2.1c.1.5 0 .8-.3 1.1-.3.3-.6.3-1.1.3h-.6l.2 1v.2c-.3.3-.3.3-.4.3m0-.2l-.2-1.2h.8c.5 0 .9-.1 1.1-.3.2-.2.3-.5.2-.9l-.4-2.1h-1l.4 2c0 .3 0 .4-.1.5-.1.1-.3.1-.4.1h-.7l-.4-2.6h-.9l.8 4.6.8-.1" fill="#fff"/><path class="st50" d="M591.35-232.09c.4 0 .6.1.8.2.2.2.3.3.4.7.1.3 0 .5-.1.7-.1.1-.4.2-.6.2h-.5l-.4-1.8h.4zm-1.8-2.1c-.1 0-.1 0 0 0-.1.1-.1.1 0 0l.7 4.6c0 .1.1.1.1.1h1.8c.5 0 1-.2 1.2-.5.3-.3.4-.8.3-1.3 0-.3-.1-.4-.2-.7-.1-.2-.3-.3-.4-.5-.2-.2-.4-.3-.6-.4-.3-.1-.5-.1-.9-.1h-.7l-.2-1.2c0-.1-.1-.1-.1-.1l-1 .1z" fill="#0d0f0f"/><path class="st2" d="M591.24-230.39h.5c.4 0 .5-.1.6-.2.1-.1.1-.3 0-.6s-.2-.5-.3-.7c-.2-.1-.4-.2-.7-.2h-.4l.3 1.7zm.8 1.1h-1.8c-.1 0-.2-.1-.2-.2l-.8-4.6v-.2c0-.1.1-.1.2-.1h1c.1 0 .2.1.2.2l.2 1.1h.6c.4 0 .7.1.9.2.3.1.4.3.7.4.2.2.3.3.4.6.1.2.2.4.3.7.1.6 0 1.1-.3 1.4-.3.3-.8.5-1.4.5m-1.3-2.9h.5c.4 0 .6.1.8.3.2.2.3.4.4.8.1.3 0 .6-.1.8-.1.2-.4.2-.7.2h-.6l-.3-2.1m1.3 2.7c.5 0 1-.2 1.1-.4.3-.3.4-.8.3-1.3 0-.3-.1-.4-.2-.6-.1-.2-.3-.3-.4-.5-.2-.2-.4-.3-.6-.4-.3-.1-.5-.1-.9-.1h-.8l-.2-1.2h-1l.8 4.6 1.9-.1" fill="#fff"/></g></g></g></svg>