<svg xmlns="http://www.w3.org/2000/svg" width="373.994" height="195.035" viewBox="0 0 350.61939 182.84571"><path class="st0" fill="#dde9e5" d="M54.276 102.805l-.567-59.734L54.276.08h296.343v182.767l-322.905-.694-9.358-16.246z"/><text y="836.647" x="-287.71" class="st1 st2 st6" transform="rotate(-90.514 -432.318 306.3)" font-size="36.001" font-family="MyriadPro-Regular" fill="#4a4b4c">STEP</text><text y="164.001" x="867.796" transform="matrix(.97202 0 0 1.02878 -742.48 -123.254)" font-size="10.178"><tspan class="st9 st10 st14" y="164.001" x="867.796" font-size="13.571" font-family="HelveticaLTStd-Bold" fill="#494a4b">Personality and culture.</tspan> <tspan class="st1 st12 st13" y="176.216" x="867.796" font-family="Helvetica-Normal" fill="#4a4b4c">Knowledge of the language is an excellent</tspan> <tspan class="st1 st12 st13" y="188.43" x="867.796" font-family="Helvetica-Normal" fill="#4a4b4c">advantage for the developer, but it doesn’t</tspan> <tspan class="st1 st12 st13" y="200.644" x="867.796" font-family="Helvetica-Normal" fill="#4a4b4c">mean anything if a person can’t become</tspan> <tspan class="st1 st12 st13" y="212.858" x="867.796" font-family="Helvetica-Normal" fill="#4a4b4c">part of the team. Before checking technical</tspan> <tspan class="st1 st12 st13" y="225.072" x="867.796" font-family="Helvetica-Normal" fill="#4a4b4c">knowledge, we always find out the personal</tspan> <tspan class="st1 st12 st13" y="237.286" x="867.796" font-family="Helvetica-Normal" fill="#4a4b4c">qualities of the employee and his loyalty to other</tspan> <tspan class="st1 st12 st13" y="249.5" x="867.796" font-family="Helvetica-Normal" fill="#4a4b4c">people. This helps to make sure that the team</tspan> <tspan class="st1 st12 st13" y="261.714" x="867.796" font-family="Helvetica-Normal" fill="#4a4b4c">won’t have any conflicts or problems</tspan> <tspan class="st1 st12 st13" y="273.928" x="867.796" font-family="Helvetica-Normal" fill="#4a4b4c">of a personal nature.</tspan></text><g class="st15" opacity=".48"><path d="M276.758 1.484c1.2-2 3.8-1.5 5.7-1.2 4.5.9 7.7 5 8.4 9.5 9 .1 18 0 27 .1 1.3-.2 2.5 1.1 2.3 2.4.1 7.8 0 15.7 0 23.4-.1.9.1 2.1-.6 2.7-.5.7-1.4.6-2.2.6h-17.3c-.4 1.2.2 3.3-1.3 3.7-7.1 3.3-14.8 5.3-22.6 4.4-5.6-.6-10.9-2.4-16-4.8-.3-2-.7-4.2-.4-6.3.2-1.9 1.6-3.5 3.3-4.3 3.6-1.8 7.7-2.6 11.5-4 1-.4 1.4-1.4 1.3-2.5-1-1.3-2.1-2.6-2.9-4.1-.6-1.2-1.9-1.7-2.5-2.9-.4-1.7-.4-3.5-.9-5.2-.9-4.3 1-9.1 4.8-11.5.7-.2 1.6.1 2.4 0m8.8 3.9c-2.1 3.1-4.3 6-6.5 9.1-2.6-1.9-2.5-2-4.2-3.2-.7.8-.7.8.4 1.7 1.3 1.3 2.8 2.8 4.4 3.7 1.9-2 3.1-4.7 4.8-6.9 1-1.3 1-1.3 2.4-3.7l-1.3-.7m5.4 5.9c-.3 2.2-.7 4.3-.9 6.4-.1 1.8-2 2.3-2.7 3.7-.7 1.6-1.9 2.8-3 4.1-.7 1.1.4 2.2 1.3 2.6 4.5 1.8 9.5 2.6 13.6 5.4 6.5.1 13.1.1 19.6 0-.1-6.6-.2-13.3-.1-19.8-.1-.8-.2-1.5-.8-2-.8-.4-1.1-.3-2-.4-8.3 0-16.6-.1-25 0m19.9 24.1v1.3h5.1c0-.4 0-.6-.1-1.3h-5z" class="st1" fill="#4a4b4c"/><path d="M302.858 16.884c.3-.1.7.2 1 .2-1.1 4.1-1.9 8.1-3.3 12.2-.3.1-.7-.1-1 .1 1.1-4.3 2.2-8.2 3.3-12.5zm-12.5 5.9c2.6-1.2 5.7-2.7 8.4-3.8-.1.3-.1.6-.1.9-2.1 1.1-4.9 2-6.8 3 1.9.9 4.8 2.2 6.6 3.1l.2 1c-2.5-.9-5.4-2.6-7.8-3.7-.5-.5-.1.2-.5-.5zm14.7-3.6l7.9 3.3-.1.6c-2.8 1.2 0 0-8.1 4.1.1-.3-.1-.6 0-1 7-3.4 5.1-2.5 7-3.4-6.6-2.7-4.8-1.8-6.6-2.7-.1-.3-.1-.5-.1-.9z" class="st1" fill="#4a4b4c"/></g><text transform="matrix(.83926 0 0 1.19153 -742.48 -123.254)" y="256.893" x="871.654" style="line-height:125%" font-weight="400" font-size="28.47" font-family="sans-serif" letter-spacing="0" word-spacing="0" fill="#4a4b4c"><tspan y="256.893" x="871.654" font-size="177.939">2</tspan></text></svg>