<svg xmlns="http://www.w3.org/2000/svg" width="388.055" height="202.476" viewBox="0 0 363.80163 189.82133"><path class="st0" fill="#dde9e5" d="M76.002 85.4l-2.7-24.7-26-4.2.2-56.5h316.3v184.5h-327.2l46.2-23.1-20.8-51.3z"/><text y="383.147" x="-606.199" class="st1 st2 st6" transform="rotate(-90.514 -357.634 -93.145)" font-size="36.001" font-family="MyriadPro-Regular" fill="#4a4b4c">STEP</text><text y="539.76" x="397.374" transform="matrix(1.00187 0 0 .99813 -267.698 -451.6)" font-size="10.572"><tspan class="st9 st10 st11" y="539.76" x="397.374" font-size="18.502" font-family="HelveticaLTStd-Bold" fill="#494a4b">Skills.</tspan> <tspan class="st1 st12 st13" y="552.447" x="397.374" font-family="Helvetica-Normal" fill="#4a4b4c">The qualifications of each candidate are</tspan> <tspan class="st1 st12 st13" y="565.134" x="397.374" font-family="Helvetica-Normal" fill="#4a4b4c">checked by experts in the field, as the</tspan> <tspan class="st1 st12 st13" y="577.821" x="397.374" font-family="Helvetica-Normal" fill="#4a4b4c">competence in technical skills must</tspan> <tspan class="st1 st12 st13" y="590.508" x="397.374" font-family="Helvetica-Normal" fill="#4a4b4c">satisfy the requirements of the client.</tspan></text><g class="st16" opacity=".47"><path d="M225.086 29.972c4.1-4 8.1-8 12.1-12.1 5 4.9 9.9 9.9 14.9 14.7-4.1 4.1-8.1 8.2-12.2 12.2l-4.1-4.1c1.8-1.8 3.6-3.5 5.3-5.3-.3-.3-.9-.9-1.1-1.3-1.8 1.8-3.4 3.7-5.5 5.3-1.4-1.4-2.7-2.8-4.1-4.1 1.8-1.8 3.6-3.6 5.3-5.4l-1.3-1.3c-1.8 1.8-3.5 3.6-5.4 5.3-1.3-1.2-2.6-2.6-3.9-3.9zm44.1-11.2c2.7-.9 4.5 1.8 6.2 3.3 1.7 1.9 3.9 3.4 5.2 5.7.9 3.7-3.1 5.6-5 8.1-4-4-8.1-8-12-12 1.8-1.7 3.3-4 5.6-5.1zm-35.3 34.7c9.4-9.5 18.9-18.9 28.3-28.3 4.1 4.1 8.1 8 12.1 12.2-9.5 9.4-18.9 18.9-28.3 28.3-4-4.2-8.1-8.2-12.1-12.2m5.5-.1l1.3 1.3c7.6-7.6 15.2-15.2 22.9-22.8-.3-.3-1-1-1.4-1.3-7.6 7.6-15.3 15.2-22.8 22.8m25.2-20c-7.4 7.7-15.1 15.1-22.6 22.8l1.3 1.3 22.9-22.9c-.5-.4-1-.8-1.6-1.2m2.7 2.6c-7.4 7.7-15.2 15-22.5 22.8.3.3.9.9 1.1 1.3 7.6-7.6 15.2-15.3 22.9-22.9-.4-.4-1-.8-1.5-1.2zm-12.7 23.7c4-4.1 8.1-8.2 12.2-12.2 4.9 4.9 9.9 9.9 14.7 14.9-4.1 4.1-8.1 8-12.1 12.1-1.4-1.3-2.7-2.6-4.1-4l5.4-5.4c-.5-.3-1.3-1.7-2-.7-1.6 1.6-3.1 3.2-4.7 4.7l-4.1-4.1c1.6-2 3.6-3.6 5.3-5.5-.5-.4-.9-.7-1.4-1.2-1.7 1.8-3.4 3.5-5.2 5.3-1.2-1.3-2.6-2.6-4-3.9zm-21.6-4.7c3.8 3.9 7.6 7.6 11.5 11.5-3.4 1.1-6.7 2.4-10 3.6-1.7-1.7-3.3-3.4-5-5 1.1-3.4 2.2-6.8 3.5-10.1zm-6.3 17.8c.7-2 1.4-3.9 2.2-5.8 1.2 1.2 2.4 2.4 3.6 3.7-2 .7-3.9 1.4-5.8 2.1z" class="st1" fill="#4a4b4c"/></g><text y="638.766" x="253.416" style="line-height:125%" font-weight="400" font-size="40" font-family="sans-serif" letter-spacing="0" word-spacing="0" fill="#4a4b4c" transform="translate(-267.698 -451.6)"><tspan y="638.766" x="253.416" font-size="187.5">3</tspan></text></svg>