<svg xmlns="http://www.w3.org/2000/svg" width="373.386" height="196.8" viewBox="0 0 350.04923 184.5"><path class="st0" fill="#dde9e5" d="M67.136 0H350.05v184.5H67.136z"/><text y="251.49" x="-445.167" class="st1 st2 st6" transform="matrix(-.00873 -1.02714 .9735 -.0092 -141.047 -331.54)" font-size="35.049" font-family="MyriadPro-Regular" fill="#4a4b4c">STEP</text><text y="409.174" x="255.868" transform="matrix(1.00367 0 0 .99635 -141.047 -331.54)" font-size="9.278"><tspan class="st9 st10 st11" y="409.174" x="255.868" font-size="16.237" font-family="HelveticaLTStd-Bold" fill="#494a4b">Test project.</tspan> <tspan class="st1 st12 st13" y="420.308" x="255.868" font-family="Helvetica-Normal" fill="#4a4b4c">It helps to estimate theoretical and practical</tspan> <tspan class="st1 st12 st13" y="431.442" x="255.868" font-family="Helvetica-Normal" fill="#4a4b4c">knowledge in development. Besides, this is</tspan> <tspan class="st1 st12 st13" y="442.576" x="255.868" font-family="Helvetica-Normal" fill="#4a4b4c">a great chance for the developer to show his</tspan> <tspan class="st1 st12 st13" y="453.71" x="255.868" font-family="Helvetica-Normal" fill="#4a4b4c">experience in programming, and demonstrate</tspan> <tspan class="st1 st12 st13" y="464.844" x="255.868" font-family="Helvetica-Normal" fill="#4a4b4c">his creative abilities.</tspan></text><g class="st16" opacity=".47"><path d="M252.417 15.057h2.18c1.611.7 2.749 2.1 3.696 3.6 4.645.1 9.383-.2 14.028.1 1.99.2 3.032 2.3 2.938 4.3v45.3c.284 2.3-1.612 4.5-3.886 4.3h-35.447c-2.275.3-4.076-1.9-3.886-4.2-.095-15.1 0-30.2 0-45.3-.095-1.9.853-4.1 2.843-4.3 4.644-.3 9.383 0 14.027-.1.853-1.5 1.99-2.9 3.507-3.7m-1.516 5.7l-4.17.4c0 .7.094 1.5.094 2.3h13.648c-.094-.8-.094-1.6-.094-2.4-1.327 0-2.749-.1-4.076-.1-.474-1.3-.853-3.6-2.654-3.4-1.99-.3-2.37 1.8-2.748 3.2m-16.586.5c-.095 16.2-.19 32.5 0 48.7 12.795.2 25.59.2 38.385 0 .19-16.2.094-32.5 0-48.7-3.318-.5-6.73-.3-10.142-.3 0 1.5-.094 3-.094 4.5-2.938.5-5.971.3-9.004.3-3.033 0-6.066.2-9.099-.3-.095-1.5-.095-2.9-.095-4.4-3.222-.3-6.54-.2-9.951.2z" class="st17" fill="#49494a"/><path d="M261.326 41.857c1.422-2.1 2.654-4.5 4.265-6.4 1.232-.3 1.801.1 1.517 1.5-1.706 2.9-3.412 5.9-5.592 8.5-1.611-1.6-3.317-3.1-4.55-4.9 0-1.1.474-1.6 1.612-1.3 1.042.7 1.8 1.7 2.748 2.6zm-21.514-2.7c4.454.1 9.004-.7 13.458 0-.095.7-.095 1.4-.095 2.1-4.454.1-8.909.1-13.269 0 0-.7 0-1.3-.094-2.1zm25.779 11.9c1.043-.3 1.612.1 1.612 1.3-1.612 3-3.507 5.8-5.403 8.6-1.8-1.7-4.833-3.3-4.644-6.1 1.896-.8 3.033 1.6 4.36 2.6 1.232-2.2 2.37-4.6 4.075-6.4zm-25.685 3.6c4.455-.1 8.91-.1 13.27 0 .094.7.094 1.4.094 2.1-4.55.5-9.099.5-13.553 0 .19-.7.19-1.4.19-2.1z" class="st17" fill="#49494a"/></g><text transform="matrix(.93616 0 0 1.0682 -141.047 -331.54)" y="482.992" x="141.123" style="line-height:125%" font-weight="400" font-size="31.268" font-family="sans-serif" letter-spacing="0" word-spacing="0" fill="#4a4b4c"><tspan y="482.992" x="141.123" font-size="195.426">4</tspan></text></svg>