<svg xmlns="http://www.w3.org/2000/svg" width="113.707" height="159.233" viewBox="0 0 106.6 149.28125"><g transform="translate(-226.7 -577.722)"><path class="st5" d="M243.6 703.103l-12-.8c-1.3-.1-2.3-1.2-2.2-2.3l5.9-43.7c.1-.6.3-1.2.6-1.7 4.2-7.1 6.8-8.7 16.4-10.4.7.1 1.2.7 1.2 1.4l-8.5 56.3c0 .8-.6 1.2-1.4 1.2zm72.6 0l12-.8c1.3-.1 2.3-1.2 2.1-2.3l-6.5-43.6c-.1-.6-.3-1.2-.6-1.7-4.3-7.1-7-8.7-16.5-10.2-.7.1-1.2.8-1.2 1.4l9.3 56.2c0 .5.6 1 1.4 1z" fill="#314351"/><ellipse class="st6" cx="258.1" cy="607.903" rx="4.3" ry="4.6" fill="#eed2c4"/><ellipse class="st6" cx="299.3" cy="607.603" rx="4.3" ry="4.6" fill="#eed2c4"/><path class="st6" fill="#eed2c4" d="M288 626.303v18.2l-9.4 6.2-9.1-6.2v-18.2z"/><ellipse class="st7" cx="278.7" cy="607.903" rx="20.8" ry="26.2" fill="#f3e0cf"/><path class="st8" d="M282.1 593.803c-2.9-1.1-9.2-.6-12.7.5-3.7 1.1-7.5.3-7.5.3l-.6.1-.5 1.5-.3 1.7s.2-.9 0 0c-1.2-1.1-.6 1.5-.6 1.5s-.5.7-.9 1.3c-.5-.9 0 0 0 0s.3 9.6-.8 9.7c-1.8-1.1-2.9-8.7-2.9-8.7s-1.6-8.2-1.4-9.9c.3-1.7 3.7-4 4.7-3.9-2.3-2.7 2.3-3.7 2.3-3.7s4.4-3.2 14.6-4.9c1-.1-1.4-.8-3.4-1 .7-1.1 5.2.8 5.2.8s-2.3-.7-4.3-1.2c.6-.5 3.8.1 6.8 1 5.5 1.7 10.6 1.5 12.2 3.5.8.8.1 2.1 1.2 2.3 1.2.1 7.9 1.6 10 6.9-2.5-2.4-4.3-2.1-4.3-2.1s4 3.6 3.8 6.2c0 1-.3 3.6-1.2 5-1.6 2.3-2.6 9-2.9 10.4-.5 2.1 0 0-1.2.1s-.9-13.4-.7-14.4c.3-1.2-9.4-2.9-9.4-2.9s10.7 1.5 9.3 4c-1.4-3-8.7-1.7-8.7-1.7" fill="#1c1a18"/><path class="st5" d="M315.9 719.403h-74.3v-64.4c0-5.8 5-10.5 11.2-10.5h16.8l9.1 6.2 9.4-6.2h16.5c6.2 0 11.2 4.7 11.2 10.5v64.4z" fill="#314351"/><path class="st9" d="M328.1 727.003h-4.9c-.1-.8-.8-1.4-1.7-1.4h-82.2c-.8 0-1.5.6-1.5 1.4h-6.2c-.8 0-1.5-.6-1.5-1.4 0-.8.7-1.4 1.5-1.4H328c.8 0 1.5.6 1.5 1.4.1.7-.5 1.4-1.4 1.4z" fill="#8e8e8e"/><path class="st10" d="M325.9 724.203h-92.8c-1.5 0-3.3-.3-3.3-1.7l-3.1-50.4c0-1.2 1.2-2.3 2.7-2.3h101.2c1.5 0 2.7 1 2.7 2.3l-4.2 50.6c-.1 1.2-1.7 1.5-3.2 1.5z" fill="#aaa8a9"/><ellipse class="st2" cx="278.6" cy="599.903" rx="16.6" ry="12.3" fill="#fff"/><path class="st12" d="M281.9 598.603v-1.7l-2.3-.8c-.1-.1-.1-.3-.2-.5l.9-2.1-1.4-1.2-2.3.8c-.2-.1-.3-.1-.5-.2l-1-2.1h-1.9l-1 2.1c-.2.1-.3.1-.5.2l-2.3-.8-1.4 1.2 1 2c-.1.1-.1.3-.2.5l-2.3.9v1.7l2.3.8c.1.2.1.3.2.5l-.9 2.1 1.4 1.2 2.3-.8c.2.1.3.1.5.2l1 2.1h1.9l1-2.1c.2-.1.3-.1.5-.2l2.3.8 1.4-1.2-1-2.1c.1-.1.1-.3.2-.5l2.3-.8zm-7.7 2.1c-1.8 0-3.3-1.3-3.3-3s1.5-3 3.3-3c1.8 0 3.3 1.3 3.3 3s-1.5 3-3.3 3zm19.1.6v-1.2l-1.7-.6c-.1-.1-.1-.2-.1-.3l.7-1.5-1-.9-1.7.6c-.1-.1-.3-.1-.4-.1l-.8-1.5h-1.4l-.7 1.5c-.1.1-.3.1-.4.1l-1.7-.6-1 .9.7 1.5c-.1.1-.1.2-.2.3l-1.7.6v1.2l1.7.6c.1.1.1.3.2.3l-.7 1.5 1 .9 1.7-.6c.1.1.3.1.4.1l.8 1.5h1.4l.7-1.5c.1-.1.3-.1.4-.1l1.7.6 1-.9-.7-1.5c.1-.1.1-.2.1-.3l1.7-.6zm-5.8 1.6c-1.4 0-2.5-1-2.5-2.1 0-1.2 1.1-2.1 2.5-2.1s2.5 1 2.5 2.1-1.1 2.1-2.5 2.1z" fill="#4e4e4f"/></g></svg>