<svg xmlns="http://www.w3.org/2000/svg" width="177.601" height="161.813" viewBox="0 0 166.50079 151.7"><g transform="translate(-250.1 -489.619)"><path class="st5" d="M266.9 618.819l-11.8-.7c-1.2-.1-2.3-1.1-2.1-2.1l5.9-41.3c.1-.5.3-1.1.6-1.5 4.2-6.8 6.7-8.3 16.2-9.8.7.1 1.2.7 1.2 1.3l-8.4 53.2c-.3.5-.8.9-1.6.9zm71.5 0l11.8-.8c1.2-.1 2.3-1.1 2.1-2.2l-6.4-41.2c-.1-.5-.3-1.1-.6-1.5-4.2-6.7-6.9-8.2-16.3-9.7-.7.1-1.2.7-1.2 1.3l9.1 53.2c.1.4.7.9 1.5.9z" fill="#314351"/><ellipse class="st6" cx="281.1" cy="528.719" rx="4.2" ry="4.3" fill="#eed2c4"/><ellipse class="st6" cx="321.8" cy="528.419" rx="4.2" ry="4.3" fill="#eed2c4"/><path class="st6" fill="#eed2c4" d="M310.6 546.119v17.2l-9.3 5.9-9-5.9v-17.2z"/><ellipse class="st7" cx="301.4" cy="528.719" rx="20.5" ry="24.8" fill="#f3e0cf"/><path class="st8" d="M304.8 515.319c-2.9-1-9-.5-12.5.5-3.6 1-7.3.3-7.3.3l-.6.1-.5 1.3-.4 1.7s.1-.9 0 0c-1.2-1-.6 1.3-.6 1.3s-.5.6-.9 1.3c-.5-.9 0 0 0 0s.4 9.1-.8 9.2c-1.8-1-2.9-8.2-2.9-8.2s-1.6-7.8-1.3-9.4c.3-1.6 3.6-3.8 4.7-3.7-2.3-2.5 2.3-3.5 2.3-3.5s4.3-3 14.4-4.7c1-.1-1.4-.8-3.4-.9.7-1 5.1.7 5.1.7s-2.2-.6-4.2-1.1c.6-.5 3.7.1 6.7.9 5.5 1.6 10.4 1.4 12 3.3.8.7.1 2 1.2 2.1 1.2.1 7.8 1.5 9.9 6.6-2.5-2.2-4.2-2.1-4.2-2.1s3.9 3.4 3.8 5.9c0 .9-.3 3.4-1.2 4.7-1.6 2.1-2.6 8.6-2.9 9.8-.4 2 0 0-1.2.1s-.9-12.8-.7-13.6c.4-1.2-9.3-2.7-9.3-2.7s10.5 1.3 9.1 3.8c-1.4-2.9-8.6-1.7-8.6-1.7" fill="#1c1a18"/><path class="st5" d="M338.1 634.219h-73.2v-61c0-5.5 5-9.9 11-9.9h16.6l9 5.9 9.3-5.9h16.3c6.1 0 11 4.4 11 9.9v61z" fill="#314351"/><path class="st9" d="M350.1 641.319h-4.8c-.1-.7-.8-1.3-1.7-1.3h-81c-.8 0-1.5.6-1.5 1.3h-6c-.8 0-1.5-.6-1.5-1.3 0-.7.7-1.3 1.5-1.3h95c.8 0 1.5.6 1.5 1.3 0 .8-.7 1.3-1.5 1.3z" fill="#8e8e8e"/><path class="st10" d="M347.9 638.719h-91.5c-1.5 0-3.2-.3-3.2-1.5l-3.1-47.8c0-1.2 1.2-2.2 2.6-2.2h99.8c1.5 0 2.6 1 2.6 2.2l-4.2 47.9c0 1.1-1.5 1.4-3 1.4z" fill="#aaa8a9"/><path class="st11" d="M395.8 534.919h-35.3c-11.6 0-20.8-8.6-20.8-19.1v-7.1c0-10.6 9.4-19.1 20.8-19.1h35.3c11.6 0 20.8 8.6 20.8 19.1v7.1c.1 10.6-9.3 19.1-20.8 19.1z" fill="#bfd3e1"/><path class="st11" fill="#bfd3e1" d="M348.6 537.719l-17 4.8 9-13.9 8.9-13.9 8.1 9 8.1 9.1z"/></g></svg>