<svg xmlns="http://www.w3.org/2000/svg" width="177.28" height="171.822" viewBox="0 0 166.2 161.08285"><g transform="translate(-1010.8 -792.517)"><path class="st5" d="M1034.8 907.2l-10.5-.7c-1.1-.1-2-1.1-1.9-2.1l5.2-39.9c.1-.5.2-1.1.6-1.5 3.7-6.5 6-8 14.4-9.5.6.1 1.1.7 1.1 1.2l-7.5 51.4c-.2.6-.7 1.1-1.4 1.1zm63.8-.1l10.5-.8c1.1-.1 2-1.1 1.9-2.1l-5.7-39.9c-.1-.5-.2-1.1-.6-1.5-3.8-6.4-6.1-8-14.6-9.3-.6.1-1.1.7-1 1.3l8.2 51.3c.1.6.6 1 1.3 1z" fill="#314351"/><ellipse class="st6" cx="1047.5" cy="820.1" rx="3.8" ry="4.2" fill="#eed2c4"/><ellipse class="st6" cx="1083.8" cy="819.8" rx="3.8" ry="4.2" fill="#eed2c4"/><path class="st6" fill="#eed2c4" d="M1073.9 836.9v16.6l-8.3 5.7-8-5.7v-16.6z"/><ellipse class="st7" cx="1065.7" cy="820.1" rx="18.3" ry="23.9" fill="#f3e0cf"/><path class="st8" d="M1068.7 807.3c-2.5-1-8-.5-11.2.5-3.2 1-6.5.2-6.5.2l-.6.1-.5 1.3-.3 1.6s.2-.8 0 0c-1-1-.6 1.3-.6 1.3s-.5.6-.8 1.2c-.5-.8 0 0 0 0s.3 8.8-.7 8.9c-1.7-1-2.5-8-2.5-8s-1.4-7.5-1.2-9c.2-1.5 3.2-3.6 4.2-3.6-2-2.4 2-3.3 2-3.3s3.9-2.9 12.8-4.5c.9-.1-1.3-.8-3-.9.6-1 4.6.7 4.6.7s-2-.6-3.8-1.1c.6-.5 3.3.1 6 .9 4.9 1.5 9.3 1.4 10.7 3.1.7.7.1 1.9 1.1 2 1 .1 6.9 1.4 8.8 6.4-2.2-2.1-3.8-2-3.8-2s3.5 3.3 3.4 5.7c0 .9-.2 3.3-1.1 4.6-1.4 2-2.3 8.3-2.5 9.5-.4 1.9 0 0-1 .1s-.8-12.4-.6-13.2c.3-1.1-8.3-2.7-8.3-2.7s9.4 1.3 8.2 3.6c-1.3-2.7-7.6-1.6-7.6-1.6" fill="#1c1a18"/><path class="st5" d="M1098.3 922H1033v-58.9c0-5.3 4.4-9.5 9.8-9.5h14.8l8 5.7 8.3-5.7h14.6c5.4 0 9.8 4.3 9.8 9.5V922z" fill="#314351"/></g><path class="st51" fill="#777" d="M35.6 122.783h22.3v26.9H35.6z"/><path class="st52" d="M78 136.283H15.5c-5.2 0-9.4-4-9.4-9v-34.8c0-5 4.2-9 9.4-9H78c5.2 0 9.4 4 9.4 9v34.8c0 4.9-4.2 9-9.4 9z" fill="#919191"/><path class="st5" fill="#314351" d="M11 89.083h71.6v42.5H11z"/><path class="st51" fill="#777" d="M11 88.083h71.6v4.4H11z"/><g transform="translate(-1010.8 -792.517)"><ellipse class="st53" cx="1025.3" cy="882.8" rx="1.7" ry="1.4" fill="#cc5f5c"/><ellipse class="st54" cx="1029.9" cy="882.8" rx="1.7" ry="1.4" fill="#e9b95a"/><ellipse class="st55" cx="1034.4" cy="882.8" rx="1.7" ry="1.4" fill="#55a462"/></g><text transform="matrix(1.2259 0 0 1 13.675 97.337)" class="st55 st56 st57" font-size="5.315" font-family="HelveticaRounded-Bold" fill="#55a462">.................................</text><text transform="matrix(1.2259 0 0 1 13.675 103.702)" class="st55 st56 st57" font-size="5.315" font-family="HelveticaRounded-Bold" fill="#55a462">.................................</text><text transform="matrix(1.2259 0 0 1 13.675 110.067)" class="st58 st59 st57" font-size="5.315" font-family="Helvetica-Condensed-Bold" fill="#61625e">&gt;</text><text transform="matrix(1.2259 0 0 1 18.599 110.067)" class="st55 st59 st57" font-size="5.315" font-family="Helvetica-Condensed-Bold" fill="#55a462">0 failures</text><path class="st51" fill="#777" d="M19.9 149.683h53v3.6h-53z"/><path class="st10" d="M154.5 158.983H75.6c-2.2 0-4-1.7-4-3.9v-48c0-2.1 1.8-3.9 4-3.9h78.9c2.2 0 4 1.7 4 3.9v48c0 2.1-1.8 3.9-4 3.9z" fill="#aaa8a9"/><path class="st9" d="M164 161.083H66.1c-1.3 0-2.2-1-2.2-2.1 0-1.2 1-2.1 2.2-2.1H164c1.3 0 2.2 1 2.2 2.1s-.9 2.1-2.2 2.1z" fill="#8e8e8e"/><path class="st2" fill="#fff" d="M76.1 108.883h78.2v45.5H76.1z"/><path class="st51" fill="#777" d="M76.1 107.783h78.2v4.7H76.1z"/><g transform="translate(-1010.8 -792.517)"><ellipse class="st53" cx="1090.7" cy="902.7" rx="1.8" ry="1.5" fill="#cc5f5c"/><ellipse class="st54" cx="1095.7" cy="902.7" rx="1.8" ry="1.5" fill="#e9b95a"/><ellipse class="st55" cx="1100.7" cy="902.7" rx="1.8" ry="1.5" fill="#55a462"/></g><path class="st60" fill="#5a73af" d="M76.1 112.483h78.2v5.8H76.1z"/><path class="st61" fill="#b7b7b8" d="M83.7 134.183h22.6v2.3H83.7zm0-2.9h22.6v2.3H83.7zm0-2.9h22.6v2.3H83.7zm0 9.3H94v1.7H83.7zm0-12.7H94v1.7H83.7zm0 15.2H94v1.7H83.7zm12.3-2.5h10.3v1.7H96zm0 2.5h10.3v1.7H96z"/><path class="st62" fill="#ccd6e6" d="M122.1 125.183h22.4v4h-22.4zm0 7h22.4v4.2h-22.4z"/><path class="st53" fill="#cc5f5c" d="M122.1 139.383h8.7v3.6h-8.7z"/><path class="st55" fill="#55a462" d="M135.7 139.383h8.7v3.6h-8.7z"/><g transform="translate(-1010.8 -792.517)"><path class="st52" d="M1028.7 945.6h-16.6c-.7 0-1.3-.6-1.3-1.3v-30.5c0-.7.6-1.3 1.3-1.3h16.6c.7 0 1.3.6 1.3 1.3v30.5c0 .7-.5 1.3-1.3 1.3z" fill="#919191"/><path class="st2" fill="#fff" d="M1012 914.7h17v26.5h-17z"/><ellipse class="st51" cx="1020.4" cy="943.7" rx="1.6" ry="1.4" fill="#777"/><path class="st60" fill="#5a73af" d="M1012 914.7h17v3h-17z"/><path class="st62" fill="#ccd6e6" d="M1015.6 920.2h8.7v2.3h-8.7zm0 3.9h8.7v2.3h-8.7z"/><path class="st53" fill="#cc5f5c" d="M1015.6 928.2h3.4v2h-3.4z"/><path class="st55" fill="#55a462" d="M1021 928.2h3.4v2h-3.4z"/><path class="st61" fill="#b7b7b8" d="M1016 936h7.9v1.1h-7.9zm0-1.3h7.9v1.1h-7.9zm0-1.2h7.9v1.1h-7.9zm0 4.1h3.6v.8h-3.6zm0-5.6h3.6v.8h-3.6zm0 6.7h3.6v.8h-3.6zm4.3-1.1h3.6v.8h-3.6zm0 1.1h3.6v.8h-3.6z"/><path class="st2" fill="#fff" d="M1012.7 915h2.9v.5h-2.9zm0 .9h2.9v.5h-2.9zm0 .8h2.9v.5h-2.9z"/></g></svg>